SplineFontDB: 3.2
FontName: Makiwara-Normal
FullName: Makiwara-Normal
FamilyName: Makiwara
Weight: Normal
Copyright: Makiwara Normal is a font by Swrs, rendered from the Metafont skeleton of the Computer Modern typeface, originally created by Donald E. Knuth. 2021
Version: 001.002
ItalicAngle: 0
UnderlinePosition: -102
UnderlineWidth: 51
Ascent: 819
Descent: 205
InvalidEm: 0
LayerCount: 2
Layer: 0 0 "Back" 1
Layer: 1 0 "Fore" 0
OS2Version: 0
OS2_WeightWidthSlopeOnly: 0
OS2_UseTypoMetrics: 0
CreationTime: 1622737790
ModificationTime: 1635254091
OS2TypoAscent: 0
OS2TypoAOffset: 1
OS2TypoDescent: 0
OS2TypoDOffset: 1
OS2TypoLinegap: 0
OS2WinAscent: 0
OS2WinAOffset: 1
OS2WinDescent: 0
OS2WinDOffset: 1
HheadAscent: 0
HheadAOffset: 1
HheadDescent: 0
HheadDOffset: 1
OS2Vendor: 'PfEd'
MarkAttachClasses: 1
DEI: 91125
LangName: 1033
Encoding: UnicodeBmp
UnicodeInterp: none
NameList: AGL For New Fonts
DisplaySize: -48
AntiAlias: 1
FitToEm: 0
WinInfo: 38 38 14
BeginPrivate: 3
lenIV 1 4
BlueValues 2 []
ForceBold 5 false
EndPrivate
BeginChars: 65537 411

StartChar: .notdef
Encoding: 65536 -1 0
Width: 704
Flags: HW
LayerCount: 2
Fore
SplineSet
347 638 m 0
 348 639 351 640 352 640 c 0
 356 640 360 637 367 629 c 0
 376 617 406 587 420 577 c 0
 463 542 513 518 566 508 c 0
 600 502 598 504 598 475 c 2
 598 454 l 1
 595 451 l 2
 591 447 588 447 571 450 c 0
 506 460 442 487 390 527 c 2
 382 534 l 2
 381 534 381 390 381 215 c 0
 381 -104 381 -105 379 -110 c 0
 370 -135 335 -135 326 -110 c 0
 324 -105 324 -104 324 215 c 0
 324 390 324 534 323 534 c 2
 314 527 l 2
 262 487 198 460 133 450 c 0
 116 447 114 447 110 451 c 2
 108 454 l 1
 108 475 l 2
 108 495 108 497 110 500 c 0
 112 503 114 504 138 508 c 0
 191 518 242 542 286 577 c 0
 299 587 329 617 338 629 c 0
 341 633 345 637 347 638 c 0
EndSplineSet
EndChar

StartChar: quotesingle
Encoding: 39 39 1
Width: 704
Flags: HW
LayerCount: 2
Fore
SplineSet
335 675 m 0
 362 681 393 671 410 654 c 0
 425 639 432 617 429 594 c 0
 428 587 375 371 373 365 c 0
 373 364 371 361 370 360 c 0
 368 358 365 358 352 358 c 0
 338 358 336 358 334 360 c 0
 333 361 331 364 331 365 c 0
 329 371 275 587 274 594 c 0
 273 599 273 606 273 610 c 0
 276 644 300 668 335 675 c 0
EndSplineSet
EndChar

StartChar: exclamdown
Encoding: 161 161 2
Width: 704
Flags: HW
LayerCount: 2
Fore
SplineSet
333 442 m 0
 367 451 403 436 419 404 c 0
 423 396 427 381 427 370 c 0
 427 360 423 344 419 336 c 0
 403 304 368 289 334 297 c 0
 293 307 269 348 279 388 c 0
 286 416 306 436 333 442 c 0
335 224 m 0
 338 226 341 226 352 226 c 0
 366 226 371 225 373 219 c 0
 374 217 426 -120 428 -135 c 0
 429 -149 422 -170 411 -182 c 0
 379 -215 325 -215 293 -182 c 0
 282 -170 274 -149 275 -135 c 0
 277 -120 330 217 331 219 c 0
 332 221 334 223 335 224 c 0
EndSplineSet
EndChar

StartChar: questiondown
Encoding: 191 191 3
Width: 704
Flags: HW
LayerCount: 2
Fore
SplineSet
312 442 m 0
 346 451 382 436 398 404 c 0
 402 396 407 381 407 370 c 0
 407 360 402 344 398 336 c 0
 382 304 347 289 313 297 c 0
 272 307 248 348 258 388 c 0
 265 416 285 436 312 442 c 0
315 224 m 0
 319 227 343 227 347 224 c 0
 353 222 353 220 353 190 c 0
 353 176 353 160 352 154 c 0
 350 141 346 121 342 109 c 0
 338 96 326 70 318 57 c 0
 301 29 273 1 241 -22 c 0
 224 -33 216 -43 210 -58 c 0
 204 -77 207 -112 215 -126 c 0
 221 -136 233 -143 250 -148 c 0
 272 -155 292 -157 364 -157 c 0
 431 -156 456 -153 489 -148 c 0
 505 -145 506 -145 499 -141 c 0
 491 -135 483 -126 478 -117 c 0
 472 -104 471 -97 471 -80 c 0
 471 -64 472 -57 478 -44 c 0
 484 -32 496 -20 509 -14 c 0
 523 -7 530 -6 546 -6 c 0
 561 -6 568 -7 582 -14 c 0
 600 -22 612 -39 617 -58 c 0
 620 -68 622 -86 620 -98 c 0
 617 -110 614 -117 609 -129 c 0
 603 -140 595 -150 586 -157 c 0
 551 -185 502 -197 415 -200 c 0
 381 -201 305 -201 279 -200 c 0
 200 -196 144 -178 113 -146 c 0
 95 -129 83 -104 83 -80 c 0
 83 -54 98 -25 118 -8 c 0
 130 1 137 5 166 19 c 0
 217 45 242 61 268 86 c 0
 287 106 299 124 304 143 c 0
 308 156 309 166 309 193 c 0
 309 220 309 222 315 224 c 0
EndSplineSet
EndChar

StartChar: dotlessi
Encoding: 305 305 4
Width: 704
Flags: HW
LayerCount: 2
Fore
SplineSet
322 453 m 0
 431 457 430 457 433 456 c 0
 435 455 436 454 437 452 c 0
 439 449 439 437 439 303 c 0
 439 158 439 134 443 110 c 0
 449 59 464 47 521 45 c 0
 531 45 542 44 543 44 c 0
 548 42 549 39 549 23 c 0
 549 0 548 -1 525 1 c 0
 474 7 449 9 382 8 c 0
 320 8 299 8 250 3 c 0
 219 0 217 0 213 3 c 2
 211 6 l 1
 211 23 l 1
 211 39 l 1
 213 42 l 1
 216 44 l 1
 238 45 l 2
 268 46 280 48 294 53 c 0
 304 57 313 66 318 75 c 0
 324 89 329 110 331 143 c 0
 332 169 332 302 330 318 c 0
 327 347 321 368 315 378 c 0
 304 395 286 401 244 403 c 2
 222 404 l 1
 219 407 l 1
 217 410 l 1
 217 426 l 2
 217 441 217 442 219 444 c 0
 220 446 223 448 224 449 c 0
 226 449 271 451 322 453 c 0
EndSplineSet
EndChar

StartChar: dotlessj
Encoding: 567 567 5
Width: 704
Flags: HW
LayerCount: 2
Fore
SplineSet
409 453 m 0
 524 457 523 457 526 456 c 0
 528 455 529 454 530 452 c 0
 532 449 532 430 532 198 c 0
 532 -73 532 -60 527 -80 c 0
 524 -91 514 -111 507 -121 c 0
 493 -139 472 -156 447 -168 c 0
 417 -183 385 -194 344 -199 c 0
 326 -201 263 -201 240 -199 c 0
 156 -192 112 -168 98 -121 c 0
 96 -114 96 -110 96 -97 c 0
 96 -81 97 -73 102 -61 c 0
 111 -43 128 -30 151 -24 c 0
 162 -21 179 -21 190 -24 c 0
 213 -30 230 -43 239 -61 c 0
 243 -71 245 -80 246 -92 c 0
 247 -114 239 -133 226 -148 c 2
 222 -153 l 1
 226 -153 l 2
 238 -155 260 -156 287 -156 c 0
 314 -156 317 -156 327 -154 c 0
 380 -143 418 -103 424 -56 c 0
 425 -49 425 1 425 129 c 0
 424 320 424 316 419 346 c 0
 410 390 392 401 326 403 c 2
 303 404 l 1
 300 407 l 1
 298 410 l 1
 298 426 l 2
 298 441 298 442 300 444 c 0
 301 446 304 448 305 449 c 0
 307 449 354 451 409 453 c 0
EndSplineSet
EndChar

StartChar: grave
Encoding: 96 96 6
Width: 704
Flags: HW
LayerCount: 2
Fore
SplineSet
193 643 m 0
 201 646 212 645 222 641 c 0
 227 639 254 624 319 586 c 0
 367 557 409 532 410 531 c 0
 414 528 414 524 410 513 c 0
 407 507 404 501 403 499 c 0
 402 496 398 493 394 493 c 0
 388 493 188 532 183 534 c 0
 159 543 148 560 148 584 c 0
 148 595 151 603 156 613 c 0
 163 627 178 640 193 643 c 0
EndSplineSet
EndChar

StartChar: acute
Encoding: 180 180 7
Width: 704
Flags: HW
LayerCount: 2
Fore
SplineSet
492 644 m 0
 514 648 538 635 548 613 c 0
 553 603 555 595 555 584 c 0
 555 560 544 543 520 534 c 0
 515 532 315 493 309 493 c 0
 305 493 301 496 300 499 c 0
 299 501 297 507 294 513 c 0
 290 524 290 528 294 531 c 0
 298 535 474 639 480 641 c 0
 484 642 489 644 492 644 c 0
EndSplineSet
EndChar

StartChar: caron
Encoding: 711 711 8
Width: 704
Flags: HW
LayerCount: 2
Fore
SplineSet
174 603 m 0
 176 603 178 604 180 604 c 0
 181 603 220 597 267 589 c 2
 352 574 l 1
 438 589 l 2
 517 603 525 604 528 603 c 0
 530 602 533 601 534 600 c 0
 534 599 537 593 539 586 c 0
 543 571 543 566 538 563 c 0
 537 562 493 544 443 525 c 0
 377 499 351 489 350 490 c 0
 341 492 166 562 165 564 c 0
 161 567 162 572 165 586 c 0
 168 593 170 599 170 600 c 0
 171 601 173 602 174 603 c 0
EndSplineSet
EndChar

StartChar: breve
Encoding: 728 728 9
Width: 704
Flags: HW
LayerCount: 2
Fore
SplineSet
141 639 m 0
 144 640 170 640 172 639 c 0
 176 637 178 633 178 628 c 0
 178 617 185 605 193 598 c 0
 208 586 230 579 274 575 c 0
 292 573 411 573 430 575 c 0
 473 579 496 586 511 598 c 0
 519 605 525 617 525 628 c 0
 525 633 527 637 531 639 c 0
 534 640 560 640 563 639 c 0
 569 636 570 628 568 613 c 0
 565 594 556 576 542 561 c 0
 520 537 477 520 426 512 c 0
 400 508 388 508 352 508 c 0
 315 508 304 508 278 512 c 0
 218 521 173 543 151 574 c 0
 143 585 137 600 135 614 c 0
 133 628 135 637 141 639 c 0
EndSplineSet
EndChar

StartChar: macron
Encoding: 175 175 10
Width: 704
Flags: HW
LayerCount: 2
Fore
SplineSet
102 587 m 0
 105 588 597 588 600 587 c 0
 605 585 606 582 606 559 c 0
 606 536 605 533 600 531 c 0
 598 530 522 530 350 530 c 2
 103 531 l 1
 100 534 l 1
 98 537 l 1
 97 558 l 2
 97 576 97 580 99 583 c 0
 99 584 101 586 102 587 c 0
EndSplineSet
EndChar

StartChar: ring
Encoding: 730 730 11
Width: 704
Flags: HW
LayerCount: 2
Fore
SplineSet
329 648 m 0
 340 649 374 648 384 647 c 0
 407 643 423 635 435 624 c 0
 448 610 454 594 451 577 c 0
 448 561 434 545 417 537 c 0
 398 527 382 524 352 524 c 0
 321 524 306 527 287 537 c 0
 270 545 256 561 253 577 c 0
 250 593 255 610 268 623 c 0
 282 637 302 645 329 648 c 0
379 616 m 0
 374 617 361 617 350 617 c 0
 314 617 305 614 299 602 c 0
 297 598 297 596 297 587 c 0
 297 560 306 555 351 555 c 0
 397 555 407 560 407 587 c 0
 407 607 401 613 379 616 c 0
EndSplineSet
EndChar

StartChar: cedilla
Encoding: 184 184 12
Width: 704
Flags: HW
LayerCount: 2
Fore
SplineSet
344 7 m 0
 347 9 350 9 395 9 c 0
 446 9 448 9 451 4 c 0
 452 3 452 -3 452 -8 c 2
 452 -19 l 1
 465 -20 l 2
 522 -25 562 -44 577 -72 c 0
 584 -86 586 -106 582 -119 c 0
 570 -163 505 -184 365 -191 c 0
 337 -192 219 -195 216 -194 c 0
 214 -193 212 -191 210 -189 c 0
 208 -187 208 -186 208 -172 c 0
 208 -155 209 -154 214 -151 c 0
 215 -150 226 -150 249 -150 c 0
 372 -150 441 -139 464 -120 c 0
 469 -115 471 -110 471 -103 c 0
 471 -87 459 -76 439 -69 c 0
 425 -64 393 -60 362 -60 c 0
 338 -60 339 -61 339 -26 c 0
 339 1 339 4 344 7 c 0
EndSplineSet
EndChar

StartChar: germandbls
Encoding: 223 223 13
Width: 704
Flags: HW
LayerCount: 2
Fore
SplineSet
336 645 m 0
 372 647 426 646 458 642 c 0
 520 636 572 617 601 590 c 0
 621 571 630 545 624 518 c 0
 621 508 611 489 604 482 c 0
 584 458 551 440 507 427 c 2
 496 423 l 1
 501 422 l 2
 510 418 540 402 551 394 c 0
 593 366 622 333 642 288 c 0
 662 242 669 188 660 145 c 0
 655 118 640 89 621 67 c 0
 597 40 556 16 514 6 c 0
 481 -3 459 -5 422 -5 c 0
 391 -5 384 -4 362 2 c 0
 317 17 289 52 289 91 c 0
 289 106 294 122 302 132 c 0
 307 138 321 146 329 148 c 0
 338 151 355 153 364 151 c 0
 392 144 409 121 409 92 c 0
 409 73 401 56 389 46 c 0
 386 44 384 42 385 42 c 0
 390 38 430 37 446 40 c 0
 475 45 496 56 513 72 c 0
 537 96 547 124 549 172 c 0
 550 202 546 235 540 261 c 0
 517 350 450 402 350 407 c 0
 327 408 327 409 327 429 c 0
 327 448 329 451 348 451 c 0
 382 451 416 455 441 463 c 0
 464 470 478 478 489 490 c 0
 503 505 510 519 509 538 c 0
 509 546 509 550 507 554 c 0
 505 561 498 572 492 577 c 0
 481 588 457 596 428 600 c 0
 410 602 352 602 334 600 c 0
 310 597 294 592 280 584 c 0
 271 580 259 568 255 560 c 0
 249 549 249 567 249 275 c 0
 249 27 249 8 247 5 c 0
 246 2 242 0 240 0 c 0
 239 0 235 1 231 3 c 0
 217 8 208 9 177 9 c 0
 144 8 113 5 86 1 c 0
 81 0 79 0 77 1 c 0
 72 3 71 6 71 23 c 0
 71 45 72 44 89 45 c 0
 106 47 118 50 125 58 c 0
 130 63 132 69 135 82 c 0
 140 109 141 133 141 279 c 2
 141 406 l 1
 110 406 l 2
 90 406 78 406 77 407 c 0
 71 410 71 411 71 428 c 0
 71 445 71 447 77 450 c 0
 78 451 90 451 110 451 c 2
 141 451 l 1
 141 498 l 2
 141 551 142 553 150 568 c 0
 154 576 156 580 164 588 c 0
 175 599 187 607 204 615 c 0
 238 631 284 642 336 645 c 0
EndSplineSet
EndChar

StartChar: ae
Encoding: 230 230 14
Width: 704
Flags: HW
LayerCount: 2
Fore
SplineSet
195 459 m 0
 208 460 248 459 261 457 c 0
 301 451 331 438 357 418 c 2
 367 411 l 1
 373 416 l 2
 406 444 453 460 500 460 c 0
 552 460 601 441 629 407 c 0
 653 380 667 344 673 301 c 0
 676 286 677 259 677 246 c 0
 677 236 676 234 674 230 c 2
 667 223 l 1
 663 221 l 1
 536 220 l 1
 409 220 l 1
 409 200 l 2
 411 152 417 121 429 95 c 0
 452 50 492 31 540 41 c 0
 584 49 620 81 633 123 c 0
 635 130 636 132 640 136 c 0
 652 148 675 141 677 123 c 0
 677 118 677 115 674 106 c 0
 656 53 611 12 555 -1 c 0
 538 -5 524 -6 505 -6 c 0
 452 -4 406 13 369 46 c 2
 359 53 l 1
 355 50 l 1
 324 21 277 3 219 -4 c 0
 202 -6 159 -6 147 -4 c 0
 109 3 81 17 58 36 c 0
 45 49 35 67 30 85 c 0
 27 96 27 120 30 132 c 0
 37 161 57 186 87 204 c 0
 127 229 194 245 268 248 c 0
 274 249 283 249 288 250 c 2
 296 250 l 1
 296 292 l 2
 295 337 295 342 289 359 c 0
 280 387 261 407 236 414 c 0
 229 416 203 416 187 415 c 2
 178 414 l 1
 185 407 l 2
 192 400 200 386 203 375 c 0
 205 366 205 343 203 334 c 0
 200 325 194 313 189 306 c 0
 184 300 173 291 164 287 c 0
 142 277 117 277 95 287 c 0
 86 291 75 300 70 306 c 0
 65 313 59 325 56 334 c 0
 54 344 53 361 56 373 c 0
 58 385 66 401 74 410 c 0
 97 437 142 455 195 459 c 0
515 412 m 0
 497 421 467 412 447 392 c 0
 435 380 428 366 421 346 c 0
 414 327 411 304 409 270 c 2
 409 257 l 1
 486 257 l 1
 564 257 l 1
 564 263 l 2
 564 267 564 278 563 288 c 0
 559 357 543 400 515 412 c 0
296 207 m 0
 296 212 296 212 293 212 c 0
 280 211 254 207 242 204 c 0
 222 200 197 190 185 183 c 0
 153 164 135 130 140 97 c 0
 142 81 149 69 160 57 c 0
 174 42 192 36 217 39 c 0
 245 42 269 54 286 71 c 0
 298 83 305 95 309 110 c 0
 313 122 313 126 310 136 c 0
 304 154 299 180 298 196 c 0
 297 199 297 205 296 207 c 0
EndSplineSet
EndChar

StartChar: oe
Encoding: 339 339 15
Width: 704
Flags: HW
LayerCount: 2
Fore
SplineSet
207 459 m 0
 267 465 330 445 369 406 c 2
 375 399 l 1
 385 410 l 2
 391 415 401 423 406 426 c 0
 417 434 441 447 454 451 c 0
 517 471 587 456 627 414 c 0
 646 394 662 363 670 330 c 0
 675 306 679 272 678 247 c 0
 678 236 677 234 675 230 c 2
 668 223 l 1
 664 221 l 1
 548 220 l 1
 433 220 l 1
 433 198 l 2
 435 149 441 118 453 91 c 0
 464 67 481 50 501 43 c 0
 525 33 560 39 587 57 c 0
 610 71 627 98 635 125 c 0
 637 133 643 139 649 141 c 0
 662 145 676 136 678 123 c 0
 679 113 668 85 654 65 c 0
 645 51 626 31 613 22 c 0
 574 -4 530 -12 480 -1 c 0
 443 6 412 22 386 48 c 2
 377 56 l 1
 370 49 l 2
 302 -19 182 -24 105 35 c 0
 63 68 38 117 28 185 c 0
 26 203 26 250 28 268 c 0
 40 353 78 411 143 441 c 0
 160 449 187 457 207 459 c 0
251 413 m 0
 244 415 225 416 219 415 c 0
 189 411 164 390 153 361 c 0
 146 344 141 320 139 286 c 0
 138 261 138 176 140 159 c 0
 145 108 155 81 175 61 c 0
 206 29 253 29 284 61 c 0
 304 81 313 108 318 155 c 0
 320 175 321 258 319 286 c 0
 317 320 313 344 306 361 c 0
 296 386 276 406 251 413 c 0
523 413 m 0
 520 415 517 415 512 416 c 0
 503 416 497 415 487 410 c 0
 473 403 460 388 452 370 c 0
 441 346 436 319 433 271 c 2
 433 257 l 1
 500 257 l 1
 565 257 l 1
 565 276 l 2
 563 319 559 347 550 374 c 0
 544 392 534 407 523 413 c 0
EndSplineSet
EndChar

StartChar: oslash
Encoding: 248 248 16
Width: 704
Flags: HW
LayerCount: 2
Fore
SplineSet
592 564 m 0
 595 566 600 565 605 562 c 0
 611 558 624 548 625 546 c 0
 627 543 626 538 624 535 c 0
 622 533 603 507 579 477 c 0
 555 447 536 423 536 422 c 2
 536 422 539 420 543 418 c 0
 551 413 570 401 578 395 c 0
 626 357 656 303 662 243 c 0
 667 190 650 135 616 93 c 0
 609 84 591 65 582 59 c 0
 546 30 498 11 444 2 c 0
 373 -11 282 -8 222 10 c 2
 212 13 l 1
 164 -48 l 2
 138 -82 115 -111 114 -112 c 0
 110 -116 104 -116 98 -112 c 0
 92 -108 80 -97 79 -95 c 0
 77 -92 78 -88 80 -84 c 0
 81 -83 101 -57 125 -27 c 0
 150 4 169 30 169 30 c 1
 169 30 165 33 160 35 c 0
 150 40 131 51 122 59 c 0
 113 65 94 84 87 93 c 0
 57 129 41 176 41 221 c 0
 41 274 61 328 96 368 c 0
 135 411 195 442 267 453 c 0
 292 457 310 459 340 460 c 0
 390 461 438 455 477 443 c 0
 484 441 491 440 492 440 c 0
 493 440 515 467 542 501 c 0
 569 535 591 563 592 564 c 0
382 415 m 0
 367 416 335 416 321 415 c 0
 274 411 239 400 210 378 c 0
 169 346 152 296 154 212 c 0
 156 160 164 128 182 101 c 0
 187 94 204 77 206 77 c 0
 207 77 458 394 459 396 c 0
 460 399 429 409 406 412 c 0
 400 413 389 414 382 415 c 0
505 368 m 0
 502 371 499 374 498 374 c 0
 497 374 246 55 247 54 c 0
 250 51 280 44 299 41 c 0
 330 37 377 37 408 42 c 0
 481 52 526 87 542 145 c 0
 547 164 549 181 550 212 c 0
 552 288 538 337 505 368 c 0
EndSplineSet
EndChar

StartChar: AE
Encoding: 198 198 17
Width: 704
Flags: HW
LayerCount: 2
Fore
SplineSet
217 614 m 0
 220 616 226 616 428 616 c 0
 575 616 637 616 638 615 c 0
 644 612 643 617 652 495 c 0
 660 386 660 382 659 378 c 0
 658 377 656 375 654 374 c 0
 651 373 626 373 623 374 c 0
 618 376 616 380 614 409 c 0
 609 470 602 509 592 528 c 0
 585 541 570 556 554 563 c 0
 542 568 534 570 518 571 c 0
 504 571 504 571 500 569 c 0
 496 566 491 558 490 549 c 0
 487 530 487 510 486 418 c 2
 486 321 l 1
 489 321 l 2
 499 324 511 333 516 342 c 0
 520 352 523 381 523 414 c 0
 523 440 523 439 546 439 c 0
 560 439 563 438 565 434 c 0
 567 431 567 421 567 297 c 0
 567 173 567 163 565 160 c 0
 563 156 560 155 545 155 c 0
 523 155 523 154 523 180 c 0
 523 213 520 242 516 252 c 0
 511 261 499 270 489 273 c 2
 486 273 l 1
 486 187 l 2
 487 87 489 66 495 55 c 0
 496 52 498 49 500 47 c 0
 504 45 504 45 521 45 c 0
 541 46 550 48 564 54 c 0
 578 62 597 79 604 91 c 0
 617 114 628 165 636 248 c 0
 638 271 639 274 644 276 c 0
 647 277 673 277 676 276 c 0
 678 275 680 273 681 272 c 0
 682 268 682 265 670 138 c 0
 661 38 656 7 655 5 c 0
 654 3 653 2 651 1 c 0
 650 0 601 0 485 0 c 0
 308 0 318 0 315 5 c 0
 314 7 314 14 314 23 c 0
 314 43 316 44 330 46 c 0
 338 47 344 50 349 57 c 0
 356 67 359 105 359 209 c 2
 359 274 l 1
 283 274 l 1
 206 274 l 1
 205 271 l 2
 192 228 182 196 176 163 c 0
 165 106 162 50 170 46 c 0
 171 45 173 45 174 45 c 2
 180 42 l 2
 182 39 182 39 182 23 c 0
 182 6 182 3 176 1 c 0
 174 0 171 0 162 2 c 0
 138 8 129 8 102 8 c 0
 75 8 71 8 49 2 c 0
 38 -1 35 0 32 5 c 0
 30 8 30 11 30 23 c 0
 30 35 30 37 32 40 c 0
 34 43 37 45 42 45 c 0
 49 45 62 56 72 69 c 0
 86 89 109 136 126 178 c 0
 140 215 142 221 214 439 c 2
 257 571 l 1
 239 571 l 2
 219 572 216 573 213 579 c 0
 212 583 211 604 213 609 c 0
 214 611 216 613 217 614 c 0
312 563 m 0
 308 564 305 565 303 565 c 0
 302 566 299 558 261 444 c 0
 239 376 221 322 221 321 c 0
 221 320 232 319 291 319 c 2
 359 319 l 1
 359 399 l 2
 358 465 358 482 357 492 c 0
 351 537 340 554 312 563 c 0
EndSplineSet
EndChar

StartChar: OE
Encoding: 338 338 18
Width: 704
Flags: HW
LayerCount: 2
Fore
SplineSet
214 628 m 0
 238 629 290 629 304 628 c 0
 310 627 330 625 347 623 c 0
 364 621 384 618 391 617 c 0
 398 616 450 616 522 616 c 0
 606 616 643 616 644 615 c 0
 650 612 649 617 657 495 c 0
 664 386 665 381 664 378 c 0
 663 377 660 375 658 374 c 0
 655 373 630 373 627 374 c 0
 622 376 620 379 618 404 c 0
 613 478 606 519 592 536 c 0
 583 548 566 559 551 565 c 0
 539 569 526 571 506 571 c 2
 487 571 l 1
 484 567 l 2
 482 566 480 562 480 559 c 0
 476 545 474 505 474 413 c 2
 474 342 l 1
 484 342 l 2
 497 342 511 344 519 348 c 0
 528 353 539 362 542 369 c 0
 547 380 550 407 550 438 c 0
 550 461 551 462 571 462 c 0
 586 462 590 461 592 457 c 0
 594 454 594 443 594 319 c 0
 594 195 594 185 592 182 c 0
 590 178 586 177 571 177 c 0
 551 177 550 178 550 201 c 0
 550 232 547 259 542 270 c 0
 539 277 528 286 519 291 c 0
 511 295 497 297 484 297 c 2
 474 297 l 1
 474 215 l 2
 474 112 475 72 480 57 c 0
 480 54 482 50 484 48 c 2
 487 45 l 1
 513 45 l 2
 535 46 540 46 547 48 c 0
 565 53 583 64 597 78 c 0
 606 88 611 97 615 110 c 0
 624 135 633 182 638 245 c 0
 640 271 641 274 646 276 c 0
 649 277 675 277 678 276 c 0
 680 275 682 273 683 272 c 0
 684 268 684 264 674 138 c 0
 662 0 662 4 656 1 c 0
 655 0 616 0 528 0 c 0
 452 0 398 0 391 -1 c 0
 384 -2 364 -4 347 -6 c 0
 301 -12 293 -12 250 -12 c 0
 201 -11 181 -9 154 -4 c 0
 122 2 96 17 83 33 c 0
 63 62 52 114 49 216 c 0
 48 257 48 399 50 428 c 0
 55 519 66 565 89 589 c 0
 109 612 152 625 214 628 c 0
305 582 m 0
 299 584 293 584 282 585 c 0
 241 585 213 574 202 552 c 0
 194 538 189 509 186 452 c 0
 184 418 184 213 186 177 c 0
 188 130 193 96 197 80 c 0
 204 53 223 39 259 33 c 0
 290 29 320 35 333 50 c 0
 345 62 350 82 354 125 c 0
 355 136 356 178 356 308 c 0
 356 482 355 488 351 517 c 0
 349 530 346 546 342 554 c 0
 336 567 322 578 305 582 c 0
EndSplineSet
EndChar

StartChar: Oslash
Encoding: 216 216 19
Width: 704
Flags: HW
LayerCount: 2
Fore
SplineSet
500 679 m 0
 504 681 508 680 519 675 c 0
 539 666 539 666 527 638 c 0
 522 627 518 617 518 617 c 2
 518 616 521 616 525 615 c 0
 549 608 569 599 581 588 c 0
 598 572 610 542 617 497 c 0
 625 449 629 395 628 283 c 0
 627 209 627 190 623 157 c 0
 618 92 604 52 584 32 c 0
 558 5 510 -8 422 -11 c 0
 389 -12 276 -12 256 -10 c 0
 249 -9 240 -9 237 -9 c 2
 230 -8 l 1
 221 -28 l 2
 207 -60 206 -61 204 -62 c 0
 199 -64 196 -63 184 -58 c 0
 164 -49 164 -49 175 -23 c 0
 180 -13 184 -3 184 -2 c 0
 184 -1 181 0 174 2 c 0
 133 14 113 30 100 61 c 0
 89 90 82 129 78 190 c 0
 77 199 77 241 76 283 c 0
 75 395 78 449 86 497 c 0
 93 542 106 572 123 588 c 0
 148 610 188 622 259 627 c 0
 286 629 418 629 445 627 c 0
 456 626 467 626 469 626 c 2
 473 626 l 1
 482 644 l 2
 495 675 498 678 500 679 c 0
414 583 m 0
 402 584 318 585 302 584 c 0
 258 581 229 569 220 551 c 0
 214 541 213 514 212 346 c 0
 212 182 213 81 217 72 c 0
 217 70 244 127 324 300 c 0
 382 426 434 541 440 553 c 2
 451 575 l 1
 446 577 l 2
 439 579 424 582 414 583 c 0
488 525 m 0
 487 533 487 542 486 544 c 0
 486 547 476 525 370 294 c 2
 253 42 l 1
 256 40 l 2
 260 39 278 35 290 34 c 0
 305 32 376 32 398 33 c 0
 429 35 450 39 464 47 c 0
 472 51 481 60 484 66 c 0
 489 76 491 106 492 266 c 0
 492 399 490 494 488 525 c 0
EndSplineSet
EndChar

StartChar: exclam
Encoding: 33 33 21
Width: 704
Flags: HW
LayerCount: 2
Fore
SplineSet
336 651 m 0
 370 657 407 641 421 612 c 0
 426 602 428 589 428 582 c 0
 426 566 374 228 373 226 c 0
 371 220 366 219 352 219 c 0
 337 219 333 220 331 226 c 0
 330 228 277 566 275 582 c 0
 275 589 278 602 283 612 c 0
 292 630 312 646 336 651 c 0
333 147 m 0
 367 156 403 142 419 110 c 0
 423 102 427 86 427 75 c 0
 427 65 423 49 419 41 c 0
 403 9 368 -6 334 2 c 0
 293 12 269 53 279 93 c 0
 286 121 306 141 333 147 c 0
EndSplineSet
EndChar

StartChar: quotedbl
Encoding: 34 34 22
Width: 704
Flags: HW
LayerCount: 2
Fore
SplineSet
218 676 m 0
 227 678 248 676 257 674 c 0
 280 668 295 655 304 637 c 0
 310 625 311 615 311 601 c 0
 310 590 310 583 283 477 c 0
 268 415 254 363 253 361 c 0
 251 358 247 357 233 357 c 0
 219 357 215 358 213 362 c 0
 212 364 159 579 157 590 c 0
 156 594 156 601 156 608 c 0
 157 619 157 623 160 630 c 0
 166 645 175 658 189 666 c 0
 197 670 210 674 218 676 c 0
455 676 m 0
 488 681 523 668 537 644 c 0
 540 640 543 634 544 630 c 0
 547 623 547 619 548 608 c 0
 548 601 548 594 547 590 c 0
 545 579 491 364 490 362 c 0
 488 358 484 357 470 357 c 0
 456 357 453 358 451 361 c 0
 450 363 436 415 421 477 c 0
 394 583 393 590 392 601 c 0
 392 615 393 625 399 637 c 0
 405 649 415 660 427 666 c 0
 434 670 447 675 455 676 c 0
EndSplineSet
EndChar

StartChar: numbersign
Encoding: 35 35 23
Width: 704
Flags: HW
LayerCount: 2
Fore
SplineSet
271 638 m 0
 273 639 279 640 282 640 c 0
 297 640 310 626 310 611 c 0
 310 609 304 568 297 519 c 0
 289 470 283 430 283 430 c 2
 283 429 327 429 380 429 c 2
 477 429 l 1
 477 432 506 617 508 621 c 0
 511 631 523 640 535 640 c 0
 550 640 563 626 563 611 c 0
 563 609 557 568 550 519 c 0
 542 470 536 430 536 430 c 2
 536 429 557 429 584 429 c 0
 640 429 639 429 648 420 c 0
 659 409 659 392 648 380 c 0
 639 372 640 372 579 372 c 2
 525 372 l 1
 525 369 l 2
 524 364 489 141 489 141 c 2
 489 140 521 140 560 140 c 0
 642 140 639 140 648 132 c 0
 659 120 659 103 648 92 c 0
 639 83 643 83 556 83 c 2
 479 83 l 1
 479 80 451 -105 449 -109 c 0
 446 -119 434 -128 422 -128 c 0
 407 -128 393 -114 393 -99 c 0
 393 -97 400 -56 408 -7 c 0
 415 42 421 82 421 82 c 2
 421 83 377 83 324 83 c 2
 226 83 l 1
 226 80 198 -105 196 -109 c 0
 193 -119 181 -128 169 -128 c 0
 154 -128 140 -114 140 -99 c 0
 140 -97 147 -56 155 -7 c 0
 162 42 168 82 168 82 c 2
 168 83 147 83 120 83 c 0
 64 83 64 83 55 92 c 0
 42 105 45 128 62 137 c 2
 69 140 l 1
 123 140 l 1
 178 140 l 1
 178 143 l 2
 179 147 214 371 214 371 c 2
 214 372 181 372 141 372 c 2
 69 373 l 1
 62 375 l 2
 56 379 50 385 48 391 c 0
 45 402 48 413 55 420 c 0
 64 429 60 429 147 429 c 2
 224 429 l 1
 224 432 253 617 255 621 c 0
 257 628 264 636 271 638 c 0
467 371 m 2
 467 372 423 372 370 372 c 2
 272 372 l 1
 272 369 l 2
 271 364 237 141 237 141 c 2
 237 140 281 140 334 140 c 2
 431 140 l 1
 431 143 l 2
 432 148 467 371 467 371 c 2
EndSplineSet
EndChar

StartChar: dollar
Encoding: 36 36 24
Width: 704
Flags: HW
LayerCount: 2
Fore
SplineSet
337 758 m 0
 340 759 367 759 369 758 c 0
 375 755 375 755 375 698 c 2
 375 646 l 1
 381 646 l 2
 385 645 390 645 393 645 c 0
 403 645 435 642 450 640 c 0
 491 634 518 625 546 611 c 0
 589 588 614 558 623 513 c 0
 625 502 625 497 625 482 c 0
 625 468 625 463 624 458 c 0
 621 449 614 436 609 429 c 0
 601 419 583 409 568 406 c 0
 559 404 541 404 532 406 c 0
 517 409 500 419 492 429 c 0
 487 436 480 449 477 458 c 0
 475 467 475 490 477 499 c 0
 480 508 487 520 492 527 c 0
 503 541 526 552 546 553 c 0
 554 554 554 554 543 562 c 0
 515 582 465 596 404 599 c 0
 397 600 389 600 384 601 c 2
 375 601 l 1
 375 500 l 1
 376 398 l 1
 398 394 l 2
 448 386 476 376 511 359 c 0
 558 335 591 305 609 266 c 0
 619 243 625 226 626 202 c 0
 628 148 603 93 562 58 c 0
 518 21 457 -1 387 -5 c 1
 376 -5 l 1
 375 -58 l 2
 374 -116 375 -116 369 -118 c 0
 367 -119 360 -119 351 -119 c 0
 336 -119 336 -118 333 -116 c 2
 331 -113 l 1
 330 -59 l 1
 330 -6 l 1
 325 -6 l 2
 323 -5 317 -5 314 -5 c 0
 306 -5 276 -2 262 0 c 0
 199 10 152 30 120 62 c 0
 92 90 76 135 78 178 c 0
 79 192 81 200 86 211 c 0
 92 223 104 235 117 241 c 0
 131 248 138 249 154 249 c 0
 169 249 175 248 189 241 c 0
 202 235 214 223 220 211 c 0
 226 198 227 191 227 175 c 0
 227 158 226 151 220 138 c 0
 214 126 202 115 189 109 c 0
 177 103 170 100 157 99 c 2
 146 99 l 1
 155 90 l 2
 173 73 196 61 230 52 c 0
 249 46 281 42 307 41 c 0
 313 40 321 40 324 39 c 2
 330 39 l 1
 330 153 l 1
 330 267 l 1
 328 267 l 2
 327 268 315 270 303 271 c 0
 267 277 249 282 226 290 c 0
 184 304 150 324 124 350 c 0
 92 382 77 421 78 464 c 0
 79 488 84 504 94 527 c 0
 102 543 112 557 124 569 c 0
 144 591 170 608 202 621 c 0
 233 634 273 642 311 645 c 0
 316 645 323 645 326 646 c 2
 330 646 l 1
 330 699 l 2
 330 750 331 753 333 755 c 0
 334 756 335 758 337 758 c 0
330 504 m 0
 330 581 330 601 329 601 c 0
 328 601 325 601 323 600 c 0
 274 597 238 588 207 573 c 0
 182 561 164 541 158 522 c 0
 154 511 154 495 158 484 c 0
 164 465 183 446 210 434 c 0
 222 429 247 421 262 418 c 0
 272 415 327 406 329 406 c 0
 330 406 330 450 330 504 c 0
399 256 m 0
 389 258 379 259 378 260 c 2
 375 260 l 1
 375 150 l 1
 375 40 l 1
 387 40 l 2
 431 43 474 56 504 75 c 0
 520 85 537 104 543 120 c 0
 551 139 551 164 542 182 c 0
 523 219 475 244 399 256 c 0
EndSplineSet
EndChar

StartChar: percent
Encoding: 37 37 25
Width: 704
Flags: HW
LayerCount: 2
Fore
SplineSet
159 757 m 0
 171 760 191 759 201 756 c 0
 211 753 224 745 234 738 c 0
 263 714 287 699 316 688 c 0
 381 662 445 664 489 694 c 0
 504 704 520 723 529 738 c 0
 531 742 535 748 536 750 c 0
 543 757 556 761 566 757 c 0
 574 755 582 746 585 738 c 0
 588 727 604 761 378 308 c 0
 188 -73 171 -106 166 -111 c 0
 153 -124 130 -120 121 -102 c 0
 119 -98 119 -96 119 -90 c 2
 119 -82 l 1
 299 280 l 2
 398 479 480 641 480 641 c 1
 480 641 477 640 475 639 c 0
 467 636 449 632 437 631 c 0
 388 624 337 631 283 656 c 2
 276 659 l 1
 276 657 l 2
 279 647 281 630 281 604 c 0
 281 575 280 565 276 547 c 0
 263 488 228 450 182 447 c 0
 148 446 114 459 89 484 c 0
 78 495 72 505 65 519 c 0
 51 549 44 588 48 626 c 0
 52 667 65 698 89 722 c 0
 107 741 131 753 159 757 c 0
197 711 m 0
 186 716 177 716 169 713 c 0
 159 707 153 695 151 679 c 0
 149 665 149 541 151 527 c 0
 153 510 159 499 170 494 c 0
 174 492 176 492 182 492 c 0
 206 494 226 519 233 557 c 0
 238 584 238 622 233 649 c 0
 227 679 214 702 197 711 c 0
534 190 m 0
 546 192 565 192 575 189 c 0
 602 181 624 163 638 133 c 0
 651 105 655 80 655 37 c 0
 655 9 655 -1 651 -19 c 0
 638 -78 603 -116 557 -119 c 0
 523 -120 489 -107 464 -82 c 0
 453 -71 446 -61 439 -47 c 0
 425 -17 419 21 423 59 c 0
 427 100 440 132 464 156 c 0
 482 175 506 186 534 190 c 0
571 144 m 0
 560 149 552 149 544 146 c 0
 538 143 532 136 528 129 c 0
 524 119 524 109 524 37 c 0
 524 -35 524 -45 528 -55 c 0
 532 -63 538 -70 545 -73 c 0
 549 -75 551 -75 557 -75 c 0
 581 -73 601 -47 608 -9 c 0
 613 18 613 56 608 83 c 0
 602 113 588 135 571 144 c 0
EndSplineSet
EndChar

StartChar: ampersand
Encoding: 38 38 26
Width: 704
Flags: HW
LayerCount: 2
Fore
SplineSet
315 651 m 0
 326 652 350 652 357 651 c 0
 436 640 484 574 460 504 c 0
 456 493 446 474 439 463 c 0
 412 424 366 379 295 325 c 0
 286 319 279 312 278 311 c 0
 277 310 278 309 281 302 c 0
 289 286 306 257 318 240 c 0
 345 204 389 146 407 126 c 0
 409 124 438 168 455 200 c 0
 472 232 508 305 516 325 c 0
 527 353 529 381 523 396 c 0
 520 401 515 406 511 406 c 0
 507 406 503 409 501 413 c 0
 499 417 499 439 501 443 c 0
 502 445 504 449 506 450 c 0
 509 451 510 451 522 449 c 0
 547 444 559 442 587 442 c 0
 614 441 621 443 640 449 c 0
 647 451 649 451 652 450 c 0
 657 448 658 444 658 428 c 0
 658 409 657 407 644 406 c 0
 624 404 599 379 575 340 c 0
 567 327 558 309 545 281 c 0
 533 254 506 201 498 185 c 0
 481 153 459 121 444 101 c 2
 437 92 l 1
 442 87 l 2
 465 63 491 44 510 37 c 0
 517 34 518 34 529 34 c 0
 556 34 579 46 595 71 c 0
 603 84 607 98 609 117 c 0
 610 127 611 129 616 131 c 0
 621 133 643 132 647 130 c 0
 652 128 653 125 653 113 c 0
 650 65 622 19 579 -1 c 0
 560 -10 543 -13 517 -12 c 0
 474 -10 433 1 390 23 c 2
 376 31 l 1
 365 23 l 2
 337 5 305 -7 271 -11 c 0
 258 -13 217 -12 197 -10 c 0
 137 -3 95 12 68 39 c 0
 50 57 40 77 38 104 c 0
 37 128 44 144 67 172 c 0
 91 202 114 228 143 257 c 2
 166 280 l 1
 160 294 l 2
 142 338 129 383 124 428 c 0
 120 459 119 497 123 513 c 0
 125 524 130 541 134 549 c 0
 143 566 160 587 177 600 c 0
 193 613 218 627 240 636 c 0
 260 643 293 650 315 651 c 0
362 605 m 0
 353 607 334 608 325 607 c 0
 305 604 285 594 269 579 c 0
 252 562 241 540 236 514 c 0
 234 505 233 500 233 481 c 0
 233 451 237 428 244 397 c 0
 247 385 256 355 258 352 c 0
 259 351 263 354 296 379 c 0
 379 440 418 489 422 534 c 0
 423 553 416 570 402 584 c 0
 392 594 378 601 362 605 c 0
218 187 m 0
 212 195 204 209 200 216 c 2
 191 229 l 1
 186 220 l 2
 175 203 168 186 164 170 c 0
 163 163 163 157 163 145 c 0
 163 120 167 105 177 83 c 0
 191 55 214 38 241 34 c 0
 257 32 281 34 300 41 c 0
 311 44 336 55 336 57 c 2
 336 57 332 62 327 66 c 0
 289 97 252 138 218 187 c 0
EndSplineSet
EndChar

StartChar: quoteright
Encoding: 8217 8217 27
Width: 704
Flags: HW
LayerCount: 2
Fore
SplineSet
337 639 m 0
 346 641 366 640 376 637 c 0
 407 629 433 606 449 572 c 0
 462 544 467 517 466 483 c 0
 462 388 414 300 336 248 c 0
 316 235 294 223 288 223 c 0
 285 223 279 228 270 236 c 0
 263 244 261 248 263 253 c 0
 264 257 266 258 279 264 c 0
 310 279 334 299 356 323 c 0
 399 372 421 428 421 489 c 0
 421 507 420 526 418 526 c 2
 418 526 416 524 415 521 c 0
 411 515 399 505 392 500 c 0
 373 489 347 487 325 494 c 0
 308 500 293 513 286 528 c 0
 279 542 278 549 278 565 c 0
 278 580 279 587 286 601 c 0
 289 609 292 612 298 618 c 0
 309 629 322 636 337 639 c 0
EndSplineSet
EndChar

StartChar: parenleft
Encoding: 40 40 28
Width: 704
Flags: HW
LayerCount: 2
Fore
SplineSet
540 752 m 2
 551 759 l 1
 564 759 l 2
 579 759 583 758 585 753 c 0
 589 745 586 741 570 729 c 0
 478 662 410 563 375 444 c 0
 329 291 341 119 409 -20 c 0
 446 -99 502 -169 570 -217 c 0
 586 -229 589 -233 585 -241 c 0
 583 -246 579 -247 564 -247 c 2
 551 -247 l 1
 540 -240 l 2
 463 -196 394 -131 346 -56 c 0
 318 -15 295 36 280 81 c 0
 246 185 242 295 271 401 c 0
 288 469 323 539 366 597 c 0
 412 658 473 714 540 752 c 2
EndSplineSet
EndChar

StartChar: parenright
Encoding: 41 41 29
Width: 704
Flags: HW
LayerCount: 2
Fore
SplineSet
123 757 m 0
 125 759 129 759 139 759 c 2
 153 759 l 1
 164 752 l 2
 241 708 309 643 357 568 c 0
 385 527 409 476 424 431 c 0
 458 327 461 217 432 111 c 0
 415 43 381 -27 338 -84 c 0
 292 -146 231 -202 164 -240 c 2
 153 -247 l 1
 139 -247 l 2
 124 -247 121 -246 119 -241 c 0
 115 -233 117 -229 133 -217 c 0
 225 -150 294 -51 329 68 c 0
 375 221 363 393 295 532 c 0
 258 611 201 681 133 729 c 0
 125 735 119 740 118 742 c 0
 116 747 118 755 123 757 c 0
EndSplineSet
EndChar

StartChar: asterisk
Encoding: 42 42 30
Width: 704
Flags: HW
LayerCount: 2
Fore
SplineSet
339 757 m 0
 350 760 364 759 374 754 c 0
 380 751 389 741 392 735 c 0
 396 726 396 725 382 639 c 0
 375 595 369 559 369 559 c 1
 370 559 410 583 460 614 c 0
 510 644 553 670 556 671 c 0
 559 673 562 673 569 673 c 0
 579 672 587 669 595 662 c 0
 605 652 610 640 609 625 c 0
 608 617 608 613 606 609 c 0
 602 602 596 595 590 592 c 0
 588 591 544 577 493 562 c 0
 441 547 398 534 398 534 c 1
 398 534 441 520 493 505 c 0
 544 490 588 476 590 475 c 0
 596 472 602 465 606 458 c 0
 608 454 608 450 609 442 c 0
 610 427 605 416 595 406 c 0
 587 399 579 395 569 394 c 0
 562 394 559 394 556 396 c 0
 553 397 510 423 460 453 c 0
 410 484 370 508 369 508 c 1
 369 508 375 472 382 428 c 0
 396 342 396 341 392 332 c 0
 389 326 380 316 374 313 c 0
 369 310 358 308 352 308 c 0
 345 308 335 310 330 313 c 0
 324 316 314 326 311 332 c 0
 307 341 308 342 322 428 c 0
 329 472 335 508 335 508 c 1
 334 508 294 484 244 453 c 0
 194 423 150 397 148 396 c 0
 144 394 141 394 135 394 c 0
 124 395 117 399 109 406 c 0
 99 416 93 427 94 442 c 0
 95 450 95 454 97 458 c 0
 101 465 108 472 114 475 c 0
 116 476 160 490 211 505 c 0
 263 520 305 534 305 534 c 1
 305 534 263 547 211 562 c 0
 160 577 116 591 114 592 c 0
 108 595 101 602 97 609 c 0
 95 613 95 617 94 625 c 0
 93 640 99 652 109 662 c 0
 117 669 124 672 135 673 c 0
 141 673 144 673 148 671 c 0
 150 670 194 644 244 614 c 0
 294 583 334 559 335 559 c 1
 335 559 329 595 322 639 c 0
 312 696 308 720 308 724 c 0
 309 732 312 738 318 744 c 0
 324 750 331 755 339 757 c 0
EndSplineSet
EndChar

StartChar: plus
Encoding: 43 43 31
Width: 704
Flags: HW
LayerCount: 2
Fore
SplineSet
342 556 m 0
 353 560 365 558 373 549 c 0
 382 541 381 551 381 409 c 2
 381 285 l 1
 505 285 l 2
 646 285 635 285 645 275 c 0
 656 264 656 248 645 237 c 0
 635 227 646 227 505 227 c 2
 381 227 l 1
 381 103 l 2
 381 -39 382 -29 373 -37 c 0
 361 -49 344 -49 332 -37 c 0
 323 -29 324 -39 324 103 c 2
 324 227 l 1
 199 227 l 2
 58 227 68 227 58 237 c 0
 47 248 47 264 58 275 c 0
 68 285 58 285 199 285 c 2
 324 285 l 1
 324 409 l 2
 324 551 323 541 332 549 c 0
 335 553 339 555 342 556 c 0
EndSplineSet
EndChar

StartChar: comma
Encoding: 44 44 32
Width: 704
Flags: HW
LayerCount: 2
Fore
SplineSet
333 186 m 0
 348 188 370 187 385 182 c 0
 401 177 419 166 431 154 c 0
 449 136 464 107 470 77 c 0
 472 67 472 61 472 44 c 0
 472 21 472 12 468 -7 c 0
 460 -47 443 -87 418 -120 c 0
 408 -134 384 -158 371 -168 c 0
 352 -184 323 -201 300 -209 c 0
 287 -215 285 -215 273 -203 c 0
 262 -193 260 -185 265 -179 c 0
 266 -178 274 -175 281 -172 c 0
 297 -165 304 -162 316 -154 c 0
 354 -131 387 -96 406 -56 c 0
 419 -28 426 -3 429 30 c 2
 429 38 l 1
 425 33 l 2
 417 23 407 15 394 9 c 0
 379 2 371 1 352 1 c 0
 332 1 324 2 309 9 c 0
 286 19 272 35 264 59 c 0
 254 87 257 118 272 144 c 0
 284 166 307 181 333 186 c 0
EndSplineSet
EndChar

StartChar: hyphen
Encoding: 45 45 33
Width: 704
Flags: HW
LayerCount: 2
Fore
SplineSet
94 283 m 0
 98 285 124 285 351 285 c 0
 637 285 610 285 620 275 c 0
 631 264 631 248 620 237 c 0
 610 227 637 227 351 227 c 0
 66 227 94 227 84 237 c 0
 76 244 74 254 78 265 c 0
 80 272 87 281 94 283 c 0
EndSplineSet
EndChar

StartChar: period
Encoding: 46 46 34
Width: 704
Flags: HW
LayerCount: 2
Fore
SplineSet
335 186 m 0
 345 187 365 187 375 184 c 0
 395 179 416 164 428 148 c 0
 433 140 439 127 442 117 c 0
 445 106 445 82 442 71 c 0
 436 47 422 28 402 15 c 0
 386 5 372 1 352 1 c 0
 330 1 317 5 301 15 c 0
 281 28 267 47 261 71 c 0
 258 82 258 106 261 117 c 0
 265 134 276 151 287 161 c 0
 301 174 317 182 335 186 c 0
EndSplineSet
EndChar

StartChar: slash
Encoding: 47 47 35
Width: 704
Flags: HW
LayerCount: 2
Fore
SplineSet
587 757 m 0
 590 758 594 759 597 759 c 0
 615 759 630 740 625 723 c 0
 624 721 513 505 377 242 c 0
 155 -187 130 -236 126 -240 c 0
 120 -244 113 -247 106 -247 c 0
 88 -247 74 -228 79 -211 c 0
 80 -209 191 7 327 270 c 0
 549 700 574 748 578 752 c 0
 581 754 585 757 587 757 c 0
EndSplineSet
EndChar

StartChar: zero
Encoding: 48 48 36
Width: 704
Flags: HW
LayerCount: 2
Fore
SplineSet
324 628 m 0
 338 629 365 629 379 628 c 0
 484 619 566 566 610 478 c 0
 630 439 642 400 647 348 c 0
 649 330 649 276 647 258 c 0
 639 197 623 149 594 106 c 0
 568 68 535 39 494 19 c 0
 461 4 432 -5 394 -10 c 0
 375 -12 328 -12 310 -10 c 0
 271 -5 243 4 211 19 c 0
 169 39 136 68 110 106 c 0
 81 149 64 197 56 258 c 0
 54 276 54 330 56 348 c 0
 59 379 66 408 74 432 c 0
 99 508 146 565 211 597 c 0
 247 614 283 624 324 628 c 0
372 584 m 0
 338 588 301 580 271 566 c 0
 249 555 227 535 215 516 c 0
 192 483 182 444 179 383 c 0
 178 357 178 282 179 253 c 0
 182 193 190 156 207 121 c 0
 217 99 229 84 244 71 c 0
 299 24 384 18 445 59 c 0
 467 74 485 94 497 121 c 0
 514 156 521 193 524 253 c 0
 525 282 525 357 524 383 c 0
 521 432 515 466 501 495 c 0
 477 546 431 578 372 584 c 0
EndSplineSet
EndChar

StartChar: one
Encoding: 49 49 37
Width: 704
Flags: HW
LayerCount: 2
Fore
SplineSet
384 628 m 0
 386 629 389 629 397 629 c 0
 407 629 409 628 413 626 c 2
 420 618 l 1
 423 614 l 1
 423 378 l 2
 424 139 424 137 427 118 c 0
 437 61 462 47 563 45 c 2
 593 45 l 1
 596 42 l 1
 599 39 l 1
 599 23 l 1
 599 6 l 1
 596 3 l 2
 593 1 592 1 586 1 c 0
 582 1 568 1 557 2 c 0
 498 7 435 9 365 9 c 0
 295 9 231 7 173 2 c 0
 161 1 147 1 143 1 c 0
 137 1 136 1 133 3 c 2
 131 6 l 1
 131 23 l 1
 131 39 l 1
 133 42 l 1
 136 45 l 1
 166 45 l 2
 219 46 247 50 267 60 c 0
 291 71 302 96 305 146 c 0
 306 163 306 504 305 504 c 2
 305 504 298 500 289 496 c 0
 246 474 199 463 150 461 c 2
 129 461 l 1
 126 464 l 1
 123 467 l 1
 123 482 l 1
 123 499 l 1
 126 502 l 1
 129 505 l 1
 147 506 l 2
 218 509 282 531 332 571 c 0
 345 582 365 603 375 615 c 0
 379 621 383 627 384 628 c 0
EndSplineSet
EndChar

StartChar: two
Encoding: 50 50 38
Width: 704
Flags: HW
LayerCount: 2
Fore
SplineSet
295 628 m 0
 307 629 375 628 387 627 c 0
 480 619 547 593 589 551 c 0
 600 539 609 526 617 511 c 0
 628 487 632 470 632 440 c 0
 632 424 632 419 630 411 c 0
 622 373 601 342 567 314 c 0
 538 291 521 282 441 239 c 0
 428 232 412 222 406 219 c 0
 395 213 249 123 248 122 c 1
 379 122 l 2
 498 123 539 124 558 126 c 0
 564 126 564 126 567 131 c 0
 575 143 581 162 586 194 c 0
 589 214 591 218 595 220 c 0
 598 221 624 221 627 220 c 0
 630 219 633 214 633 211 c 0
 633 210 625 164 618 109 c 0
 608 44 602 7 601 5 c 0
 600 4 599 2 597 1 c 0
 595 0 520 0 336 0 c 2
 77 1 l 1
 74 3 l 2
 72 6 71 6 71 20 c 0
 71 30 71 36 72 38 c 0
 73 40 108 66 219 147 c 0
 376 261 391 272 410 288 c 0
 460 331 489 370 497 411 c 0
 504 444 498 477 484 502 c 0
 464 536 429 559 379 572 c 0
 329 586 257 586 204 573 c 2
 188 570 l 1
 197 566 l 2
 202 563 207 559 213 553 c 0
 221 546 222 543 227 534 c 0
 234 519 237 506 237 490 c 0
 236 471 230 456 220 442 c 0
 205 420 173 408 143 412 c 0
 107 416 82 438 73 472 c 0
 71 482 71 506 73 518 c 0
 83 565 121 598 189 614 c 0
 218 621 246 626 295 628 c 0
EndSplineSet
EndChar

StartChar: three
Encoding: 51 51 39
Width: 704
Flags: HW
LayerCount: 2
Fore
SplineSet
311 628 m 0
 325 629 388 628 404 627 c 0
 456 623 499 611 535 593 c 0
 550 586 557 580 569 571 c 0
 588 555 601 534 605 511 c 0
 607 501 606 481 603 469 c 0
 591 410 544 367 464 339 c 0
 452 335 448 334 450 334 c 0
 451 333 458 332 465 330 c 0
 496 325 521 315 548 303 c 0
 589 283 616 258 632 225 c 0
 657 177 646 119 606 74 c 0
 573 36 515 7 445 -4 c 0
 370 -17 272 -14 202 4 c 0
 150 17 109 40 86 69 c 0
 78 79 68 98 65 110 c 0
 59 129 56 156 61 173 c 0
 63 182 71 198 77 205 c 0
 86 216 103 226 120 232 c 0
 128 234 130 234 145 234 c 0
 160 234 163 234 171 232 c 0
 188 226 205 216 214 205 c 0
 220 198 227 182 229 173 c 0
 232 162 232 136 229 125 c 0
 226 114 221 101 215 93 c 0
 206 82 188 71 171 66 c 2
 163 62 l 1
 172 58 l 2
 191 49 219 42 248 37 c 0
 290 30 351 28 382 32 c 0
 431 40 466 60 483 93 c 0
 494 113 499 136 499 170 c 0
 499 193 498 203 495 218 c 0
 482 269 444 299 382 309 c 0
 373 310 361 310 307 311 c 0
 237 311 240 311 237 317 c 0
 234 321 234 345 237 349 c 0
 239 355 241 355 285 357 c 0
 308 358 332 360 339 360 c 0
 389 366 432 394 457 434 c 0
 479 469 480 519 461 548 c 0
 447 570 419 584 382 589 c 0
 356 592 318 591 287 587 c 0
 251 582 221 571 196 558 c 2
 189 555 l 1
 199 552 l 2
 224 546 241 532 251 512 c 0
 257 499 259 489 259 475 c 0
 259 457 257 446 249 432 c 0
 240 414 220 399 197 394 c 0
 188 392 169 392 160 394 c 0
 149 397 132 405 124 412 c 0
 91 440 88 498 118 543 c 0
 150 590 219 621 311 628 c 0
EndSplineSet
EndChar

StartChar: four
Encoding: 52 52 40
Width: 704
Flags: HW
LayerCount: 2
Fore
SplineSet
472 629 m 0
 479 631 508 632 514 630 c 0
 520 628 526 621 528 615 c 0
 529 612 529 565 529 402 c 2
 529 194 l 1
 593 194 l 2
 636 194 657 194 658 193 c 0
 663 191 665 186 665 171 c 0
 665 156 663 152 658 150 c 0
 657 149 636 148 593 148 c 2
 529 148 l 1
 529 145 l 2
 529 137 532 112 534 103 c 0
 541 58 559 47 634 45 c 2
 658 45 l 1
 662 42 l 1
 665 39 l 1
 665 23 l 1
 665 6 l 1
 662 3 l 2
 658 0 657 0 621 3 c 0
 561 8 518 9 449 9 c 0
 418 8 385 8 376 7 c 0
 345 5 327 4 303 2 c 0
 281 0 279 0 276 2 c 0
 271 4 270 9 270 23 c 0
 270 37 271 41 276 43 c 0
 278 44 286 45 304 45 c 0
 348 46 372 51 385 62 c 0
 394 69 400 84 403 104 c 0
 405 112 408 137 408 145 c 2
 408 148 l 1
 227 148 l 2
 100 148 46 149 45 150 c 0
 40 152 39 155 39 174 c 0
 39 189 39 193 41 195 c 0
 43 199 457 620 462 624 c 0
 464 626 469 628 472 629 c 0
417 194 m 1
 417 355 l 1
 417 515 l 1
 259 354 l 1
 101 195 l 1
 259 194 l 1
 417 194 l 1
EndSplineSet
EndChar

StartChar: five
Encoding: 53 53 41
Width: 704
Flags: HW
LayerCount: 2
Fore
SplineSet
146 627 m 0
 150 630 152 629 170 624 c 0
 294 589 430 590 555 626 c 0
 560 628 566 629 567 629 c 0
 570 629 576 626 577 623 c 0
 580 619 580 595 578 591 c 0
 576 588 565 578 550 566 c 0
 499 525 434 495 371 485 c 0
 343 481 339 480 298 481 c 0
 256 481 239 482 207 486 c 0
 199 487 191 488 190 488 c 0
 188 488 188 486 188 420 c 2
 188 352 l 1
 194 355 l 2
 226 373 267 386 315 391 c 0
 334 393 395 393 414 391 c 0
 444 387 472 381 494 373 c 0
 508 368 533 355 545 348 c 0
 577 328 597 304 612 273 c 0
 621 256 627 240 630 222 c 0
 633 206 633 177 631 163 c 0
 627 141 617 117 605 100 c 0
 569 44 497 6 404 -7 c 0
 377 -11 361 -11 325 -11 c 0
 288 -11 276 -11 248 -6 c 0
 178 6 121 37 94 77 c 0
 69 113 64 157 80 190 c 0
 83 198 86 202 93 209 c 0
 99 215 104 218 112 222 c 0
 127 229 134 230 151 230 c 0
 167 230 175 229 188 222 c 0
 203 214 213 204 220 189 c 0
 226 177 228 169 228 153 c 0
 228 137 226 127 220 114 c 0
 217 107 214 103 207 96 c 0
 195 84 181 78 164 75 c 2
 157 73 l 1
 165 68 l 2
 182 57 203 47 230 40 c 0
 282 28 347 27 393 38 c 0
 437 48 470 73 483 105 c 0
 493 131 498 159 497 208 c 0
 495 266 489 289 465 313 c 0
 447 332 419 345 384 348 c 0
 361 350 318 348 291 343 c 0
 248 336 213 320 185 294 c 0
 180 290 175 286 173 285 c 0
 162 280 147 285 142 295 c 0
 140 299 140 306 140 460 c 0
 140 635 140 624 146 627 c 0
EndSplineSet
EndChar

StartChar: six
Encoding: 54 54 42
Width: 704
Flags: HW
LayerCount: 2
Fore
SplineSet
392 628 m 0
 425 630 457 629 481 625 c 0
 551 613 593 578 606 523 c 0
 608 513 608 509 608 495 c 0
 608 482 608 476 607 471 c 0
 604 462 598 449 593 442 c 0
 585 432 567 422 552 419 c 0
 543 417 525 417 516 419 c 0
 501 422 483 432 475 442 c 0
 470 449 464 462 461 471 c 0
 459 480 459 503 461 512 c 0
 464 521 470 534 475 541 c 0
 484 552 502 561 518 565 c 2
 527 567 l 1
 521 570 l 2
 514 575 498 581 487 584 c 0
 442 596 375 591 326 573 c 0
 293 562 262 542 243 518 c 0
 214 485 200 446 194 391 c 0
 191 372 189 334 189 316 c 2
 190 301 l 1
 194 307 l 2
 207 330 229 354 255 370 c 0
 273 382 300 394 322 400 c 0
 346 405 354 407 388 407 c 0
 428 407 452 404 480 397 c 0
 532 384 588 346 615 305 c 0
 639 270 649 221 644 174 c 0
 638 116 611 75 554 38 c 0
 497 0 437 -14 345 -12 c 0
 303 -11 276 -7 243 2 c 0
 196 16 154 43 125 78 c 0
 110 95 91 129 83 153 c 0
 67 196 58 249 58 306 c 0
 58 391 88 468 140 523 c 0
 199 584 288 621 392 628 c 0
408 361 m 0
 398 362 350 363 344 362 c 0
 342 362 337 362 333 361 c 0
 322 359 307 356 296 351 c 0
 242 331 204 286 194 233 c 0
 189 205 196 147 208 114 c 0
 219 82 245 56 280 43 c 0
 306 33 330 29 366 30 c 0
 400 31 418 34 437 41 c 0
 456 48 476 63 489 79 c 0
 497 88 501 96 505 108 c 0
 512 128 514 149 514 198 c 0
 514 244 512 265 507 284 c 0
 502 303 495 314 480 329 c 0
 461 347 440 356 408 361 c 0
EndSplineSet
EndChar

StartChar: seven
Encoding: 55 55 43
Width: 704
Flags: HW
LayerCount: 2
Fore
SplineSet
118 648 m 0
 120 649 124 649 135 649 c 0
 150 649 151 648 154 646 c 0
 156 644 156 642 157 638 c 0
 157 632 157 632 161 630 c 0
 168 626 179 624 203 623 c 0
 214 623 326 622 450 620 c 0
 606 618 677 616 678 615 c 0
 683 613 684 609 684 597 c 0
 684 589 683 586 681 583 c 0
 680 581 631 536 572 485 c 0
 514 434 462 387 457 381 c 0
 431 354 411 312 401 264 c 0
 392 221 389 181 388 100 c 0
 387 42 387 43 379 27 c 0
 376 20 373 15 368 10 c 0
 353 -4 333 -12 313 -12 c 0
 283 -12 258 3 247 27 c 0
 239 42 238 46 239 72 c 0
 239 95 240 108 245 133 c 0
 256 190 283 248 322 303 c 0
 357 350 394 390 467 455 c 2
 512 495 l 1
 402 495 l 2
 291 495 191 494 163 492 c 0
 146 491 147 491 140 478 c 0
 133 465 128 447 124 418 c 0
 122 403 120 398 116 396 c 0
 113 395 87 395 84 396 c 0
 81 397 78 403 78 406 c 0
 78 411 113 641 114 643 c 0
 115 645 117 647 118 648 c 0
EndSplineSet
EndChar

StartChar: eight
Encoding: 56 56 44
Width: 704
Flags: HW
LayerCount: 2
Fore
SplineSet
312 628 m 0
 319 628 338 629 353 629 c 0
 466 629 534 612 572 574 c 0
 581 566 588 558 593 547 c 0
 601 530 605 517 606 495 c 0
 607 467 599 442 584 420 c 0
 567 396 534 372 494 355 c 0
 487 353 481 351 481 351 c 2
 481 350 490 347 500 343 c 0
 543 324 563 312 587 292 c 0
 606 277 621 258 630 239 c 0
 640 220 644 204 645 182 c 0
 647 131 627 82 591 51 c 0
 549 16 492 -3 407 -10 c 0
 388 -12 306 -12 283 -10 c 0
 199 -4 147 11 110 40 c 0
 74 68 56 109 58 159 c 0
 60 194 71 222 93 249 c 0
 113 274 155 299 200 314 c 0
 214 319 214 319 197 328 c 0
 164 344 137 365 122 387 c 0
 116 396 105 417 102 426 c 0
 97 442 96 462 98 480 c 0
 105 534 132 571 183 597 c 0
 217 613 262 625 312 628 c 0
403 589 m 0
 387 590 314 591 289 590 c 0
 217 586 185 572 174 539 c 0
 172 533 172 528 172 519 c 0
 172 508 172 507 174 502 c 0
 178 493 191 481 203 474 c 0
 208 471 258 449 316 423 c 0
 397 387 422 377 424 377 c 0
 429 378 451 387 463 393 c 0
 489 405 507 421 519 439 c 0
 535 465 536 507 521 534 c 0
 503 565 465 582 403 589 c 0
388 243 m 0
 328 270 277 291 276 291 c 0
 274 291 246 280 234 275 c 0
 196 258 166 233 154 206 c 0
 136 169 139 120 159 91 c 0
 179 63 215 45 268 36 c 0
 296 31 310 31 360 31 c 0
 417 31 444 32 476 39 c 0
 499 43 522 52 534 61 c 0
 546 71 555 85 559 101 c 0
 562 111 562 133 560 141 c 0
 554 158 535 177 508 189 c 0
 503 192 448 216 388 243 c 0
EndSplineSet
EndChar

StartChar: nine
Encoding: 57 57 45
Width: 704
Flags: HW
LayerCount: 2
Fore
SplineSet
318 628 m 0
 335 629 395 628 406 627 c 0
 446 622 475 612 505 599 c 0
 550 576 582 545 606 500 c 0
 631 453 643 398 645 325 c 0
 646 274 640 230 624 188 c 0
 615 162 595 127 579 108 c 0
 539 57 475 18 403 1 c 0
 366 -8 339 -11 295 -11 c 0
 245 -12 213 -7 181 5 c 0
 137 21 108 51 98 90 c 0
 94 109 93 132 96 146 c 0
 99 154 106 167 111 174 c 0
 119 184 137 195 152 198 c 0
 161 200 178 200 187 198 c 0
 202 195 220 184 228 174 c 0
 233 167 240 154 243 145 c 0
 245 136 245 113 243 104 c 0
 240 95 233 83 228 76 c 0
 220 66 203 55 189 52 c 2
 182 50 l 1
 190 47 l 2
 215 36 247 31 291 31 c 0
 328 30 349 34 379 43 c 0
 448 66 491 113 505 186 c 0
 511 214 513 237 514 283 c 2
 514 317 l 1
 508 307 l 2
 480 263 434 230 382 217 c 0
 356 210 349 209 315 210 c 0
 268 210 239 214 207 224 c 0
 194 228 165 243 153 251 c 0
 128 267 104 289 92 306 c 0
 83 318 72 341 68 354 c 0
 56 395 56 447 69 483 c 0
 73 495 83 516 91 525 c 0
 120 564 181 602 237 616 c 0
 260 622 289 627 318 628 c 0
392 588 m 0
 383 590 374 590 357 590 c 0
 331 591 328 591 310 589 c 0
 272 584 245 571 221 547 c 0
 207 532 200 518 195 498 c 0
 191 480 189 469 190 418 c 0
 190 366 191 354 196 336 c 0
 201 317 206 306 220 292 c 0
 238 273 260 261 289 256 c 0
 312 253 356 252 374 255 c 0
 410 262 439 276 463 300 c 0
 493 329 508 359 511 397 c 0
 512 407 512 413 511 430 c 0
 505 496 495 524 469 550 c 0
 450 569 424 583 392 588 c 0
EndSplineSet
EndChar

StartChar: colon
Encoding: 58 58 46
Width: 704
Flags: HW
LayerCount: 2
Fore
SplineSet
335 450 m 0
 345 451 365 450 375 447 c 0
 395 442 416 428 428 412 c 0
 433 404 439 390 442 380 c 0
 445 369 445 345 442 334 c 0
 436 310 422 292 402 279 c 0
 386 269 372 264 352 264 c 0
 330 264 317 269 301 279 c 0
 281 292 267 310 261 334 c 0
 258 345 258 369 261 380 c 0
 265 397 276 414 287 424 c 0
 301 437 317 446 335 450 c 0
335 186 m 0
 345 187 365 187 375 184 c 0
 395 179 416 164 428 148 c 0
 433 140 439 127 442 117 c 0
 445 106 445 82 442 71 c 0
 436 47 422 28 402 15 c 0
 386 5 372 1 352 1 c 0
 330 1 317 5 301 15 c 0
 281 28 267 47 261 71 c 0
 258 82 258 106 261 117 c 0
 265 134 276 151 287 161 c 0
 301 174 317 182 335 186 c 0
EndSplineSet
EndChar

StartChar: semicolon
Encoding: 59 59 47
Width: 704
Flags: HW
LayerCount: 2
Fore
SplineSet
335 450 m 0
 345 451 365 450 375 447 c 0
 395 442 416 428 428 412 c 0
 433 404 439 390 442 380 c 0
 445 369 445 345 442 334 c 0
 436 310 422 292 402 279 c 0
 386 269 372 264 352 264 c 0
 330 264 317 269 301 279 c 0
 281 292 267 310 261 334 c 0
 258 345 258 369 261 380 c 0
 265 397 276 414 287 424 c 0
 301 437 317 446 335 450 c 0
333 186 m 0
 344 187 359 187 370 185 c 0
 421 175 455 114 453 36 c 0
 450 -48 411 -126 346 -177 c 0
 326 -194 295 -213 288 -213 c 0
 285 -213 278 -209 270 -201 c 0
 263 -193 261 -188 263 -183 c 0
 264 -179 265 -178 275 -173 c 0
 298 -161 315 -148 332 -132 c 0
 366 -100 388 -62 399 -19 c 0
 403 -7 408 14 407 14 c 1
 407 15 401 13 395 10 c 0
 380 2 372 1 352 1 c 0
 332 1 324 2 309 9 c 0
 286 19 272 35 264 59 c 0
 254 87 257 118 272 144 c 0
 284 166 307 181 333 186 c 0
EndSplineSet
EndChar

StartChar: less
Encoding: 60 60 48
Width: 704
Flags: HW
LayerCount: 2
Fore
SplineSet
586 585 m 0
 592 588 594 589 598 589 c 0
 607 589 614 586 620 580 c 0
 631 570 631 552 620 541 c 0
 617 538 555 498 387 396 c 0
 262 319 160 256 160 256 c 1
 160 256 262 193 387 116 c 0
 555 14 617 -26 620 -29 c 0
 631 -40 631 -58 620 -68 c 0
 614 -74 607 -77 598 -77 c 0
 594 -77 592 -76 586 -73 c 0
 582 -71 468 -1 333 82 c 0
 145 198 87 234 83 238 c 0
 74 248 74 264 83 274 c 0
 87 278 145 314 333 430 c 0
 468 513 582 583 586 585 c 0
EndSplineSet
EndChar

StartChar: equal
Encoding: 61 61 49
Width: 704
Flags: HW
LayerCount: 2
Fore
SplineSet
69 393 m 0
 73 395 100 395 351 395 c 0
 666 395 635 396 645 386 c 0
 656 375 656 358 645 346 c 0
 635 337 665 338 349 338 c 2
 72 339 l 1
 66 341 l 2
 60 345 53 351 51 357 c 0
 50 364 50 369 52 376 c 0
 54 383 62 391 69 393 c 0
72 173 m 0
 73 173 198 174 351 174 c 0
 664 174 635 175 645 166 c 0
 656 154 656 137 645 126 c 0
 635 116 666 117 351 117 c 0
 37 117 68 116 58 126 c 0
 51 133 48 144 51 155 c 0
 54 163 63 170 72 173 c 0
EndSplineSet
EndChar

StartChar: greater
Encoding: 62 62 50
Width: 704
Flags: HW
LayerCount: 2
Fore
SplineSet
94 587 m 0
 100 589 109 589 114 588 c 0
 116 587 230 517 367 433 c 0
 558 315 617 278 621 274 c 0
 625 270 628 263 628 256 c 0
 628 249 625 242 621 238 c 0
 617 234 558 197 367 79 c 0
 230 -5 116 -75 114 -76 c 0
 104 -79 92 -76 84 -68 c 0
 73 -58 73 -40 84 -29 c 0
 87 -26 148 14 316 116 c 0
 441 193 544 256 544 256 c 1
 544 256 441 319 316 396 c 0
 148 498 87 538 84 541 c 0
 76 549 74 558 78 569 c 0
 80 576 87 585 94 587 c 0
EndSplineSet
EndChar

StartChar: question
Encoding: 63 63 51
Width: 704
Flags: HW
LayerCount: 2
Fore
SplineSet
279 645 m 0
 303 646 367 646 394 645 c 0
 497 640 568 618 601 579 c 0
 607 572 615 555 618 546 c 0
 620 536 622 521 620 511 c 0
 617 496 605 476 593 465 c 0
 578 450 563 441 527 427 c 0
 453 397 419 379 392 352 c 0
 374 335 363 319 358 301 c 0
 354 289 353 280 353 253 c 0
 353 225 353 223 347 221 c 0
 343 218 319 218 315 221 c 0
 309 224 309 225 309 260 c 0
 310 290 310 293 312 305 c 0
 320 341 339 375 368 404 c 0
 392 429 418 449 455 468 c 0
 467 475 469 476 478 484 c 0
 492 499 498 512 497 531 c 0
 495 553 486 572 473 581 c 0
 456 592 424 599 382 601 c 0
 357 602 268 602 248 600 c 0
 234 599 208 596 200 594 c 2
 195 593 l 1
 202 588 l 2
 212 581 220 572 225 562 c 0
 231 549 232 542 232 526 c 0
 232 509 231 502 225 489 c 0
 219 477 208 466 195 460 c 0
 181 453 174 452 159 452 c 0
 143 452 136 453 122 460 c 0
 104 468 91 485 85 505 c 0
 83 515 83 541 86 552 c 0
 89 562 98 581 104 588 c 0
 134 623 190 641 279 645 c 0
312 147 m 0
 346 156 382 142 398 110 c 0
 402 102 407 86 407 75 c 0
 407 65 402 49 398 41 c 0
 382 9 347 -6 313 2 c 0
 272 12 248 53 258 93 c 0
 265 121 285 141 312 147 c 0
EndSplineSet
EndChar

StartChar: at
Encoding: 64 64 52
Width: 704
Flags: HW
LayerCount: 2
Fore
SplineSet
376 645 m 0
 393 646 424 646 438 645 c 0
 473 642 501 635 529 621 c 0
 565 603 588 580 607 542 c 0
 635 489 647 421 645 322 c 0
 644 275 638 246 623 215 c 0
 593 154 537 119 465 116 c 0
 389 114 320 141 281 189 c 0
 218 268 223 399 295 466 c 0
 337 506 398 526 465 524 c 0
 509 522 546 509 579 483 c 2
 586 477 l 1
 582 487 l 2
 558 555 518 589 446 600 c 0
 432 602 387 602 369 600 c 0
 288 591 225 564 179 519 c 0
 130 469 102 399 102 321 c 0
 102 233 138 153 198 104 c 0
 236 74 285 53 338 44 c 0
 369 39 408 37 431 39 c 0
 475 43 511 56 550 84 c 2
 556 88 l 1
 596 88 l 2
 640 88 640 88 643 82 c 0
 647 75 645 69 633 61 c 0
 580 26 525 5 459 -3 c 0
 445 -5 438 -5 410 -5 c 0
 371 -5 352 -4 317 3 c 0
 248 16 190 47 146 91 c 0
 132 105 124 116 112 134 c 0
 102 148 86 179 81 195 c 0
 51 275 51 365 81 445 c 0
 89 469 108 502 123 522 c 0
 142 548 171 574 200 591 c 0
 248 622 310 640 376 645 c 0
488 477 m 0
 475 480 451 481 442 479 c 0
 422 475 407 467 392 453 c 0
 378 438 368 423 361 401 c 0
 352 375 350 357 350 321 c 0
 350 284 352 265 361 240 c 0
 368 217 378 202 392 187 c 0
 404 176 413 171 427 166 c 0
 440 161 452 160 466 160 c 0
 512 163 549 183 573 218 c 0
 580 229 585 237 589 249 c 0
 598 272 600 290 600 321 c 0
 600 337 600 345 599 354 c 0
 593 391 581 417 558 440 c 0
 541 458 517 471 488 477 c 0
EndSplineSet
EndChar

StartChar: A
Encoding: 65 65 53
Width: 704
Flags: HW
LayerCount: 2
Fore
SplineSet
342 630 m 0
 347 632 363 630 368 628 c 0
 375 625 381 618 384 613 c 0
 385 610 421 517 464 404 c 0
 560 154 558 159 568 135 c 0
 584 96 597 73 607 63 c 0
 617 52 632 47 650 45 c 0
 661 45 664 44 666 40 c 0
 668 37 668 35 668 23 c 0
 668 11 668 8 666 5 c 0
 663 0 659 0 644 2 c 0
 607 7 578 9 539 9 c 0
 499 9 464 7 424 2 c 0
 409 0 407 0 404 2 c 0
 402 2 400 5 399 7 c 0
 397 11 397 34 399 38 c 0
 401 42 406 45 410 45 c 0
 418 45 426 51 430 60 c 0
 433 66 433 68 433 81 c 0
 433 103 430 121 420 150 c 2
 416 164 l 1
 311 164 l 1
 206 164 l 1
 204 151 l 2
 196 110 192 66 196 54 c 0
 197 49 201 45 205 45 c 0
 209 45 213 42 215 38 c 0
 217 34 217 11 215 7 c 0
 214 5 212 2 210 1 c 0
 207 0 206 0 193 2 c 0
 164 8 154 8 122 8 c 0
 89 9 80 8 57 2 c 0
 44 -1 41 0 38 5 c 0
 36 8 36 11 36 23 c 0
 36 41 37 43 49 45 c 0
 66 47 81 59 99 89 c 0
 129 133 149 174 176 241 c 0
 185 265 189 274 262 465 c 0
 293 544 318 610 319 613 c 0
 323 620 333 628 342 630 c 0
351 333 m 0
 327 394 307 445 307 445 c 2
 306 445 239 273 230 246 c 0
 226 235 222 222 221 217 c 2
 218 209 l 1
 308 209 l 1
 398 209 l 1
 396 214 l 2
 395 217 375 271 351 333 c 0
EndSplineSet
EndChar

StartChar: B
Encoding: 66 66 54
Width: 704
Flags: HW
LayerCount: 2
Fore
SplineSet
52 615 m 0
 55 616 416 616 434 615 c 0
 497 610 547 592 580 559 c 0
 603 536 615 511 620 480 c 0
 622 467 620 449 618 437 c 0
 606 383 563 343 494 326 c 0
 486 324 482 323 484 323 c 0
 485 322 493 320 500 319 c 0
 549 310 590 288 616 257 c 0
 629 240 640 220 645 198 c 0
 647 188 647 183 647 168 c 0
 647 154 647 146 646 140 c 0
 630 58 563 9 460 1 c 0
 441 0 56 0 53 1 c 0
 48 3 47 8 47 23 c 0
 47 45 49 44 67 45 c 0
 86 46 98 50 106 58 c 0
 115 66 121 88 123 133 c 0
 124 159 124 457 123 484 c 0
 121 528 115 550 106 558 c 0
 98 566 86 570 67 571 c 0
 49 572 47 572 47 594 c 0
 47 609 48 613 52 615 c 0
425 568 m 2
 418 571 l 1
 346 571 l 2
 307 571 273 570 272 570 c 0
 267 569 261 563 259 559 c 0
 257 554 255 540 253 521 c 0
 252 513 252 473 251 425 c 2
 251 343 l 1
 321 343 l 2
 378 343 391 343 398 345 c 0
 445 353 475 387 483 438 c 0
 485 453 484 483 481 497 c 0
 473 535 455 558 425 568 c 2
436 296 m 0
 429 298 427 298 340 299 c 2
 251 299 l 1
 251 220 l 2
 251 122 252 87 257 67 c 0
 258 58 261 53 267 48 c 2
 271 46 l 1
 342 45 l 2
 419 45 422 45 439 51 c 0
 466 60 489 83 499 114 c 0
 510 144 510 189 500 226 c 0
 497 237 487 258 480 267 c 0
 469 280 453 292 436 296 c 0
EndSplineSet
EndChar

StartChar: C
Encoding: 67 67 55
Width: 704
Flags: HW
LayerCount: 2
Fore
SplineSet
368 628 m 0
 386 629 428 628 443 626 c 0
 485 620 525 605 556 585 c 0
 559 583 559 583 563 586 c 0
 565 587 581 597 597 608 c 2
 627 629 l 1
 634 629 l 2
 637 629 641 628 643 627 c 0
 649 624 649 628 649 528 c 0
 649 429 649 434 643 431 c 0
 641 429 637 429 625 429 c 0
 603 429 603 429 600 447 c 0
 589 508 539 561 476 577 c 0
 424 591 351 582 303 554 c 0
 250 525 219 480 207 411 c 0
 199 368 198 283 204 230 c 0
 211 167 229 125 264 90 c 0
 294 61 337 42 389 35 c 0
 398 34 410 34 426 34 c 0
 452 34 464 35 484 40 c 0
 555 57 601 104 605 159 c 0
 606 176 609 178 628 178 c 0
 642 178 645 177 648 172 c 0
 649 169 649 167 649 158 c 0
 647 136 643 119 634 101 c 0
 627 86 617 72 605 60 c 0
 554 9 466 -17 371 -11 c 0
 281 -5 208 23 151 74 c 0
 67 149 33 285 69 408 c 0
 78 443 98 483 120 510 c 0
 175 579 260 620 368 628 c 0
EndSplineSet
EndChar

StartChar: D
Encoding: 68 68 56
Width: 704
Flags: HW
LayerCount: 2
Fore
SplineSet
49 615 m 0
 53 616 381 616 396 615 c 0
 494 606 570 557 613 475 c 0
 632 439 644 398 650 351 c 0
 652 328 652 277 650 257 c 0
 643 200 628 156 601 116 c 0
 559 53 497 15 412 2 c 0
 402 1 383 1 226 0 c 0
 111 0 51 0 50 1 c 0
 44 3 43 8 43 23 c 0
 43 35 43 37 45 40 c 0
 48 44 49 45 62 45 c 0
 86 47 98 54 104 67 c 0
 108 77 112 98 114 132 c 0
 115 157 115 459 114 485 c 0
 112 518 108 540 104 550 c 0
 98 563 86 569 62 571 c 0
 49 571 48 573 45 577 c 0
 43 580 43 582 43 594 c 0
 43 606 43 608 45 611 c 0
 46 613 48 614 49 615 c 0
367 569 m 0
 359 570 348 570 312 571 c 2
 268 571 l 1
 263 569 l 2
 252 563 249 552 247 502 c 0
 246 469 246 148 247 116 c 0
 249 65 252 53 263 47 c 0
 267 45 268 45 306 45 c 0
 348 45 361 46 379 50 c 0
 413 56 439 70 461 92 c 0
 481 112 493 134 501 166 c 0
 508 193 510 212 511 263 c 0
 512 303 511 370 509 395 c 0
 503 455 488 495 460 524 c 0
 435 548 406 562 367 569 c 0
EndSplineSet
EndChar

StartChar: E
Encoding: 69 69 57
Width: 704
Flags: HW
LayerCount: 2
Fore
SplineSet
55 610 m 0
 58 611 612 611 615 610 c 0
 617 609 619 608 620 606 c 0
 621 604 625 575 633 490 c 0
 644 378 644 377 643 374 c 0
 642 372 640 370 638 369 c 0
 635 368 609 368 606 369 c 0
 601 371 600 374 598 396 c 0
 591 465 578 501 551 526 c 0
 525 551 495 561 441 565 c 0
 422 566 299 566 294 565 c 0
 283 563 276 554 274 538 c 0
 270 515 270 499 269 420 c 2
 269 340 l 1
 310 340 l 2
 352 341 361 341 374 345 c 0
 382 348 390 352 396 358 c 0
 412 371 420 396 420 438 c 0
 420 458 420 460 442 460 c 0
 456 460 460 459 462 455 c 0
 464 452 464 441 464 317 c 0
 464 193 464 183 462 180 c 0
 460 176 456 175 442 175 c 0
 420 175 420 177 420 197 c 0
 420 248 410 273 384 285 c 0
 369 293 359 294 310 295 c 2
 269 295 l 1
 269 203 l 2
 270 113 270 98 274 75 c 0
 276 57 284 47 296 45 c 2
 375 45 l 2
 433 46 451 46 462 47 c 0
 515 54 546 67 573 94 c 0
 600 122 616 164 626 243 c 0
 628 257 631 270 632 272 c 0
 632 273 634 275 636 276 c 0
 639 277 665 277 668 276 c 0
 670 275 672 273 673 271 c 0
 674 268 673 267 657 138 c 0
 645 47 639 7 638 5 c 0
 637 3 636 2 634 1 c 0
 631 0 59 0 56 1 c 0
 51 3 50 8 50 23 c 0
 50 45 52 44 72 45 c 0
 99 47 113 52 120 63 c 0
 125 73 129 90 131 119 c 0
 133 137 133 475 131 494 c 0
 129 522 125 538 120 548 c 0
 113 559 99 564 72 566 c 0
 52 567 50 567 50 589 c 0
 50 604 51 608 55 610 c 0
EndSplineSet
EndChar

StartChar: F
Encoding: 70 70 58
Width: 704
Flags: HW
LayerCount: 2
Fore
SplineSet
57 609 m 0
 60 611 68 611 343 611 c 0
 543 611 626 611 627 610 c 0
 629 609 630 608 631 606 c 0
 632 604 636 574 645 490 c 0
 656 378 656 377 655 374 c 0
 652 369 649 368 635 368 c 0
 627 368 619 368 618 369 c 0
 613 371 612 375 610 395 c 0
 602 471 587 508 554 535 c 0
 534 550 509 559 470 564 c 0
 454 566 309 567 301 565 c 0
 296 564 289 560 286 555 c 0
 278 544 275 506 275 398 c 2
 275 329 l 1
 319 329 l 2
 364 330 372 330 386 335 c 0
 394 337 404 342 410 347 c 0
 426 361 432 381 433 420 c 0
 433 442 434 445 439 447 c 0
 442 448 468 448 471 447 c 0
 473 446 474 445 475 443 c 0
 477 440 477 430 477 306 c 0
 477 182 477 172 475 169 c 0
 474 167 473 166 471 165 c 0
 468 164 442 164 439 165 c 0
 434 167 433 171 433 193 c 0
 432 232 426 251 410 265 c 0
 404 270 394 276 386 278 c 0
 372 283 364 283 319 284 c 2
 275 284 l 1
 275 220 l 2
 275 155 277 132 280 110 c 0
 286 63 298 50 341 46 c 0
 347 45 358 45 364 45 c 0
 377 45 379 44 382 40 c 0
 384 37 384 35 384 23 c 0
 384 11 384 8 382 5 c 0
 379 0 377 0 354 2 c 0
 298 7 252 9 194 9 c 0
 145 8 118 6 75 1 c 0
 63 0 61 0 58 1 c 0
 53 4 52 9 52 23 c 0
 52 37 53 41 58 43 c 0
 59 44 66 45 75 45 c 0
 113 47 125 55 131 81 c 0
 138 109 139 128 139 306 c 0
 139 483 138 502 131 530 c 0
 125 556 113 564 75 566 c 0
 60 566 56 567 53 573 c 0
 52 577 51 599 53 604 c 0
 54 606 56 608 57 609 c 0
EndSplineSet
EndChar

StartChar: G
Encoding: 71 71 59
Width: 704
Flags: HW
LayerCount: 2
Fore
SplineSet
340 628 m 0
 357 630 396 628 410 626 c 0
 444 620 474 608 500 592 c 0
 506 589 511 586 511 586 c 2
 512 586 513 587 514 587 c 0
 515 588 530 598 546 608 c 2
 575 629 l 1
 583 629 l 2
 586 629 590 628 592 627 c 0
 598 624 598 628 598 529 c 0
 598 429 598 434 592 431 c 0
 588 428 560 428 556 431 c 0
 552 433 551 436 548 449 c 0
 542 485 528 512 502 539 c 0
 483 557 466 567 443 575 c 0
 401 589 345 585 300 562 c 0
 283 554 269 544 257 532 c 0
 232 508 217 481 208 445 c 0
 198 407 195 368 196 292 c 0
 197 247 198 232 201 209 c 0
 205 173 215 141 229 118 c 0
 259 69 308 40 370 34 c 0
 387 32 400 33 410 36 c 0
 432 44 449 63 457 90 c 0
 462 103 462 113 462 143 c 0
 460 200 453 222 433 231 c 0
 422 237 399 241 372 241 c 0
 358 241 353 242 351 246 c 0
 350 247 350 255 350 263 c 0
 350 287 350 287 380 284 c 0
 429 279 475 276 524 276 c 0
 568 276 600 279 636 284 c 0
 651 286 654 286 657 282 c 0
 659 280 660 278 660 263 c 0
 660 247 659 247 657 244 c 0
 654 242 653 242 644 241 c 0
 611 238 606 233 601 199 c 0
 599 183 598 154 598 83 c 0
 598 2 598 5 592 2 c 0
 590 1 588 0 587 0 c 0
 583 0 548 17 531 27 c 0
 517 35 509 41 499 49 c 0
 496 52 493 54 493 54 c 2
 492 54 489 51 486 47 c 0
 480 38 467 23 456 15 c 0
 446 7 424 -3 412 -6 c 0
 393 -12 371 -13 341 -11 c 0
 280 -6 224 11 178 42 c 0
 148 62 119 92 100 122 c 0
 74 163 59 209 52 263 c 0
 50 283 50 333 52 353 c 0
 63 441 100 511 157 558 c 0
 206 598 267 622 340 628 c 0
EndSplineSet
EndChar

StartChar: H
Encoding: 72 72 60
Width: 704
Flags: HW
LayerCount: 2
Fore
SplineSet
50 615 m 0
 52 616 53 616 69 614 c 0
 143 605 220 605 295 614 c 0
 303 615 311 616 312 615 c 0
 314 615 316 614 317 612 c 0
 319 610 321 609 321 594 c 0
 321 578 319 577 317 574 c 0
 314 572 313 572 303 571 c 0
 272 568 262 562 257 540 c 0
 252 516 250 486 250 404 c 2
 250 343 l 1
 352 343 l 1
 454 343 l 1
 454 404 l 2
 454 486 451 516 446 540 c 0
 441 562 431 568 400 571 c 0
 390 572 389 572 386 574 c 0
 384 577 384 578 384 594 c 0
 384 609 384 610 386 612 c 0
 387 614 389 615 391 615 c 0
 392 616 401 615 409 614 c 0
 448 609 481 607 522 607 c 0
 562 607 596 609 635 614 c 0
 643 615 651 616 652 615 c 0
 654 615 656 614 657 612 c 0
 659 610 660 609 660 594 c 0
 660 578 659 577 657 574 c 0
 654 572 653 572 643 571 c 0
 612 568 602 562 597 540 c 0
 591 512 590 490 590 308 c 0
 590 126 591 105 597 77 c 0
 602 55 612 48 643 45 c 0
 653 44 654 44 657 42 c 0
 659 39 660 39 660 23 c 0
 660 8 659 6 657 4 c 0
 656 2 654 1 652 1 c 0
 651 0 643 1 635 2 c 0
 560 11 484 11 409 2 c 0
 401 1 392 0 391 1 c 0
 389 1 387 2 386 4 c 0
 384 6 384 8 384 23 c 0
 384 39 384 39 386 42 c 0
 389 44 390 44 400 45 c 0
 431 48 441 55 446 77 c 0
 452 102 454 130 454 224 c 2
 454 298 l 1
 352 298 l 1
 250 298 l 1
 250 224 l 2
 250 130 251 102 257 77 c 0
 262 55 272 48 303 45 c 0
 313 44 314 44 317 42 c 0
 319 39 321 39 321 23 c 0
 321 8 319 6 317 4 c 0
 316 2 314 1 312 1 c 0
 311 0 303 1 295 2 c 0
 220 11 144 11 69 2 c 0
 61 1 52 0 51 1 c 0
 49 1 47 2 46 4 c 0
 44 6 44 8 44 23 c 0
 44 39 44 39 46 42 c 0
 49 44 50 44 60 45 c 0
 91 48 101 55 106 77 c 0
 112 105 114 126 114 308 c 0
 114 490 112 512 106 540 c 0
 101 562 91 568 60 571 c 0
 50 572 49 572 46 574 c 0
 44 577 44 578 44 594 c 0
 44 608 44 610 46 612 c 0
 47 613 48 615 50 615 c 0
EndSplineSet
EndChar

StartChar: I
Encoding: 73 73 61
Width: 704
Flags: HW
LayerCount: 2
Fore
SplineSet
132 615 m 0
 134 616 132 616 161 614 c 0
 224 609 282 607 352 607 c 0
 421 607 478 609 543 614 c 0
 571 616 573 616 577 612 c 0
 578 610 579 608 579 594 c 2
 579 578 l 1
 575 574 l 1
 572 572 l 1
 545 571 l 2
 473 569 446 561 433 534 c 0
 427 520 423 501 421 472 c 0
 420 452 420 164 421 145 c 0
 426 62 446 48 545 45 c 2
 572 45 l 1
 575 42 l 1
 579 39 l 1
 579 23 l 2
 579 9 578 6 577 4 c 0
 573 0 571 0 543 2 c 0
 478 7 421 9 352 9 c 0
 282 9 226 7 161 2 c 0
 133 0 131 0 128 4 c 0
 126 6 126 9 126 23 c 2
 126 39 l 1
 128 42 l 1
 131 45 l 1
 159 45 l 2
 231 47 257 56 270 83 c 0
 276 97 281 115 283 145 c 0
 284 164 284 452 283 472 c 0
 278 554 258 568 159 571 c 2
 131 572 l 1
 128 574 l 1
 126 578 l 1
 126 594 l 2
 126 608 126 610 128 612 c 0
 129 613 130 615 132 615 c 0
EndSplineSet
EndChar

StartChar: J
Encoding: 74 74 62
Width: 704
Flags: HW
LayerCount: 2
Fore
SplineSet
269 615 m 0
 272 616 273 616 303 614 c 0
 353 609 408 607 461 607 c 0
 510 607 544 609 587 614 c 0
 605 616 607 616 610 611 c 0
 612 608 612 606 612 594 c 0
 612 582 612 580 610 577 c 0
 607 573 606 571 592 571 c 0
 565 569 551 563 545 550 c 0
 539 540 536 517 534 483 c 0
 533 471 532 391 532 292 c 0
 532 128 532 120 530 112 c 0
 526 89 516 72 499 54 c 0
 493 48 482 41 478 37 c 0
 443 14 395 -2 338 -8 c 0
 291 -14 207 -13 164 -7 c 0
 101 3 62 23 45 59 c 0
 37 73 36 82 36 101 c 0
 35 119 37 128 43 142 c 0
 49 153 57 163 66 170 c 0
 82 183 100 189 122 189 c 0
 144 189 162 183 178 170 c 0
 187 163 195 153 200 142 c 0
 206 131 208 122 209 108 c 0
 210 82 202 60 186 43 c 2
 180 36 l 1
 185 36 l 1
 218 32 278 31 298 34 c 0
 333 39 358 51 376 69 c 0
 385 78 389 84 395 97 c 0
 401 112 401 106 401 290 c 0
 401 457 401 477 397 501 c 0
 390 556 372 569 296 571 c 0
 283 571 270 572 269 572 c 0
 268 573 266 575 265 577 c 0
 263 580 263 582 263 594 c 0
 263 606 263 608 265 611 c 0
 266 613 268 614 269 615 c 0
EndSplineSet
EndChar

StartChar: K
Encoding: 75 75 63
Width: 704
Flags: HW
LayerCount: 2
Fore
SplineSet
48 614 m 0
 51 616 51 616 68 614 c 0
 105 609 139 607 181 607 c 0
 222 607 249 609 290 614 c 0
 308 616 310 616 313 615 c 0
 315 614 316 612 317 611 c 0
 318 609 318 579 317 577 c 0
 315 574 311 571 301 571 c 0
 278 569 266 564 260 552 c 0
 251 534 249 498 249 380 c 2
 250 301 l 1
 279 329 l 2
 332 380 372 421 407 461 c 0
 451 513 492 569 488 572 c 0
 484 576 483 579 483 594 c 0
 483 617 486 617 505 614 c 0
 534 609 559 607 586 607 c 0
 605 607 620 609 635 614 c 0
 645 617 648 616 651 611 c 0
 654 607 654 581 651 577 c 0
 649 573 649 572 639 570 c 0
 622 567 597 552 545 510 c 0
 520 491 500 474 474 451 c 0
 455 434 403 387 398 382 c 2
 395 378 l 1
 437 314 l 2
 557 131 591 82 618 60 c 0
 628 52 639 47 649 46 c 0
 664 44 666 43 666 23 c 0
 666 11 666 7 664 5 c 0
 661 0 658 0 640 2 c 0
 611 7 597 8 563 9 c 0
 520 9 481 7 441 2 c 0
 417 -1 417 -1 417 23 c 0
 417 38 417 39 419 41 c 0
 422 44 423 44 428 45 c 0
 433 46 432 61 426 80 c 0
 420 100 400 139 380 176 c 0
 362 206 307 292 305 292 c 0
 304 292 291 280 276 266 c 2
 249 241 l 1
 249 196 l 2
 249 117 252 81 260 65 c 0
 266 53 278 47 301 45 c 0
 311 45 315 43 317 40 c 0
 318 38 318 7 317 5 c 0
 316 4 315 2 313 1 c 0
 310 0 308 0 290 2 c 0
 249 7 222 9 181 9 c 0
 139 9 113 7 72 2 c 0
 54 0 51 0 48 1 c 0
 46 2 45 4 44 5 c 0
 43 7 43 38 44 40 c 0
 46 43 50 45 60 45 c 0
 83 47 95 53 101 65 c 0
 106 76 110 96 112 131 c 0
 113 158 113 458 112 486 c 0
 110 520 106 541 101 552 c 0
 95 564 83 569 60 571 c 0
 50 571 46 574 44 577 c 0
 43 579 43 609 44 611 c 0
 45 612 46 614 48 614 c 0
EndSplineSet
EndChar

StartChar: L
Encoding: 76 76 64
Width: 704
Flags: HW
LayerCount: 2
Fore
SplineSet
59 614 m 0
 63 616 61 616 83 614 c 0
 126 609 166 607 216 607 c 0
 268 607 314 609 365 614 c 0
 389 616 390 616 393 611 c 0
 395 608 395 606 395 594 c 0
 395 582 395 580 393 577 c 0
 390 573 388 571 374 571 c 0
 338 571 315 566 303 555 c 0
 291 543 285 520 283 475 c 0
 281 446 282 117 284 99 c 0
 285 84 288 68 289 63 c 0
 291 58 297 51 303 48 c 2
 308 46 l 1
 369 46 l 2
 422 46 430 46 441 47 c 0
 476 52 502 62 526 78 c 0
 539 87 560 107 568 121 c 0
 590 153 602 194 609 253 c 0
 611 278 611 278 633 278 c 0
 647 278 648 276 650 274 c 0
 652 273 653 270 654 269 c 0
 654 267 649 208 642 137 c 0
 633 40 630 8 628 5 c 0
 628 4 626 2 624 1 c 0
 623 0 546 0 342 0 c 0
 33 0 58 -1 55 7 c 0
 53 11 53 34 55 38 c 0
 58 44 62 45 78 45 c 0
 102 46 114 49 123 56 c 0
 134 65 140 81 143 121 c 0
 145 141 145 475 143 497 c 0
 140 536 134 551 123 560 c 0
 114 567 102 570 78 571 c 0
 62 571 58 573 55 579 c 0
 54 583 53 604 55 609 c 0
 56 611 58 613 59 614 c 0
EndSplineSet
EndChar

StartChar: M
Encoding: 77 77 65
Width: 704
Flags: HW
LayerCount: 2
Fore
SplineSet
40 614 m 0
 43 616 47 616 130 616 c 0
 229 616 223 617 232 607 c 0
 237 602 239 600 242 592 c 0
 243 587 268 497 298 393 c 0
 328 290 352 205 352 206 c 2
 352 206 377 293 408 401 c 0
 439 507 464 597 465 600 c 0
 468 606 476 613 482 614 c 0
 487 616 499 616 573 616 c 0
 668 616 665 616 668 609 c 0
 670 605 670 583 668 579 c 0
 666 575 661 571 656 571 c 0
 650 571 637 568 633 566 c 0
 623 561 618 554 615 532 c 0
 611 506 611 498 611 308 c 0
 611 118 611 110 615 84 c 0
 618 62 623 55 633 50 c 0
 637 48 650 45 656 45 c 0
 658 45 661 44 663 43 c 0
 668 41 669 37 669 23 c 0
 669 9 668 4 663 1 c 0
 660 0 657 0 645 2 c 0
 613 7 585 9 550 9 c 0
 514 9 486 7 454 2 c 0
 442 0 439 0 436 1 c 0
 431 4 430 9 430 23 c 0
 430 37 431 41 436 43 c 0
 438 44 440 45 442 45 c 0
 448 45 462 48 466 50 c 0
 476 55 480 64 483 84 c 0
 487 110 487 115 488 334 c 2
 488 547 l 1
 487 546 454 427 413 283 c 0
 359 93 337 17 335 14 c 0
 332 8 325 4 318 1 c 0
 313 0 312 0 307 1 c 0
 301 4 295 8 291 13 c 0
 289 17 269 83 215 273 c 2
 143 528 l 1
 142 383 l 2
 142 237 142 200 146 166 c 0
 149 123 159 79 168 62 c 0
 173 51 181 45 188 45 c 0
 193 45 198 42 200 38 c 0
 201 36 201 31 201 23 c 0
 201 9 200 4 195 1 c 0
 192 0 190 0 179 2 c 0
 154 8 148 8 118 8 c 0
 88 8 81 8 56 2 c 0
 45 0 44 0 41 1 c 0
 36 4 35 9 35 23 c 0
 35 31 35 36 36 38 c 0
 38 42 42 45 47 45 c 0
 54 45 63 51 68 62 c 0
 77 79 86 123 89 166 c 0
 93 201 93 235 93 368 c 0
 92 498 92 508 88 532 c 0
 85 552 81 561 71 566 c 0
 67 568 53 571 47 571 c 0
 42 571 38 575 36 579 c 0
 35 583 34 604 36 609 c 0
 37 611 39 613 40 614 c 0
EndSplineSet
EndChar

StartChar: N
Encoding: 78 78 66
Width: 704
Flags: HW
LayerCount: 2
Fore
SplineSet
50 615 m 0
 51 616 93 616 144 616 c 2
 238 616 l 1
 243 613 l 2
 248 611 251 607 353 470 c 0
 411 392 477 303 500 273 c 2
 541 219 l 1
 541 315 l 2
 540 374 540 417 539 426 c 0
 534 494 520 542 503 560 c 0
 497 567 491 570 483 571 c 0
 477 572 475 573 473 574 c 0
 471 577 471 578 471 594 c 0
 471 609 471 610 473 612 c 0
 476 616 480 616 494 614 c 0
 521 608 530 608 565 608 c 0
 600 608 610 608 637 614 c 0
 651 616 654 616 657 612 c 0
 659 610 660 609 660 594 c 0
 660 578 659 577 657 574 c 0
 655 573 653 572 647 571 c 0
 639 570 634 567 628 560 c 0
 611 542 598 495 592 425 c 0
 591 415 590 355 590 212 c 2
 590 14 l 1
 587 10 l 1
 580 3 l 2
 576 1 574 1 565 1 c 0
 556 1 555 1 551 3 c 0
 548 5 506 61 385 223 c 0
 199 473 190 486 166 512 c 2
 163 516 l 1
 163 360 l 2
 164 251 164 200 165 191 c 0
 171 121 184 74 201 56 c 0
 207 49 212 46 220 45 c 0
 226 44 228 43 230 42 c 0
 232 39 233 39 233 23 c 0
 233 8 232 6 230 4 c 0
 227 0 224 0 210 2 c 0
 183 8 173 8 138 8 c 0
 103 8 94 8 67 2 c 0
 53 0 49 0 46 4 c 0
 44 6 44 8 44 23 c 0
 44 39 44 39 46 42 c 0
 48 43 50 44 56 45 c 0
 64 46 70 49 76 56 c 0
 93 74 106 121 112 191 c 0
 113 200 113 256 114 382 c 2
 114 559 l 1
 105 562 l 2
 93 566 82 569 68 570 c 0
 50 572 49 572 46 575 c 0
 44 577 44 579 44 594 c 0
 44 608 44 610 46 612 c 0
 47 613 48 615 50 615 c 0
EndSplineSet
EndChar

StartChar: O
Encoding: 79 79 67
Width: 704
Flags: HW
LayerCount: 2
Fore
SplineSet
275 628 m 0
 302 629 399 629 425 628 c 0
 521 624 570 607 592 571 c 0
 609 542 620 498 624 419 c 0
 626 388 626 223 624 193 c 0
 618 95 603 47 573 24 c 0
 550 7 513 -4 461 -9 c 0
 413 -13 291 -13 244 -9 c 0
 179 -3 137 11 117 36 c 0
 97 61 85 109 80 193 c 0
 78 223 78 388 80 419 c 0
 86 525 101 572 135 596 c 0
 163 614 207 625 275 628 c 0
394 584 m 0
 378 585 322 585 307 584 c 0
 269 581 246 569 236 550 c 0
 231 540 227 520 225 473 c 0
 224 462 224 405 223 349 c 0
 222 194 225 113 231 84 c 0
 237 59 260 44 300 39 c 0
 314 37 389 37 403 39 c 0
 429 42 447 49 458 60 c 0
 469 71 472 78 474 104 c 0
 479 143 480 218 480 349 c 0
 479 405 479 462 478 473 c 0
 476 520 473 540 468 550 c 0
 457 570 434 581 394 584 c 0
EndSplineSet
EndChar

StartChar: P
Encoding: 80 80 68
Width: 704
Flags: HW
LayerCount: 2
Fore
SplineSet
54 615 m 0
 58 616 434 616 447 614 c 0
 517 606 564 586 599 551 c 0
 623 527 636 502 643 470 c 0
 646 455 646 425 643 410 c 0
 627 331 561 281 457 266 c 0
 446 265 431 265 354 264 c 2
 265 264 l 1
 265 209 l 2
 265 137 267 108 271 83 c 0
 277 56 290 47 325 45 c 0
 344 44 345 45 345 23 c 0
 345 11 345 7 343 5 c 0
 340 0 338 0 314 2 c 0
 271 7 242 9 198 9 c 0
 153 9 123 7 80 2 c 0
 56 0 54 0 51 5 c 0
 49 7 49 11 49 23 c 0
 49 45 51 44 70 45 c 0
 92 46 104 50 112 59 c 0
 121 68 126 90 128 133 c 0
 129 160 129 456 128 483 c 0
 127 503 125 522 123 534 c 0
 117 561 105 569 70 571 c 0
 51 572 49 572 49 594 c 0
 49 609 50 613 54 615 c 0
397 570 m 0
 382 571 287 571 282 570 c 0
 278 569 269 562 268 557 c 0
 266 552 263 537 262 520 c 0
 261 511 261 469 260 408 c 2
 260 308 l 1
 323 308 l 2
 388 308 402 309 420 312 c 0
 451 318 475 333 486 351 c 0
 491 359 497 373 499 387 c 0
 501 404 501 476 499 493 c 0
 494 527 482 543 454 556 c 0
 440 564 421 568 397 570 c 0
EndSplineSet
EndChar

StartChar: Q
Encoding: 81 81 69
Width: 704
Flags: HW
LayerCount: 2
Fore
SplineSet
275 628 m 0
 302 629 399 629 425 628 c 0
 521 624 570 607 592 571 c 0
 609 542 620 498 624 419 c 0
 626 388 626 223 624 193 c 0
 618 95 603 47 573 24 c 0
 555 10 525 -1 487 -6 c 0
 480 -7 474 -8 474 -8 c 2
 473 -8 475 -15 478 -22 c 0
 488 -45 499 -57 512 -63 c 0
 517 -66 520 -67 528 -68 c 0
 544 -69 556 -63 567 -51 c 0
 578 -39 585 -24 587 -5 c 0
 587 6 589 11 594 16 c 0
 597 19 605 23 609 23 c 0
 612 23 621 19 624 16 c 0
 630 10 631 6 631 -12 c 0
 631 -48 628 -84 623 -110 c 0
 612 -167 587 -200 548 -210 c 0
 537 -213 510 -213 499 -211 c 0
 463 -203 441 -181 428 -144 c 0
 420 -119 417 -93 415 -32 c 2
 415 -11 l 1
 361 -12 l 2
 257 -12 208 -8 167 5 c 0
 136 15 118 28 106 52 c 0
 92 81 84 122 80 193 c 0
 78 223 78 388 80 419 c 0
 86 525 101 572 135 596 c 0
 163 614 207 625 275 628 c 0
394 584 m 0
 379 585 323 585 307 584 c 0
 271 581 248 571 237 555 c 0
 229 544 225 534 223 502 c 0
 220 467 219 437 218 338 c 0
 218 210 219 142 224 101 c 0
 227 74 231 65 241 55 c 0
 248 48 255 45 264 41 c 0
 269 39 270 39 270 41 c 0
 266 49 266 55 266 67 c 0
 266 77 266 81 268 87 c 0
 275 109 288 125 310 135 c 0
 322 141 334 144 348 145 c 0
 381 146 407 134 427 106 c 0
 434 97 446 74 451 60 c 2
 455 50 l 2
 456 48 469 62 472 68 c 0
 475 75 477 83 479 101 c 0
 484 142 485 210 485 338 c 0
 484 437 483 467 480 502 c 0
 478 534 475 544 467 555 c 0
 455 571 432 581 394 584 c 0
365 100 m 0
 347 103 329 99 318 88 c 0
 312 82 310 76 310 67 c 0
 310 54 317 43 330 37 c 0
 339 33 346 32 364 32 c 0
 379 32 410 34 411 35 c 0
 412 36 406 59 403 67 c 0
 395 87 384 97 365 100 c 0
EndSplineSet
EndChar

StartChar: R
Encoding: 82 82 70
Width: 704
Flags: HW
LayerCount: 2
Fore
SplineSet
51 615 m 0
 53 616 81 616 213 616 c 0
 352 615 373 615 385 614 c 0
 469 604 528 574 560 527 c 0
 598 470 590 401 540 352 c 0
 520 332 495 317 460 305 c 0
 458 304 459 303 464 300 c 0
 491 286 514 264 526 239 c 0
 534 221 537 213 544 158 c 0
 550 105 551 95 554 82 c 0
 563 49 575 34 597 32 c 0
 612 31 626 36 637 46 c 0
 648 58 654 71 656 90 c 0
 657 103 660 108 667 113 c 0
 671 115 672 116 679 116 c 0
 685 116 686 115 690 113 c 2
 697 105 l 2
 699 101 699 100 699 89 c 0
 699 63 689 37 671 18 c 0
 662 8 653 3 642 -3 c 0
 626 -11 621 -11 592 -11 c 0
 557 -11 533 -9 504 -1 c 0
 455 11 421 39 409 77 c 0
 404 93 403 95 402 155 c 0
 401 216 401 217 395 234 c 0
 388 253 372 274 358 281 c 0
 346 287 342 287 294 287 c 2
 251 287 l 1
 251 219 l 2
 251 154 252 125 254 103 c 0
 257 78 261 62 268 56 c 0
 276 50 294 45 310 45 c 0
 317 45 322 43 324 40 c 0
 325 38 325 32 325 23 c 0
 325 0 322 -1 304 1 c 0
 298 2 283 4 272 5 c 0
 204 11 129 10 67 1 c 0
 49 -1 46 0 46 23 c 0
 46 32 46 38 47 40 c 0
 49 43 53 45 60 45 c 0
 76 45 94 50 102 56 c 0
 111 64 117 86 119 133 c 0
 120 158 120 458 119 484 c 0
 117 530 111 552 102 560 c 0
 94 566 76 571 60 571 c 0
 53 571 49 574 47 577 c 0
 46 579 46 585 46 594 c 0
 46 609 47 612 51 615 c 0
358 569 m 0
 346 570 276 572 271 570 c 0
 267 569 261 564 259 559 c 0
 257 554 254 541 253 522 c 0
 252 514 252 473 251 420 c 2
 251 331 l 1
 299 331 l 2
 338 332 350 332 357 333 c 0
 394 339 418 354 428 374 c 0
 436 391 438 404 437 452 c 0
 437 500 436 513 427 531 c 0
 417 549 392 563 358 569 c 0
EndSplineSet
EndChar

StartChar: S
Encoding: 83 83 71
Width: 704
Flags: HW
LayerCount: 2
Fore
SplineSet
289 628 m 0
 302 629 337 629 350 628 c 0
 412 624 464 609 504 581 c 0
 510 577 516 573 516 573 c 1
 516 573 529 586 544 599 c 0
 558 613 571 626 573 627 c 0
 576 629 588 630 592 627 c 0
 598 624 598 630 598 520 c 0
 598 410 598 417 592 414 c 0
 590 412 586 412 577 412 c 0
 559 412 555 414 553 426 c 0
 552 435 547 455 543 466 c 0
 528 507 499 539 459 558 c 0
 434 570 401 580 365 585 c 0
 342 587 293 587 275 585 c 0
 217 577 179 552 167 515 c 0
 164 504 163 486 167 476 c 0
 176 445 209 422 257 410 c 0
 263 408 309 399 359 391 c 0
 451 375 463 373 480 367 c 0
 534 349 580 315 606 275 c 0
 612 265 622 245 625 234 c 0
 639 190 634 141 611 98 c 0
 593 61 565 35 523 15 c 0
 495 2 469 -5 433 -10 c 0
 415 -12 355 -12 329 -10 c 0
 254 -4 201 10 157 36 c 2
 150 40 l 1
 141 33 l 2
 118 10 98 -8 96 -10 c 0
 92 -12 81 -13 77 -10 c 0
 71 -7 71 -14 71 96 c 0
 71 206 71 200 77 203 c 0
 79 205 83 205 93 205 c 0
 112 205 114 203 115 183 c 0
 117 145 130 117 156 92 c 0
 190 59 245 41 330 35 c 0
 350 33 410 33 422 35 c 0
 476 42 513 63 530 97 c 0
 536 111 539 120 539 136 c 0
 539 155 535 167 523 183 c 0
 506 207 478 223 438 233 c 0
 436 234 392 242 341 251 c 0
 290 260 243 268 237 270 c 0
 197 280 162 298 132 322 c 0
 101 347 82 378 74 415 c 0
 72 424 72 429 72 445 c 0
 72 461 72 466 74 477 c 0
 79 501 90 526 103 544 c 0
 140 593 207 624 289 628 c 0
EndSplineSet
EndChar

StartChar: T
Encoding: 84 84 72
Width: 704
Flags: HW
LayerCount: 2
Fore
SplineSet
58 606 m 0
 61 607 643 607 646 606 c 0
 652 603 651 607 659 485 c 0
 666 376 667 372 666 369 c 0
 663 365 659 364 645 364 c 0
 637 364 630 364 629 365 c 0
 624 367 623 370 621 394 c 0
 616 471 606 508 586 527 c 0
 568 546 542 557 507 561 c 0
 501 562 484 562 470 562 c 0
 446 562 443 562 440 560 c 0
 420 551 420 541 420 297 c 0
 421 151 421 132 422 119 c 0
 426 91 431 72 438 63 c 0
 440 62 443 59 446 57 c 0
 458 49 473 46 503 45 c 0
 513 45 523 44 524 44 c 0
 525 43 527 42 528 40 c 0
 530 37 530 35 530 23 c 0
 530 11 530 8 528 5 c 0
 525 0 524 0 501 2 c 0
 451 7 405 9 352 9 c 0
 298 9 253 7 203 2 c 0
 180 0 178 0 175 5 c 0
 173 8 173 11 173 23 c 0
 173 35 173 37 175 40 c 0
 176 42 178 43 179 44 c 0
 180 44 191 45 202 45 c 0
 231 46 245 49 257 57 c 0
 260 59 263 62 265 63 c 0
 272 72 278 91 282 119 c 0
 283 132 283 151 284 297 c 0
 284 479 284 512 279 539 c 0
 277 550 272 556 264 560 c 0
 260 562 257 562 233 562 c 0
 219 562 203 562 197 561 c 0
 162 557 136 546 118 527 c 0
 98 508 88 471 83 394 c 0
 81 370 80 367 75 365 c 0
 72 364 46 364 43 365 c 0
 41 366 39 368 38 369 c 0
 37 372 37 377 43 479 c 0
 47 537 50 589 51 593 c 0
 52 601 53 604 58 606 c 0
EndSplineSet
EndChar

StartChar: U
Encoding: 85 85 73
Width: 704
Flags: HW
LayerCount: 2
Fore
SplineSet
25 615 m 0
 28 616 26 616 54 613 c 0
 87 609 111 608 150 607 c 0
 201 607 238 608 284 614 c 0
 310 617 309 618 309 594 c 0
 309 586 309 578 308 577 c 0
 306 574 302 571 290 571 c 0
 262 569 249 562 243 547 c 0
 238 535 235 515 233 484 c 0
 232 458 232 190 233 171 c 0
 236 127 246 100 264 78 c 0
 282 55 310 41 344 35 c 0
 356 33 392 33 406 35 c 0
 440 39 466 50 489 65 c 0
 502 73 522 92 530 104 c 0
 542 122 552 146 556 171 c 2
 559 184 l 1
 559 294 l 2
 559 408 558 418 554 453 c 0
 545 527 525 567 496 571 c 0
 490 571 485 574 483 577 c 0
 482 578 482 586 482 594 c 0
 482 602 482 610 483 611 c 0
 484 612 485 614 487 615 c 0
 490 616 492 616 509 613 c 0
 539 608 549 608 584 608 c 0
 618 608 627 608 657 613 c 0
 674 616 676 616 679 615 c 0
 681 614 682 612 683 611 c 0
 684 609 684 579 683 577 c 0
 681 574 677 571 671 571 c 0
 638 567 617 516 609 422 c 0
 608 414 607 362 607 294 c 0
 606 170 606 175 601 151 c 0
 598 136 591 115 584 102 c 0
 553 41 497 3 418 -9 c 0
 405 -11 399 -11 372 -11 c 0
 335 -11 320 -10 292 -5 c 0
 244 5 206 21 173 47 c 0
 131 80 104 128 97 184 c 0
 96 189 96 243 96 329 c 0
 96 459 95 489 93 513 c 0
 91 525 89 540 86 547 c 0
 80 562 67 569 39 571 c 0
 27 571 22 574 20 577 c 0
 19 579 19 609 20 611 c 0
 21 612 23 614 25 615 c 0
EndSplineSet
EndChar

StartChar: V
Encoding: 86 86 74
Width: 704
Flags: HW
LayerCount: 2
Fore
SplineSet
29 614 m 2
 33 616 l 2
 34 616 42 615 51 614 c 0
 82 609 101 608 137 607 c 0
 183 607 220 609 264 614 c 0
 289 617 290 617 290 594 c 0
 290 575 288 572 276 571 c 0
 269 570 264 565 260 557 c 0
 257 551 257 550 257 540 c 0
 257 514 264 489 280 449 c 0
 284 439 311 371 341 299 c 0
 371 226 396 166 396 165 c 0
 396 163 432 249 472 346 c 0
 500 414 513 460 520 514 c 0
 526 554 525 570 515 571 c 0
 506 572 504 576 504 594 c 0
 504 617 506 618 524 614 c 0
 554 609 577 607 606 607 c 0
 629 608 639 609 659 614 c 0
 669 616 671 616 674 615 c 0
 679 612 680 608 680 594 c 0
 680 576 678 572 666 571 c 0
 657 570 650 566 638 555 c 0
 618 533 584 478 557 421 c 0
 543 390 532 363 458 185 c 0
 419 90 386 11 385 9 c 0
 382 4 376 -3 369 -6 c 0
 364 -8 362 -8 352 -8 c 0
 341 -8 340 -8 335 -6 c 0
 328 -3 321 4 318 9 c 0
 317 11 278 105 232 218 c 0
 120 486 121 486 105 517 c 0
 85 557 71 568 40 571 c 0
 26 572 24 575 24 594 c 0
 24 608 25 611 29 614 c 2
EndSplineSet
EndChar

StartChar: W
Encoding: 87 87 75
Width: 704
Flags: HW
LayerCount: 2
Fore
SplineSet
23 615 m 0
 25 616 27 616 35 615 c 0
 46 612 70 609 87 608 c 0
 107 606 167 607 195 609 c 0
 206 610 225 612 237 614 c 0
 260 616 261 616 265 612 c 0
 266 610 267 608 267 594 c 0
 267 578 266 577 264 574 c 0
 262 572 260 572 254 571 c 0
 245 570 238 567 232 561 c 0
 221 552 218 539 218 511 c 0
 218 493 219 480 224 458 c 0
 230 432 294 188 295 189 c 0
 296 189 312 226 330 269 c 0
 349 313 365 350 366 351 c 0
 368 355 374 362 378 365 c 0
 383 367 391 370 396 370 c 0
 408 370 420 363 426 354 c 0
 428 351 446 312 465 268 c 0
 483 223 499 187 500 187 c 1
 500 188 539 338 543 356 c 0
 550 384 556 414 559 446 c 0
 561 462 561 520 559 536 c 0
 557 550 554 559 551 564 c 0
 548 568 543 571 539 571 c 0
 534 571 529 575 527 579 c 0
 525 583 525 605 527 609 c 0
 528 611 530 614 532 615 c 0
 535 616 537 616 547 614 c 0
 577 609 604 607 630 607 c 0
 649 608 656 609 670 614 c 0
 679 617 682 616 685 611 c 0
 688 608 688 578 685 575 c 0
 683 573 680 571 677 571 c 0
 673 571 664 563 659 555 c 0
 647 535 626 484 612 437 c 0
 601 403 595 377 545 189 c 0
 514 67 498 8 496 5 c 0
 487 -11 462 -14 447 0 c 0
 445 2 442 6 441 8 c 0
 439 11 419 59 395 114 c 0
 371 168 352 214 352 214 c 1
 352 214 333 171 311 119 c 0
 260 2 263 8 257 2 c 0
 243 -14 218 -12 208 5 c 0
 206 8 186 82 146 236 c 0
 113 360 84 471 81 483 c 0
 72 516 64 538 57 550 c 0
 52 561 41 569 31 571 c 0
 18 572 16 574 16 594 c 0
 16 610 17 612 23 615 c 0
EndSplineSet
EndChar

StartChar: X
Encoding: 88 88 76
Width: 704
Flags: HW
LayerCount: 2
Fore
SplineSet
50 615 m 0
 53 616 54 616 69 614 c 0
 104 609 134 607 173 607 c 0
 214 607 249 609 290 614 c 0
 308 616 310 616 313 611 c 0
 315 608 315 606 315 594 c 0
 315 581 315 580 313 577 c 0
 311 574 309 572 306 572 c 0
 303 571 302 570 302 568 c 0
 301 564 303 552 306 538 c 0
 315 499 330 466 360 421 c 2
 369 409 l 1
 372 414 l 2
 378 424 396 462 402 477 c 0
 418 515 430 551 430 564 c 0
 430 569 429 571 426 571 c 0
 423 571 418 575 417 577 c 0
 416 579 416 609 417 611 c 0
 418 612 419 614 421 615 c 0
 424 616 425 616 441 614 c 0
 471 609 487 608 519 607 c 0
 556 607 580 608 610 614 c 0
 619 616 623 616 625 615 c 0
 630 613 631 610 631 594 c 0
 631 574 630 572 613 570 c 0
 602 569 596 567 586 562 c 0
 570 554 554 542 525 513 c 0
 493 482 470 456 442 420 c 0
 422 394 399 362 399 361 c 0
 400 359 519 180 535 156 c 0
 569 105 591 75 607 63 c 0
 620 53 634 47 656 45 c 0
 664 44 667 44 669 42 c 0
 671 39 672 39 672 23 c 0
 672 8 671 6 669 4 c 0
 668 2 666 1 664 1 c 0
 663 0 653 1 644 2 c 0
 613 7 593 8 556 9 c 0
 510 9 470 7 427 2 c 0
 419 1 411 0 410 1 c 0
 408 1 405 2 404 4 c 0
 402 6 402 8 402 23 c 0
 402 38 402 39 404 41 c 0
 405 43 409 44 411 45 c 2
 415 45 l 1
 415 55 l 2
 413 77 401 112 386 144 c 0
 378 161 371 174 344 215 c 2
 322 250 l 1
 316 242 l 2
 285 196 262 144 245 93 c 0
 237 70 234 59 234 51 c 0
 234 46 236 45 238 45 c 0
 248 44 249 41 249 23 c 0
 249 0 248 -1 226 2 c 0
 190 7 161 9 125 9 c 0
 95 8 82 7 56 2 c 0
 43 0 42 0 39 1 c 0
 37 2 36 4 35 5 c 0
 34 7 34 38 35 40 c 0
 37 43 41 45 49 45 c 0
 59 46 67 48 79 54 c 0
 96 63 118 81 152 115 c 0
 186 150 213 183 251 234 c 0
 269 260 292 292 292 293 c 0
 292 294 214 413 187 454 c 0
 158 496 141 521 124 540 c 0
 108 559 86 569 61 571 c 0
 46 572 45 574 45 594 c 0
 45 609 46 612 50 615 c 0
EndSplineSet
EndChar

StartChar: Y
Encoding: 89 89 77
Width: 704
Flags: HW
LayerCount: 2
Fore
SplineSet
27 615 m 0
 29 616 28 616 48 614 c 0
 79 609 100 608 138 607 c 0
 184 607 224 609 268 614 c 0
 294 617 294 618 294 594 c 0
 294 579 294 577 292 575 c 0
 290 573 288 572 287 572 c 0
 285 571 283 571 281 570 c 0
 275 569 269 559 270 549 c 0
 271 542 276 528 280 517 c 0
 285 505 300 474 311 457 c 0
 327 429 398 314 399 312 c 0
 400 311 406 319 418 339 c 0
 461 409 483 450 501 498 c 0
 514 532 520 552 520 563 c 2
 521 570 l 1
 516 571 l 2
 513 572 511 574 509 577 c 0
 507 580 507 581 507 594 c 0
 507 606 507 608 509 611 c 0
 512 616 515 616 530 614 c 0
 557 609 568 608 601 608 c 0
 633 608 640 608 663 614 c 0
 672 616 675 616 677 615 c 0
 682 613 683 611 683 594 c 0
 683 574 682 572 669 571 c 0
 652 569 629 550 592 507 c 0
 553 461 524 418 452 302 c 2
 417 246 l 1
 417 210 l 2
 417 170 418 122 420 106 c 0
 421 92 425 75 427 68 c 0
 431 57 443 49 461 47 c 0
 466 46 473 45 476 45 c 0
 482 45 486 43 488 40 c 0
 489 38 489 7 488 5 c 0
 487 4 486 2 484 1 c 0
 481 0 479 0 461 2 c 0
 426 7 405 8 366 9 c 0
 317 9 274 7 233 1 c 0
 215 -1 213 0 213 23 c 0
 213 43 214 44 232 45 c 0
 243 46 257 49 263 52 c 0
 272 58 277 67 281 89 c 0
 285 111 285 124 286 185 c 2
 286 247 l 1
 224 346 l 2
 157 455 144 475 129 498 c 0
 99 541 82 558 63 565 c 0
 55 568 41 571 33 571 c 0
 28 571 25 572 23 575 c 0
 21 577 20 581 20 594 c 0
 20 610 21 612 27 615 c 0
EndSplineSet
EndChar

StartChar: Z
Encoding: 90 90 78
Width: 704
Flags: HW
LayerCount: 2
Fore
SplineSet
96 615 m 0
 97 616 215 616 359 616 c 0
 563 616 622 616 625 615 c 0
 631 613 637 607 639 601 c 0
 640 596 640 585 639 580 c 0
 638 578 563 479 434 312 c 2
 230 49 l 1
 308 48 l 2
 355 48 393 48 404 49 c 0
 473 53 514 67 547 99 c 0
 581 134 595 178 601 262 c 0
 602 279 603 284 608 286 c 0
 611 287 637 287 640 286 c 0
 642 285 644 283 645 282 c 0
 646 279 646 271 639 143 c 0
 631 -2 632 4 626 1 c 0
 623 -1 84 0 79 1 c 0
 73 3 67 9 65 15 c 0
 64 20 64 35 65 40 c 0
 66 41 157 162 269 306 c 0
 381 451 473 570 473 570 c 2
 473 571 327 571 308 570 c 0
 245 566 205 551 173 520 c 0
 145 491 128 447 124 391 c 0
 124 380 122 376 118 374 c 0
 115 373 89 373 86 374 c 0
 84 375 82 377 82 378 c 0
 80 381 80 389 84 495 c 0
 87 556 89 608 90 609 c 0
 91 612 94 614 96 615 c 0
EndSplineSet
EndChar

StartChar: bracketleft
Encoding: 91 91 79
Width: 704
Flags: HW
LayerCount: 2
Fore
SplineSet
327 758 m 0
 330 759 639 759 642 758 c 0
 647 756 648 753 648 730 c 0
 648 707 647 704 642 702 c 0
 641 701 601 701 509 701 c 2
 379 701 l 1
 379 256 l 1
 379 -189 l 1
 509 -189 l 2
 601 -189 641 -189 642 -190 c 0
 647 -192 648 -195 648 -218 c 0
 648 -241 647 -244 642 -246 c 0
 639 -247 331 -247 328 -246 c 0
 326 -245 325 -244 324 -242 c 0
 322 -239 322 -204 322 256 c 0
 322 717 322 751 324 754 c 0
 325 756 326 757 327 758 c 0
EndSplineSet
EndChar

StartChar: backslash
Encoding: 92 92 80
Width: 704
Flags: HW
LayerCount: 2
Fore
SplineSet
96 757 m 0
 106 761 118 759 126 752 c 0
 130 748 155 699 377 270 c 0
 513 7 624 -209 625 -211 c 0
 628 -220 624 -231 617 -238 c 0
 606 -249 590 -250 578 -240 c 0
 574 -236 549 -187 327 242 c 0
 191 505 80 721 79 723 c 0
 78 728 78 733 80 739 c 0
 82 746 89 755 96 757 c 0
EndSplineSet
EndChar

StartChar: bracketright
Encoding: 93 93 81
Width: 704
Flags: HW
LayerCount: 2
Fore
SplineSet
60 758 m 0
 63 759 373 759 376 758 c 0
 378 757 379 756 380 754 c 0
 382 751 382 716 382 256 c 0
 382 -204 382 -239 380 -242 c 0
 379 -244 378 -245 376 -246 c 0
 373 -247 64 -247 61 -246 c 0
 56 -244 55 -241 55 -218 c 0
 55 -195 56 -192 61 -190 c 0
 62 -189 103 -189 195 -189 c 2
 325 -189 l 1
 325 256 l 1
 325 701 l 1
 195 701 l 2
 103 701 62 701 61 702 c 0
 56 704 55 707 55 730 c 0
 55 753 56 756 60 758 c 0
EndSplineSet
EndChar

StartChar: circumflex
Encoding: 710 710 82
Width: 704
Flags: HW
LayerCount: 2
Fore
SplineSet
340 635 m 0
 345 638 350 640 352 640 c 0
 355 640 537 545 540 542 c 0
 544 538 544 533 538 519 c 0
 533 508 531 506 528 505 c 2
 524 503 l 1
 438 529 l 1
 352 556 l 1
 265 529 l 1
 179 503 l 1
 175 505 l 2
 172 506 171 508 166 519 c 0
 160 533 160 538 164 542 c 0
 166 544 218 572 340 635 c 0
EndSplineSet
EndChar

StartChar: underscore
Encoding: 95 95 83
Width: 704
Flags: HW
LayerCount: 2
Fore
SplineSet
94 -242 m 0
 98 -240 124 -240 351 -240 c 0
 637 -240 610 -239 620 -249 c 0
 631 -260 631 -277 620 -288 c 0
 610 -298 637 -297 351 -297 c 0
 66 -297 94 -298 84 -288 c 0
 76 -281 74 -270 78 -259 c 0
 80 -252 87 -244 94 -242 c 0
EndSplineSet
EndChar

StartChar: quoteleft
Encoding: 8216 8216 84
Width: 704
Flags: HW
LayerCount: 2
Fore
SplineSet
403 689 m 0
 413 694 417 694 423 690 c 0
 428 686 438 675 440 671 c 0
 441 668 441 667 440 664 c 0
 439 660 438 658 425 652 c 0
 394 637 369 618 347 594 c 0
 304 545 283 488 283 427 c 0
 283 409 284 390 286 390 c 2
 286 390 288 392 290 395 c 0
 293 401 304 412 311 417 c 0
 330 428 357 430 379 423 c 0
 396 417 411 403 418 388 c 0
 425 374 426 367 426 352 c 0
 426 336 425 329 418 315 c 0
 415 307 412 304 406 298 c 0
 402 294 395 289 392 287 c 0
 368 274 337 274 309 287 c 0
 285 298 268 316 255 344 c 0
 242 372 237 399 238 434 c 0
 240 489 257 541 288 588 c 0
 316 630 357 666 403 689 c 0
EndSplineSet
EndChar

StartChar: a
Encoding: 97 97 85
Width: 704
Flags: HW
LayerCount: 2
Fore
SplineSet
258 459 m 0
 282 460 331 460 350 459 c 0
 413 455 465 441 504 414 c 0
 519 404 538 385 546 373 c 0
 552 362 558 348 561 337 c 0
 563 329 563 328 564 202 c 0
 564 106 565 74 566 72 c 0
 568 69 576 62 581 60 c 0
 596 53 620 53 635 60 c 0
 642 63 649 70 650 75 c 0
 651 77 651 92 651 108 c 0
 651 147 650 145 674 145 c 0
 697 145 695 147 695 104 c 0
 695 75 695 71 693 65 c 0
 684 30 652 8 598 0 c 0
 587 -2 578 -2 561 -2 c 0
 538 -2 537 -2 529 0 c 0
 504 8 485 24 475 44 c 0
 471 52 467 66 466 75 c 2
 466 83 l 1
 462 77 l 2
 446 45 405 18 353 5 c 0
 290 -11 206 -9 147 10 c 0
 105 23 76 46 63 75 c 0
 57 88 56 98 56 116 c 0
 56 129 56 131 58 139 c 0
 64 157 73 171 87 184 c 0
 121 217 180 241 270 255 c 0
 312 262 382 268 429 268 c 0
 438 268 447 268 449 269 c 2
 452 269 l 1
 452 298 l 2
 451 325 451 328 449 335 c 0
 438 375 405 402 357 412 c 0
 338 416 323 416 283 416 c 0
 251 415 217 414 216 412 c 2
 216 412 218 409 221 406 c 0
 227 400 235 385 238 375 c 0
 240 366 240 343 238 334 c 0
 235 325 229 313 224 306 c 0
 219 300 208 291 199 287 c 0
 177 277 152 277 130 287 c 0
 121 291 109 300 104 306 c 0
 99 313 94 325 91 334 c 0
 89 344 88 362 91 373 c 0
 93 385 101 400 108 409 c 0
 114 418 127 427 140 434 c 0
 168 448 205 456 258 459 c 0
452 181 m 2
 452 238 l 1
 445 238 l 2
 360 235 298 225 247 203 c 0
 214 191 188 169 177 145 c 0
 172 135 171 129 171 116 c 0
 171 105 171 102 173 95 c 0
 189 51 259 29 340 42 c 0
 401 51 443 80 450 118 c 0
 452 125 452 135 452 181 c 2
EndSplineSet
EndChar

StartChar: b
Encoding: 98 98 86
Width: 704
Flags: HW
LayerCount: 2
Fore
SplineSet
138 636 m 0
 177 638 211 640 215 640 c 0
 222 640 225 639 227 635 c 0
 229 632 229 622 229 516 c 2
 229 400 l 1
 243 410 l 2
 263 423 290 436 315 442 c 0
 373 459 434 460 490 447 c 0
 524 439 557 422 584 402 c 0
 595 393 612 375 620 364 c 0
 629 351 644 321 649 305 c 0
 653 292 657 273 659 258 c 0
 661 244 661 204 659 190 c 0
 652 147 636 110 610 79 c 0
 578 41 527 13 468 1 c 0
 442 -4 427 -5 396 -5 c 0
 366 -5 358 -4 334 1 c 0
 293 11 254 31 225 59 c 2
 217 68 l 1
 201 48 l 2
 192 37 179 22 173 15 c 0
 167 8 161 2 160 1 c 0
 158 0 151 0 142 0 c 0
 128 0 128 1 125 3 c 2
 123 6 l 1
 122 255 l 2
 121 509 121 512 117 540 c 0
 114 565 109 574 99 580 c 0
 92 584 89 585 78 586 c 0
 65 588 63 588 60 590 c 0
 58 593 58 593 58 609 c 0
 58 625 58 626 60 629 c 0
 62 630 65 631 66 631 c 0
 67 632 99 634 138 636 c 0
422 410 m 0
 409 412 378 413 364 412 c 0
 327 408 291 394 263 375 c 0
 260 373 252 365 246 359 c 2
 234 349 l 1
 234 230 l 1
 234 112 l 1
 240 104 l 2
 255 85 276 66 299 55 c 0
 326 42 351 37 383 38 c 0
 440 41 482 59 509 95 c 0
 517 105 521 116 526 130 c 0
 534 154 537 173 538 216 c 0
 539 300 530 340 500 371 c 0
 482 390 454 405 422 410 c 0
EndSplineSet
EndChar

StartChar: c
Encoding: 99 99 87
Width: 704
Flags: HW
LayerCount: 2
Fore
SplineSet
354 459 m 0
 371 460 443 459 463 458 c 0
 498 454 523 448 545 440 c 0
 581 426 602 404 608 374 c 0
 611 362 610 344 608 334 c 0
 605 325 600 313 595 306 c 0
 590 300 578 291 569 287 c 0
 547 277 523 277 501 287 c 0
 492 291 480 300 475 306 c 0
 470 313 465 325 462 334 c 0
 460 343 460 366 462 375 c 0
 465 386 472 400 479 407 c 2
 485 413 l 1
 469 414 l 2
 446 416 371 416 358 414 c 0
 313 408 280 393 255 367 c 0
 230 342 218 313 212 268 c 0
 210 250 210 206 212 190 c 0
 218 150 231 121 255 97 c 0
 274 75 299 61 332 51 c 0
 378 37 441 34 485 45 c 0
 496 47 512 53 520 57 c 0
 545 69 568 93 580 119 c 0
 584 126 586 129 588 130 c 0
 592 133 616 133 620 130 c 0
 623 129 626 124 626 120 c 0
 626 117 616 98 610 88 c 0
 583 44 535 14 473 2 c 0
 443 -4 429 -5 389 -5 c 0
 351 -5 336 -4 307 1 c 0
 228 14 165 49 128 98 c 0
 76 169 72 263 118 339 c 0
 137 370 164 396 200 416 c 0
 243 441 292 454 354 459 c 0
EndSplineSet
EndChar

StartChar: d
Encoding: 100 100 88
Width: 704
Flags: HW
LayerCount: 2
Fore
SplineSet
490 636 m 0
 529 638 563 640 567 640 c 0
 574 640 578 639 580 635 c 0
 582 632 582 608 582 380 c 0
 583 122 583 121 587 92 c 0
 590 67 594 58 604 52 c 0
 611 48 615 47 627 46 c 0
 639 44 640 44 643 42 c 0
 645 39 645 39 645 23 c 0
 645 15 645 6 644 5 c 0
 641 0 641 0 558 -3 c 0
 497 -5 477 -6 475 -5 c 0
 469 -3 469 -1 469 28 c 2
 469 54 l 1
 468 54 464 51 458 46 c 0
 410 10 350 -8 285 -6 c 0
 213 -4 157 16 112 57 c 0
 83 82 58 124 49 167 c 0
 36 223 42 282 68 332 c 0
 83 363 101 386 130 406 c 0
 175 439 237 457 306 457 c 0
 340 457 378 450 407 439 c 0
 426 432 453 419 467 408 c 0
 470 406 473 403 474 403 c 0
 475 403 473 502 472 516 c 0
 469 547 466 564 461 571 c 0
 457 576 448 582 442 584 c 0
 440 585 434 586 430 586 c 0
 417 588 416 588 413 590 c 0
 411 593 411 593 411 609 c 0
 411 625 411 626 413 629 c 0
 415 630 417 631 418 631 c 0
 419 632 451 634 490 636 c 0
350 412 m 0
 338 413 318 413 307 412 c 0
 253 407 215 386 191 351 c 0
 172 322 165 283 166 211 c 0
 167 167 169 149 177 125 c 0
 183 107 192 93 204 79 c 0
 221 61 250 46 282 41 c 0
 296 38 331 38 345 40 c 0
 378 45 407 59 433 78 c 0
 442 85 459 102 465 110 c 2
 469 116 l 1
 469 232 l 1
 469 350 l 1
 463 357 l 2
 437 386 394 408 350 412 c 0
EndSplineSet
EndChar

StartChar: e
Encoding: 101 101 89
Width: 704
Flags: HW
LayerCount: 2
Fore
SplineSet
326 459 m 0
 343 460 381 460 399 459 c 0
 466 455 515 438 554 407 c 0
 581 385 600 357 611 322 c 0
 619 298 625 263 624 243 c 0
 623 234 620 228 613 223 c 2
 609 221 l 1
 396 220 l 1
 184 220 l 1
 184 210 l 2
 187 176 193 151 203 128 c 0
 219 93 253 64 298 50 c 0
 311 46 325 43 343 40 c 0
 360 38 406 38 428 40 c 0
 488 47 529 64 557 93 c 0
 567 103 574 112 580 125 c 0
 583 131 585 135 588 137 c 0
 598 145 613 143 621 132 c 0
 623 128 623 127 623 121 c 0
 623 114 622 112 618 103 c 0
 601 69 576 45 540 27 c 0
 516 15 489 5 459 0 c 0
 410 -8 339 -8 287 2 c 0
 208 16 144 49 106 98 c 0
 74 137 59 185 60 233 c 0
 62 289 85 340 124 379 c 0
 170 425 242 453 326 459 c 0
399 414 m 0
 388 415 352 416 344 415 c 0
 342 415 336 415 331 414 c 0
 304 411 277 402 257 390 c 0
 216 365 193 328 187 271 c 0
 186 264 185 258 185 258 c 2
 185 257 262 257 356 257 c 2
 527 257 l 1
 527 262 l 2
 527 277 522 307 516 323 c 0
 509 346 500 359 486 374 c 0
 464 396 437 408 399 414 c 0
EndSplineSet
EndChar

StartChar: f
Encoding: 102 102 90
Width: 704
Flags: HW
LayerCount: 2
Fore
SplineSet
452 645 m 4
 459 645 476 646 488 646 c 4
 515 645 522 644 539 636 c 4
 558 627 572 613 580 595 c 4
 587 581 589 573 590 559 c 4
 590 544 588 534 582 520 c 4
 578 512 575 509 569 503 c 4
 560 496 549 488 538 485 c 4
 529 483 508 483 499 485 c 4
 488 488 476 496 467 503 c 4
 461 509 459 512 455 520 c 4
 447 536 445 554 449 571 c 4
 450 578 456 592 460 599 c 6
 462 602 l 5
 452 602 l 6
 428 600 410 596 393 587 c 4
 383 582 381 580 372 571 c 4
 364 563 361 560 357 553 c 4
 350 539 350 535 350 486 c 4
 350 443 350 443 352 439 c 4
 354 436 355 435 355 410 c 6
 355 383 l 5
 455 383 l 6
 525 383 554 383 555 382 c 4
 560 380 561 375 561 359 c 4
 561 344 560 344 558 341 c 6
 555 339 l 5
 455 338 l 5
 355 338 l 5
 355 247 l 6
 355 156 356 131 359 109 c 4
 365 59 379 47 434 45 c 6
 454 44 l 5
 457 42 l 5
 460 39 l 5
 460 23 l 6
 460 9 459 6 458 4 c 4
 454 0 451 0 432 2 c 4
 388 7 348 9 302 9 c 4
 255 9 215 7 171 2 c 4
 152 0 149 0 146 4 c 4
 144 6 144 9 144 23 c 6
 144 39 l 5
 146 42 l 5
 150 44 l 5
 169 45 l 6
 224 47 238 59 244 109 c 4
 247 131 248 156 248 247 c 6
 248 338 l 5
 163 338 l 5
 77 339 l 5
 74 341 l 6
 72 344 71 344 71 359 c 4
 71 375 72 380 77 382 c 4
 78 383 104 383 164 383 c 6
 248 383 l 5
 248 457 l 6
 248 536 248 539 253 552 c 4
 265 583 293 606 337 623 c 4
 368 634 409 642 452 645 c 4
EndSplineSet
EndChar

StartChar: g
Encoding: 103 103 91
Width: 704
Flags: HW
LayerCount: 2
Fore
SplineSet
302 456 m 0
 312 457 342 457 351 456 c 0
 380 453 407 444 433 432 c 0
 464 417 489 399 508 374 c 0
 512 369 516 365 516 365 c 1
 518 367 l 2
 518 368 532 388 546 412 c 0
 564 440 575 455 577 456 c 0
 580 457 600 457 603 456 c 0
 605 455 607 453 607 452 c 0
 609 449 609 428 609 202 c 2
 608 -45 l 1
 606 -55 l 2
 593 -113 549 -157 479 -184 c 0
 439 -198 395 -207 338 -208 c 0
 214 -210 132 -186 95 -137 c 0
 81 -118 73 -93 74 -68 c 0
 75 -46 81 -31 95 -17 c 0
 105 -7 116 -2 130 2 c 0
 140 5 158 5 169 2 c 0
 182 -2 193 -7 203 -17 c 0
 213 -27 218 -36 221 -49 c 0
 224 -60 224 -81 221 -92 c 0
 218 -105 213 -114 204 -124 c 0
 195 -132 189 -136 179 -140 c 2
 174 -142 l 1
 180 -144 l 2
 215 -156 260 -163 318 -163 c 0
 347 -163 353 -163 366 -161 c 0
 437 -150 481 -113 494 -54 c 0
 496 -46 496 -41 497 22 c 2
 497 97 l 1
 497 105 l 1
 492 99 l 2
 473 74 444 52 414 37 c 0
 378 20 345 13 301 14 c 0
 222 17 160 37 113 77 c 0
 93 93 78 111 66 136 c 0
 51 168 43 198 44 233 c 0
 46 289 70 343 108 381 c 0
 146 417 196 441 257 451 c 0
 269 454 280 455 302 456 c 0
377 411 m 0
 368 412 338 413 332 412 c 0
 330 412 323 412 318 411 c 0
 275 406 236 385 211 354 c 0
 181 319 168 279 169 225 c 0
 169 194 172 177 182 151 c 0
 193 122 215 97 244 81 c 0
 272 65 315 55 351 59 c 0
 384 63 414 78 439 102 c 0
 474 137 494 181 497 231 c 0
 497 244 498 249 501 250 c 0
 502 251 502 255 502 275 c 2
 502 300 l 1
 499 308 l 2
 491 328 478 348 460 366 c 0
 447 380 434 388 419 396 c 0
 407 401 388 408 377 411 c 0
EndSplineSet
EndChar

StartChar: h
Encoding: 104 104 92
Width: 704
Flags: HW
LayerCount: 2
Fore
SplineSet
144 636 m 0
 183 638 217 640 221 640 c 0
 228 640 231 639 233 635 c 0
 235 632 236 621 236 492 c 2
 236 352 l 1
 241 360 l 2
 249 373 255 382 266 394 c 0
 298 426 336 447 384 455 c 0
 392 456 399 456 424 456 c 0
 462 456 483 453 506 446 c 0
 518 442 537 433 546 426 c 0
 565 412 580 391 586 365 c 0
 591 342 591 346 592 230 c 0
 592 161 593 118 594 110 c 0
 595 94 598 75 601 68 c 0
 605 55 617 47 639 45 c 0
 648 45 652 43 654 40 c 0
 655 38 655 7 654 5 c 0
 653 4 652 2 650 1 c 0
 647 0 646 0 629 2 c 0
 593 7 572 9 536 9 c 0
 500 9 478 7 442 2 c 0
 425 0 424 0 421 1 c 0
 419 2 418 4 417 5 c 0
 416 7 416 38 417 40 c 0
 419 43 423 45 432 45 c 0
 454 47 466 55 470 68 c 0
 473 75 476 94 477 110 c 0
 479 127 480 319 478 337 c 0
 474 382 458 404 421 411 c 0
 410 413 389 413 378 412 c 0
 340 408 309 393 283 368 c 0
 263 346 249 323 243 294 c 0
 242 286 242 279 242 207 c 0
 242 124 242 109 246 85 c 0
 249 70 251 63 255 58 c 0
 261 50 273 47 288 45 c 0
 297 45 301 43 303 40 c 0
 304 38 304 7 303 5 c 0
 302 4 301 2 299 1 c 0
 296 0 295 0 278 2 c 0
 242 7 220 9 184 9 c 0
 148 9 127 7 91 2 c 0
 74 0 73 0 70 1 c 0
 68 2 67 4 66 5 c 0
 65 7 65 38 66 40 c 0
 68 43 72 45 81 45 c 0
 96 47 108 50 114 58 c 0
 118 63 120 70 123 85 c 0
 127 111 128 117 128 313 c 0
 128 504 127 512 123 541 c 0
 120 565 115 574 105 580 c 0
 98 584 95 585 84 586 c 0
 71 588 70 588 67 590 c 0
 65 593 65 593 65 609 c 0
 65 625 65 626 67 629 c 0
 69 630 71 631 72 631 c 0
 73 632 105 634 144 636 c 0
EndSplineSet
EndChar

StartChar: i
Encoding: 105 105 93
Width: 704
Flags: HW
LayerCount: 2
Fore
SplineSet
352 640 m 0
 353 641 361 641 367 641 c 0
 389 640 405 632 419 618 c 0
 429 608 434 600 437 587 c 0
 443 564 436 541 419 524 c 0
 409 514 399 509 385 505 c 0
 374 502 354 502 343 505 c 0
 329 509 319 514 309 524 c 0
 299 534 294 543 291 556 c 0
 285 579 292 601 309 618 c 0
 321 630 334 637 352 640 c 0
322 453 m 0
 431 457 430 457 433 456 c 0
 435 455 436 454 437 452 c 0
 439 449 439 437 439 303 c 0
 439 158 439 134 443 110 c 0
 449 59 464 47 521 45 c 0
 531 45 542 44 543 44 c 0
 548 42 549 39 549 23 c 0
 549 0 548 -1 525 1 c 0
 474 7 449 9 382 8 c 0
 320 8 299 8 250 3 c 0
 219 0 217 0 213 3 c 2
 211 6 l 1
 211 23 l 1
 211 39 l 1
 213 42 l 1
 216 44 l 1
 238 45 l 2
 268 46 280 48 294 53 c 0
 304 57 313 66 318 75 c 0
 324 89 329 110 331 143 c 0
 332 169 332 302 330 318 c 0
 327 347 321 368 315 378 c 0
 304 395 286 401 244 403 c 2
 222 404 l 1
 219 407 l 1
 217 410 l 1
 217 426 l 2
 217 441 217 442 219 444 c 0
 220 446 223 448 224 449 c 0
 226 449 271 451 322 453 c 0
EndSplineSet
EndChar

StartChar: j
Encoding: 106 106 94
Width: 704
Flags: HW
LayerCount: 2
Fore
SplineSet
445 640 m 0
 446 641 454 641 460 641 c 0
 474 640 484 638 495 632 c 0
 506 626 519 613 524 602 c 0
 534 583 534 560 524 541 c 0
 519 530 506 517 495 511 c 0
 483 505 473 503 458 503 c 0
 442 503 432 505 420 511 c 0
 409 517 395 530 390 541 c 0
 382 555 380 572 384 587 c 0
 387 600 392 608 402 618 c 0
 414 630 427 637 445 640 c 0
409 453 m 0
 524 457 523 457 526 456 c 0
 528 455 529 454 530 452 c 0
 532 449 532 430 532 198 c 0
 532 -73 532 -60 527 -80 c 0
 524 -91 514 -111 507 -121 c 0
 493 -139 472 -156 447 -168 c 0
 417 -183 385 -194 344 -199 c 0
 326 -201 263 -201 240 -199 c 0
 156 -192 112 -168 98 -121 c 0
 96 -114 96 -110 96 -97 c 0
 96 -81 97 -73 102 -61 c 0
 111 -43 128 -30 151 -24 c 0
 162 -21 179 -21 190 -24 c 0
 213 -30 230 -43 239 -61 c 0
 243 -71 245 -80 246 -92 c 0
 247 -114 239 -133 226 -148 c 2
 222 -153 l 1
 226 -153 l 2
 238 -155 260 -156 287 -156 c 0
 314 -156 317 -156 327 -154 c 0
 380 -143 418 -103 424 -56 c 0
 425 -49 425 1 425 129 c 0
 424 320 424 316 419 346 c 0
 410 390 392 401 326 403 c 2
 303 404 l 1
 300 407 l 1
 298 410 l 1
 298 426 l 2
 298 441 298 442 300 444 c 0
 301 446 304 448 305 449 c 0
 307 449 354 451 409 453 c 0
EndSplineSet
EndChar

StartChar: k
Encoding: 107 107 95
Width: 704
Flags: HW
LayerCount: 2
Fore
SplineSet
146 636 m 0
 228 640 229 640 232 639 c 0
 238 636 238 650 239 432 c 2
 240 231 l 1
 259 245 l 2
 269 252 279 259 279 259 c 2
 280 260 280 261 279 262 c 0
 276 266 277 272 279 276 c 0
 282 278 282 280 295 280 c 2
 308 280 l 1
 328 294 l 2
 381 333 447 384 465 401 c 2
 473 410 l 1
 473 426 l 2
 473 440 473 442 475 445 c 0
 478 450 481 451 499 449 c 0
 531 444 548 442 580 442 c 0
 612 441 616 443 634 449 c 0
 641 451 643 451 645 450 c 0
 651 448 651 445 651 428 c 0
 651 412 651 412 649 409 c 0
 647 408 645 407 644 407 c 0
 624 403 617 399 591 387 c 0
 559 372 509 344 436 301 c 0
 417 289 400 279 400 279 c 2
 400 278 513 163 538 139 c 0
 616 64 638 48 666 45 c 0
 674 45 678 43 680 40 c 0
 681 39 681 31 681 23 c 0
 681 6 681 3 675 1 c 0
 673 0 669 0 660 2 c 0
 630 7 619 8 578 8 c 0
 537 8 523 8 489 3 c 0
 462 0 461 0 457 3 c 2
 455 6 l 1
 455 23 l 2
 455 38 455 39 457 41 c 0
 458 43 460 44 462 44 c 0
 464 45 464 46 464 47 c 0
 456 67 395 141 327 212 c 2
 314 225 l 1
 274 201 l 1
 234 175 l 1
 234 163 l 2
 234 118 240 75 246 63 c 0
 251 53 263 48 281 46 c 0
 296 44 297 44 300 40 c 0
 302 37 302 36 302 23 c 0
 302 11 302 8 300 5 c 0
 297 0 294 0 279 2 c 0
 246 7 218 9 183 9 c 0
 147 9 120 7 87 2 c 0
 72 0 69 0 66 5 c 0
 64 8 63 11 63 23 c 0
 63 36 64 37 66 40 c 0
 69 44 70 44 85 46 c 0
 103 48 115 53 120 63 c 0
 125 73 128 96 130 130 c 0
 131 157 131 467 130 495 c 0
 128 529 126 547 122 561 c 0
 118 576 105 585 81 587 c 0
 70 587 68 588 66 592 c 0
 64 595 63 597 63 609 c 0
 63 622 64 624 66 627 c 0
 68 629 70 631 72 631 c 0
 74 632 107 634 146 636 c 0
EndSplineSet
EndChar

StartChar: l
Encoding: 108 108 96
Width: 704
Flags: HW
LayerCount: 2
Fore
SplineSet
299 636 m 0
 414 640 414 640 417 639 c 0
 419 638 420 637 421 635 c 0
 423 632 423 614 423 395 c 0
 423 159 423 138 427 114 c 0
 434 60 450 47 522 45 c 2
 545 45 l 1
 548 42 l 1
 551 39 l 1
 551 23 l 2
 551 9 550 6 549 4 c 0
 545 0 543 0 520 2 c 0
 421 12 317 12 218 2 c 0
 195 0 193 0 190 4 c 0
 188 6 188 9 188 23 c 2
 188 39 l 1
 190 42 l 1
 194 45 l 1
 216 45 l 2
 241 46 252 47 265 50 c 0
 300 58 310 78 314 144 c 0
 315 157 315 216 315 327 c 0
 314 502 314 499 309 529 c 0
 300 573 282 585 216 587 c 2
 194 588 l 1
 190 590 l 1
 188 593 l 1
 188 609 l 2
 188 624 188 626 190 628 c 0
 191 630 195 631 196 632 c 0
 198 632 244 634 299 636 c 0
EndSplineSet
EndChar

StartChar: m
Encoding: 109 109 97
Width: 704
Flags: HW
LayerCount: 2
Fore
SplineSet
93 453 m 4
 160 457 162 457 165 456 c 4
 171 453 171 452 171 403 c 6
 171 359 l 5
 178 373 l 6
 190 399 206 418 225 432 c 4
 236 441 255 450 268 454 c 4
 279 456 282 456 299 456 c 4
 314 456 320 456 330 454 c 4
 356 449 376 437 388 421 c 4
 395 412 405 392 408 380 c 4
 409 375 411 371 411 371 c 5
 411 371 413 374 415 379 c 4
 425 398 443 420 460 432 c 4
 471 441 490 450 503 454 c 4
 514 456 517 456 534 456 c 4
 549 456 554 456 564 454 c 4
 590 449 611 437 623 421 c 4
 630 412 639 392 642 380 c 4
 648 356 648 358 649 230 c 4
 650 112 650 98 654 75 c 4
 655 63 658 59 662 54 c 4
 666 49 671 46 678 45 c 4
 690 44 692 41 692 23 c 4
 692 9 691 4 686 1 c 4
 683 0 682 0 669 2 c 4
 638 8 630 8 593 8 c 4
 556 8 548 8 517 2 c 4
 504 0 503 0 500 1 c 4
 495 4 494 9 494 23 c 4
 494 41 496 44 508 45 c 4
 515 46 520 49 524 54 c 4
 528 59 530 63 531 75 c 4
 535 99 537 114 537 239 c 4
 537 349 536 361 535 372 c 4
 532 394 528 404 522 410 c 6
 519 413 l 5
 511 413 l 6
 483 411 460 396 442 369 c 4
 428 347 419 319 416 287 c 4
 415 271 415 117 417 98 c 4
 418 82 421 64 422 60 c 4
 424 56 430 50 434 48 c 4
 436 47 440 46 443 45 c 4
 455 44 458 41 458 23 c 4
 458 9 457 4 452 1 c 4
 449 0 447 0 434 2 c 4
 403 8 395 8 358 8 c 4
 321 8 314 8 283 2 c 4
 270 0 268 0 265 1 c 4
 260 4 259 9 259 23 c 4
 259 41 261 44 273 45 c 4
 280 46 286 49 290 54 c 4
 294 59 296 63 297 75 c 4
 301 99 302 114 302 239 c 4
 302 349 301 361 300 372 c 4
 297 394 294 404 288 410 c 6
 285 413 l 5
 276 413 l 6
 248 411 226 396 208 369 c 4
 194 347 184 319 181 287 c 4
 180 271 180 117 182 98 c 4
 183 82 186 64 187 60 c 4
 189 56 196 50 200 48 c 4
 202 47 206 46 209 45 c 4
 221 44 223 41 223 23 c 4
 223 9 222 4 217 1 c 4
 214 0 213 0 200 2 c 4
 169 8 161 8 124 8 c 4
 87 8 79 8 48 2 c 4
 35 0 34 0 31 1 c 4
 26 4 25 9 25 23 c 4
 25 41 27 44 39 45 c 4
 42 46 46 47 48 48 c 4
 52 50 58 56 60 60 c 4
 61 64 65 82 66 98 c 4
 68 116 68 283 67 318 c 4
 66 359 62 381 58 389 c 4
 54 397 44 403 36 403 c 4
 32 403 28 407 26 411 c 4
 24 415 24 437 26 442 c 4
 29 448 28 449 93 453 c 4
EndSplineSet
EndChar

StartChar: n
Encoding: 110 110 98
Width: 704
Flags: HW
LayerCount: 2
Fore
SplineSet
142 453 m 4
 220 457 222 457 225 456 c 4
 231 453 231 453 231 396 c 6
 231 344 l 5
 237 353 l 6
 245 368 254 381 266 393 c 4
 297 426 336 446 384 455 c 4
 392 456 399 456 424 456 c 4
 462 456 483 453 506 446 c 4
 518 442 537 433 546 426 c 4
 565 412 580 391 586 365 c 4
 591 342 591 346 592 230 c 4
 592 161 593 118 594 110 c 4
 595 94 598 75 601 68 c 4
 605 55 617 47 639 45 c 4
 648 45 652 43 654 40 c 4
 655 38 655 7 654 5 c 4
 653 4 652 2 650 1 c 4
 647 0 646 0 629 2 c 4
 593 7 572 9 536 9 c 4
 500 9 478 7 442 2 c 4
 425 0 424 0 421 1 c 4
 419 2 418 4 417 5 c 4
 416 7 416 38 417 40 c 4
 419 43 423 45 432 45 c 4
 454 47 466 55 470 68 c 4
 473 75 476 94 477 110 c 4
 479 127 480 319 478 337 c 4
 474 382 458 404 421 411 c 4
 410 413 389 413 378 412 c 4
 340 408 309 393 283 368 c 4
 263 346 249 323 243 294 c 4
 242 286 242 279 242 207 c 4
 242 124 242 109 246 85 c 4
 249 70 251 63 255 58 c 4
 261 50 273 47 288 45 c 4
 297 45 301 43 303 40 c 4
 304 38 304 7 303 5 c 4
 302 4 301 2 299 1 c 4
 296 0 295 0 278 2 c 4
 242 7 220 9 184 9 c 4
 148 9 127 7 91 2 c 4
 74 0 73 0 70 1 c 4
 68 2 67 4 66 5 c 4
 65 7 65 38 66 40 c 4
 68 43 72 45 81 45 c 4
 103 47 115 55 119 68 c 4
 122 76 125 94 126 112 c 4
 128 135 128 309 126 332 c 4
 123 365 120 381 115 388 c 4
 111 393 102 398 96 400 c 4
 94 401 88 402 84 402 c 4
 71 404 70 405 67 407 c 4
 65 410 65 410 65 426 c 4
 65 442 65 442 67 445 c 4
 69 446 71 447 72 447 c 4
 73 448 104 451 142 453 c 4
EndSplineSet
EndChar

StartChar: o
Encoding: 111 111 99
Width: 704
Flags: HW
LayerCount: 2
Fore
SplineSet
327 459 m 0
 336 460 386 459 399 458 c 0
 520 444 601 381 627 282 c 0
 632 262 633 248 633 223 c 0
 633 198 632 188 628 170 c 0
 613 107 573 59 514 29 c 0
 470 6 413 -6 352 -6 c 0
 277 -6 213 10 165 43 c 0
 119 74 89 116 76 170 c 0
 72 188 71 198 71 223 c 0
 71 248 72 262 77 282 c 0
 91 335 120 377 164 408 c 0
 202 436 254 453 309 458 c 0
 316 459 324 459 327 459 c 0
390 414 m 0
 380 415 339 416 331 415 c 0
 291 411 271 404 249 389 c 0
 214 366 199 333 195 276 c 0
 193 253 194 184 196 167 c 0
 201 128 212 101 231 81 c 0
 257 53 300 38 352 38 c 0
 411 38 458 58 483 94 c 0
 489 103 497 120 500 130 c 0
 507 155 509 171 510 220 c 0
 511 289 507 317 494 346 c 0
 477 383 441 406 390 414 c 0
EndSplineSet
EndChar

StartChar: p
Encoding: 112 112 100
Width: 704
Flags: HW
LayerCount: 2
Fore
SplineSet
138 453 m 0
 219 457 220 457 223 456 c 0
 229 454 229 451 229 425 c 2
 229 400 l 1
 243 410 l 2
 263 423 290 436 315 442 c 0
 373 459 434 460 490 447 c 0
 524 439 557 422 584 402 c 0
 595 393 612 375 620 364 c 0
 629 351 644 321 649 305 c 0
 657 278 660 257 660 225 c 0
 660 199 659 188 653 165 c 0
 644 127 622 89 596 65 c 0
 555 27 504 4 438 -4 c 0
 416 -6 373 -6 357 -4 c 0
 315 3 277 19 245 43 c 2
 234 51 l 1
 234 -10 l 2
 235 -44 236 -78 237 -85 c 0
 238 -101 241 -120 244 -127 c 0
 248 -140 260 -148 282 -150 c 0
 291 -150 295 -152 297 -155 c 0
 298 -157 298 -187 297 -189 c 0
 296 -190 295 -193 293 -194 c 0
 290 -195 288 -195 271 -193 c 0
 235 -188 214 -185 178 -185 c 0
 142 -185 121 -188 85 -193 c 0
 68 -195 66 -195 63 -194 c 0
 61 -193 60 -190 59 -189 c 0
 58 -187 58 -157 59 -155 c 0
 61 -152 66 -150 75 -150 c 0
 90 -148 102 -144 108 -136 c 0
 112 -131 114 -125 117 -110 c 0
 121 -84 122 -77 122 125 c 0
 122 322 121 328 117 357 c 0
 114 381 109 390 99 396 c 0
 92 400 89 401 78 402 c 0
 65 404 63 405 60 407 c 0
 58 410 58 410 58 426 c 0
 58 442 58 442 60 445 c 0
 62 446 65 447 66 447 c 0
 67 448 99 451 138 453 c 0
415 411 m 0
 405 412 376 413 364 412 c 0
 327 408 291 394 263 375 c 0
 260 373 252 365 246 359 c 2
 234 349 l 1
 234 230 l 1
 234 112 l 1
 240 104 l 2
 243 101 249 93 254 88 c 0
 290 51 341 33 392 39 c 0
 429 43 459 57 483 80 c 0
 512 108 530 144 536 193 c 0
 538 206 538 249 536 264 c 0
 530 307 517 340 493 367 c 0
 474 389 446 405 415 411 c 0
EndSplineSet
EndChar

StartChar: q
Encoding: 113 113 101
Width: 704
Flags: HW
LayerCount: 2
Fore
SplineSet
302 456 m 0
 312 457 342 457 351 456 c 0
 380 453 407 444 433 432 c 0
 464 417 489 399 508 374 c 0
 512 369 516 365 516 365 c 1
 518 367 l 2
 518 368 532 388 546 412 c 0
 564 440 575 455 577 456 c 0
 580 457 600 457 603 456 c 0
 605 455 606 454 607 452 c 0
 609 449 609 430 609 202 c 0
 609 52 609 -53 610 -65 c 0
 612 -99 616 -121 621 -131 c 0
 626 -141 637 -146 655 -148 c 0
 670 -150 672 -151 675 -155 c 0
 677 -158 677 -159 677 -172 c 0
 677 -184 677 -186 675 -189 c 0
 672 -194 669 -195 649 -193 c 0
 612 -187 598 -186 553 -186 c 0
 508 -186 494 -187 457 -193 c 0
 437 -195 434 -194 431 -189 c 0
 429 -186 429 -184 429 -172 c 0
 429 -159 429 -158 431 -155 c 0
 434 -151 436 -150 451 -148 c 0
 469 -146 480 -141 485 -131 c 0
 493 -115 497 -78 497 10 c 2
 497 66 l 1
 489 59 l 2
 456 30 416 10 373 1 c 0
 349 -5 340 -5 310 -5 c 0
 295 -5 277 -5 272 -4 c 0
 205 4 159 22 118 57 c 0
 81 88 55 136 46 190 c 0
 44 206 44 243 46 259 c 0
 59 336 101 391 173 425 c 0
 190 434 207 439 226 444 c 0
 250 450 269 454 302 456 c 0
377 411 m 0
 368 412 338 413 332 412 c 0
 330 412 323 412 318 411 c 0
 275 406 236 385 211 354 c 0
 187 326 176 298 170 257 c 0
 168 243 168 202 170 188 c 0
 177 141 194 106 223 79 c 0
 245 59 271 46 306 40 c 0
 316 38 350 38 361 40 c 0
 417 49 466 81 497 130 c 2
 502 138 l 1
 502 219 l 1
 502 300 l 1
 499 308 l 2
 491 328 478 348 460 366 c 0
 447 380 434 388 419 396 c 0
 407 401 388 408 377 411 c 0
EndSplineSet
EndChar

StartChar: r
Encoding: 114 114 102
Width: 704
Flags: HW
LayerCount: 2
Fore
SplineSet
187 453 m 0
 229 455 267 457 270 457 c 0
 278 457 282 456 284 452 c 0
 286 449 286 442 286 380 c 2
 286 311 l 1
 293 325 l 2
 303 345 317 362 333 379 c 0
 372 417 426 444 484 453 c 0
 512 457 544 458 563 455 c 0
 593 449 620 435 636 418 c 0
 643 410 651 392 653 381 c 0
 658 356 651 330 636 315 c 0
 622 302 605 295 585 295 c 0
 550 295 522 316 516 349 c 0
 512 369 515 391 526 407 c 2
 530 413 l 1
 526 413 l 2
 509 413 479 408 459 403 c 0
 410 391 371 370 341 339 c 0
 319 317 307 295 300 269 c 0
 296 251 295 243 295 199 c 0
 295 139 297 111 302 89 c 0
 311 56 327 47 377 45 c 0
 387 45 397 44 398 44 c 0
 403 42 404 39 404 23 c 0
 404 11 404 7 402 5 c 0
 399 0 399 0 371 2 c 0
 331 7 305 8 260 9 c 0
 206 9 172 8 125 2 c 0
 107 0 104 0 101 5 c 0
 99 8 99 11 99 23 c 0
 99 35 99 37 101 40 c 0
 102 42 104 43 105 44 c 0
 106 44 115 45 122 45 c 0
 154 47 168 54 175 69 c 0
 181 81 184 102 186 137 c 0
 187 165 187 308 185 325 c 0
 183 351 179 368 175 378 c 0
 169 394 152 401 121 403 c 0
 114 403 106 404 105 404 c 0
 104 405 102 407 101 409 c 0
 99 412 99 414 99 426 c 0
 99 439 99 440 101 443 c 0
 103 445 106 447 108 447 c 0
 110 448 145 451 187 453 c 0
EndSplineSet
EndChar

StartChar: s
Encoding: 115 115 103
Width: 704
Flags: HW
LayerCount: 2
Fore
SplineSet
311 459 m 0
 327 460 405 459 420 458 c 0
 455 454 482 447 504 438 c 2
 512 435 l 1
 530 445 l 2
 555 459 554 460 561 460 c 0
 568 460 572 458 574 454 c 0
 577 450 577 330 574 326 c 0
 572 321 569 319 555 319 c 0
 536 319 533 322 532 338 c 0
 530 357 525 371 513 383 c 0
 504 392 493 399 478 404 c 0
 446 415 410 420 338 419 c 0
 276 418 250 414 216 402 c 0
 202 397 191 391 184 384 c 0
 175 375 172 368 173 357 c 0
 173 347 175 342 180 334 c 0
 189 324 212 314 243 308 c 0
 248 308 291 302 339 296 c 0
 429 285 446 281 470 275 c 0
 515 265 549 249 575 226 c 0
 600 206 613 178 615 146 c 0
 617 99 592 56 548 31 c 0
 505 5 447 -6 362 -6 c 0
 285 -6 231 6 187 33 c 0
 182 36 179 37 179 36 c 0
 174 33 125 -3 123 -4 c 0
 119 -6 107 -7 103 -4 c 0
 97 -1 97 -4 97 78 c 0
 97 161 97 158 103 161 c 0
 105 163 110 163 120 163 c 0
 137 163 137 163 142 150 c 0
 167 87 216 52 296 42 c 0
 334 37 394 37 433 42 c 0
 470 46 503 58 519 71 c 0
 526 77 535 88 538 95 c 0
 541 103 541 120 538 127 c 0
 531 144 513 158 484 166 c 0
 459 174 448 175 351 188 c 0
 313 192 274 198 264 200 c 0
 201 211 156 228 128 254 c 0
 118 264 111 273 106 284 c 0
 99 299 98 307 98 325 c 0
 98 338 98 342 100 349 c 0
 102 360 111 377 117 386 c 0
 142 422 191 446 262 455 c 0
 271 457 291 458 311 459 c 0
EndSplineSet
EndChar

StartChar: t
Encoding: 116 116 104
Width: 704
Flags: HW
LayerCount: 2
Fore
SplineSet
270 639 m 0
 273 640 299 640 301 639 c 0
 303 638 304 637 305 635 c 0
 307 632 307 624 307 542 c 2
 307 451 l 1
 435 451 l 2
 526 451 565 451 566 450 c 0
 571 448 572 443 572 428 c 0
 572 413 571 409 566 407 c 0
 565 406 526 406 435 406 c 2
 307 406 l 1
 307 256 l 1
 308 106 l 1
 310 98 l 2
 321 62 352 43 406 39 c 0
 477 33 534 54 553 93 c 0
 558 104 559 110 559 143 c 0
 559 182 558 181 581 181 c 0
 605 181 603 183 603 138 c 0
 602 107 602 103 600 96 c 0
 597 85 594 78 589 68 c 0
 583 58 565 40 553 32 c 0
 526 14 489 2 447 -4 c 0
 430 -6 391 -7 366 -5 c 0
 321 -2 290 4 261 19 c 0
 241 28 225 42 215 56 c 0
 209 65 201 82 198 94 c 2
 196 104 l 1
 195 255 l 1
 195 406 l 1
 119 406 l 2
 65 406 41 406 40 407 c 0
 35 409 34 413 34 429 c 0
 34 443 35 443 37 446 c 0
 40 448 41 449 54 450 c 0
 62 451 74 452 80 452 c 0
 169 464 239 518 257 588 c 0
 260 599 262 609 263 623 c 0
 264 634 265 637 270 639 c 0
EndSplineSet
EndChar

StartChar: u
Encoding: 117 117 105
Width: 704
Flags: HW
LayerCount: 2
Fore
SplineSet
147 453 m 0
 187 455 222 457 226 457 c 0
 233 457 237 456 239 452 c 0
 241 449 241 435 241 274 c 0
 241 155 241 96 242 88 c 0
 243 76 247 63 251 58 c 0
 257 50 273 43 292 40 c 0
 305 38 345 37 358 39 c 0
 393 43 422 57 445 81 c 0
 460 97 470 112 476 134 c 2
 479 144 l 1
 478 230 l 2
 478 316 478 330 474 357 c 0
 471 381 467 390 457 396 c 0
 450 400 446 401 435 402 c 0
 422 404 421 405 418 407 c 0
 416 410 416 410 416 426 c 0
 416 434 416 442 417 443 c 0
 420 448 420 449 503 453 c 0
 565 456 584 457 586 456 c 0
 592 453 592 464 592 288 c 0
 593 126 593 119 597 92 c 0
 600 67 604 58 614 52 c 0
 621 48 625 47 637 46 c 0
 649 44 650 44 653 42 c 0
 655 39 655 39 655 23 c 0
 655 15 655 6 654 5 c 0
 651 0 651 0 570 -3 c 0
 512 -5 492 -6 490 -5 c 0
 484 -3 484 -2 484 43 c 2
 484 84 l 1
 479 76 l 2
 454 38 410 9 362 -1 c 0
 343 -6 330 -6 298 -6 c 0
 241 -5 210 2 179 20 c 0
 162 29 150 43 141 61 c 0
 136 72 134 78 131 91 c 0
 129 100 129 105 128 211 c 0
 127 319 127 331 123 356 c 0
 120 381 115 390 105 396 c 0
 98 400 95 401 84 402 c 0
 71 404 70 405 67 407 c 0
 65 410 65 410 65 426 c 0
 65 442 65 442 67 445 c 0
 69 446 71 447 72 447 c 0
 73 448 106 451 147 453 c 0
EndSplineSet
EndChar

StartChar: v
Encoding: 118 118 106
Width: 704
Flags: HW
LayerCount: 2
Fore
SplineSet
40 450 m 0
 42 451 41 451 57 449 c 0
 83 444 98 442 129 441 c 0
 168 441 196 443 234 449 c 0
 256 452 257 451 257 428 c 0
 257 410 256 408 246 406 c 0
 244 405 243 403 241 399 c 0
 236 385 247 349 275 298 c 0
 280 290 307 243 336 193 c 2
 388 102 l 1
 394 112 l 1
 440 191 469 243 485 279 c 0
 511 331 530 386 530 401 c 0
 530 404 530 406 527 407 c 0
 521 409 520 412 520 428 c 0
 520 451 523 453 541 449 c 0
 560 444 573 442 595 441 c 0
 618 441 630 442 648 447 c 0
 660 450 664 450 668 447 c 2
 671 444 l 1
 671 428 l 2
 671 412 670 412 668 410 c 0
 666 408 663 407 659 406 c 0
 651 405 646 401 638 396 c 0
 618 380 578 328 539 269 c 0
 522 241 492 193 437 99 c 0
 385 9 384 7 374 1 c 0
 356 -10 330 -5 317 11 c 0
 316 13 280 76 236 152 c 0
 152 296 139 317 122 343 c 0
 92 390 77 403 47 406 c 0
 40 407 38 407 36 409 c 0
 34 412 34 412 34 428 c 0
 34 442 34 444 36 446 c 0
 37 447 38 450 40 450 c 0
EndSplineSet
EndChar

StartChar: w
Encoding: 119 119 107
Width: 704
Flags: HW
LayerCount: 2
Fore
SplineSet
29 450 m 0
 31 451 31 451 45 449 c 0
 67 444 79 442 108 441 c 0
 144 441 180 444 218 449 c 0
 241 452 242 451 242 428 c 0
 242 417 242 413 240 411 c 0
 238 408 234 406 230 406 c 0
 222 406 212 398 207 389 c 0
 201 376 202 347 210 312 c 0
 213 301 225 264 243 210 c 0
 258 164 271 125 271 124 c 0
 271 123 288 151 307 187 c 0
 341 246 344 252 350 258 c 0
 359 267 366 269 379 269 c 0
 387 269 388 269 394 266 c 0
 407 260 408 260 452 180 c 0
 478 135 494 107 494 108 c 0
 496 112 525 201 529 218 c 0
 543 267 551 305 553 350 c 0
 554 372 554 386 551 395 c 0
 549 401 545 406 541 406 c 0
 539 406 537 407 535 407 c 0
 531 409 529 413 529 428 c 0
 529 451 530 452 552 449 c 0
 576 444 589 442 613 441 c 0
 637 441 648 442 663 447 c 0
 671 450 673 451 675 450 c 0
 680 448 681 445 681 428 c 0
 681 409 680 408 670 406 c 0
 661 404 650 387 633 353 c 0
 616 318 602 286 585 237 c 0
 579 222 530 77 514 28 c 0
 508 13 505 6 499 1 c 0
 485 -9 463 -6 451 8 c 0
 448 11 430 41 400 96 c 0
 374 141 353 179 353 180 c 0
 352 182 344 169 304 97 c 0
 273 41 256 11 253 8 c 0
 250 5 246 2 241 -1 c 0
 234 -4 232 -4 224 -4 c 0
 217 -4 214 -4 211 -2 c 0
 206 0 199 6 197 11 c 0
 196 13 176 73 151 145 c 0
 126 218 102 288 98 301 c 0
 82 348 67 381 59 391 c 0
 54 398 46 403 38 404 c 0
 35 405 31 406 30 407 c 0
 29 407 27 408 25 410 c 0
 23 412 23 413 23 428 c 0
 23 444 23 447 29 450 c 0
EndSplineSet
EndChar

StartChar: x
Encoding: 120 120 108
Width: 704
Flags: HW
LayerCount: 2
Fore
SplineSet
45 449 m 0
 48 451 47 451 63 449 c 0
 90 444 105 442 135 441 c 0
 172 441 202 444 239 449 c 0
 252 451 253 451 256 450 c 0
 261 447 262 442 262 428 c 0
 262 419 262 415 260 412 c 2
 259 408 l 1
 264 399 l 2
 282 371 315 333 353 293 c 2
 365 282 l 1
 377 294 l 2
 412 331 459 384 471 401 c 0
 474 407 475 409 474 411 c 0
 473 413 473 442 474 445 c 0
 475 446 476 449 478 450 c 0
 481 451 483 451 496 449 c 0
 519 444 531 442 556 441 c 0
 584 441 599 442 621 446 c 0
 638 450 641 450 645 447 c 2
 648 444 l 1
 648 428 l 2
 648 412 647 412 645 410 c 0
 643 407 641 407 633 406 c 0
 605 402 575 383 505 331 c 0
 474 307 402 250 401 247 c 0
 400 246 510 143 545 111 c 0
 601 61 620 48 655 45 c 0
 663 44 666 44 668 42 c 0
 670 39 671 39 671 23 c 0
 671 9 670 6 669 4 c 0
 665 0 662 0 646 2 c 0
 620 7 607 8 577 9 c 0
 539 9 510 8 471 2 c 0
 449 -1 449 0 449 23 c 0
 449 35 449 38 451 40 c 0
 452 42 451 42 445 51 c 0
 427 80 391 123 354 161 c 2
 333 182 l 1
 315 165 l 2
 275 124 225 67 213 49 c 0
 208 42 208 42 210 39 c 0
 211 37 211 33 211 22 c 0
 211 8 210 6 208 4 c 0
 205 0 201 0 187 2 c 0
 161 7 150 8 119 8 c 0
 87 9 79 8 56 2 c 0
 46 0 44 0 42 1 c 0
 36 3 36 6 36 23 c 0
 36 39 36 39 38 42 c 0
 41 44 41 44 53 46 c 0
 77 49 106 66 167 112 c 0
 200 136 234 163 275 197 c 0
 286 207 296 215 296 215 c 2
 297 216 286 227 242 269 c 0
 171 337 135 369 112 385 c 0
 95 396 73 404 56 406 c 0
 47 406 43 408 41 411 c 0
 40 413 40 443 41 445 c 0
 42 446 43 449 45 449 c 0
EndSplineSet
EndChar

StartChar: y
Encoding: 121 121 109
Width: 704
Flags: HW
LayerCount: 2
Fore
SplineSet
38 449 m 0
 40 450 42 451 42 451 c 2
 43 451 49 450 57 449 c 0
 84 444 99 442 129 441 c 0
 167 441 197 444 234 449 c 0
 247 451 249 451 252 450 c 0
 257 447 258 442 258 428 c 0
 258 411 256 408 248 406 c 0
 241 405 239 391 243 376 c 0
 248 358 263 326 280 295 c 0
 284 287 310 242 338 194 c 0
 378 125 389 108 390 109 c 0
 391 111 439 190 452 214 c 0
 472 252 494 295 507 328 c 0
 520 362 528 386 530 399 c 0
 530 405 530 406 528 406 c 0
 526 407 524 408 522 410 c 0
 520 412 520 413 520 428 c 0
 520 445 521 448 526 450 c 0
 528 451 532 451 541 449 c 0
 564 444 574 442 600 442 c 0
 626 441 632 443 652 449 c 0
 660 451 662 451 665 450 c 0
 670 447 671 442 671 428 c 0
 671 410 668 407 657 406 c 0
 647 404 637 397 623 382 c 0
 604 362 567 313 541 273 c 0
 515 235 507 220 410 54 c 0
 365 -22 323 -90 318 -99 c 0
 284 -149 249 -181 209 -195 c 0
 169 -207 117 -200 85 -176 c 0
 67 -162 56 -142 57 -120 c 0
 59 -97 75 -82 99 -82 c 0
 117 -82 130 -89 137 -105 c 0
 140 -111 141 -113 141 -123 c 0
 141 -135 139 -140 134 -148 c 0
 132 -150 131 -153 132 -153 c 0
 137 -157 177 -158 189 -155 c 0
 221 -147 249 -124 273 -89 c 0
 280 -78 326 -2 326 0 c 0
 326 1 170 267 148 303 c 0
 135 326 117 354 109 365 c 0
 95 384 84 393 71 399 c 0
 65 402 51 406 45 406 c 0
 40 406 36 409 34 413 c 0
 33 417 32 438 34 443 c 0
 35 445 37 448 38 449 c 0
EndSplineSet
EndChar

StartChar: z
Encoding: 122 122 110
Width: 704
Flags: HW
LayerCount: 2
Fore
SplineSet
86 450 m 0
 87 451 206 451 350 451 c 0
 556 451 614 451 617 450 c 0
 623 448 630 441 632 435 c 0
 634 428 633 417 631 412 c 0
 629 408 592 376 420 226 c 2
 211 45 l 1
 299 44 l 2
 407 44 439 45 473 51 c 0
 485 53 504 57 513 61 c 0
 555 78 584 123 592 189 c 0
 594 202 596 207 600 209 c 0
 603 210 629 210 632 209 c 0
 634 208 636 206 637 204 c 0
 638 201 638 198 629 104 c 0
 621 32 617 7 616 5 c 0
 615 3 614 2 612 1 c 0
 609 -1 64 0 59 1 c 0
 53 3 47 9 45 15 c 0
 43 22 44 34 46 39 c 0
 48 43 85 74 257 225 c 2
 466 407 l 1
 383 407 l 2
 275 407 243 405 209 398 c 0
 184 394 171 388 158 378 c 0
 132 358 116 325 111 283 c 0
 110 272 107 267 103 265 c 0
 100 264 75 264 72 265 c 0
 70 266 68 268 67 269 c 0
 66 273 66 275 72 352 c 0
 75 395 78 434 79 437 c 0
 80 444 82 448 86 450 c 0
EndSplineSet
EndChar

StartChar: braceleft
Encoding: 123 123 111
Width: 704
Flags: HW
LayerCount: 2
Fore
SplineSet
526 758 m 0
 530 758 549 759 566 759 c 0
 594 759 600 759 602 757 c 0
 607 755 608 751 608 737 c 0
 608 723 607 719 602 717 c 0
 600 716 593 715 579 715 c 0
 481 712 427 690 412 648 c 2
 410 641 l 1
 409 505 l 2
 408 381 408 367 407 361 c 0
 401 336 390 319 375 304 c 0
 353 285 321 268 283 259 c 0
 277 258 270 256 270 256 c 1
 270 256 277 254 283 253 c 0
 329 242 370 220 387 194 c 0
 392 187 400 171 402 163 c 0
 408 147 408 154 409 8 c 2
 410 -128 l 1
 412 -136 l 1
 427 -178 481 -200 579 -203 c 0
 593 -203 600 -204 602 -205 c 0
 607 -207 608 -211 608 -225 c 0
 608 -239 607 -243 602 -246 c 0
 599 -247 595 -247 556 -247 c 0
 486 -246 447 -241 409 -231 c 0
 390 -227 378 -223 362 -215 c 0
 326 -198 306 -174 298 -140 c 0
 297 -133 297 -123 296 4 c 2
 295 141 l 1
 293 148 l 2
 286 172 269 192 243 206 c 0
 212 222 162 233 119 233 c 0
 105 233 98 236 96 241 c 0
 95 244 95 268 96 271 c 0
 98 276 105 279 119 279 c 0
 162 279 212 290 243 306 c 0
 269 320 286 340 293 364 c 2
 295 372 l 1
 296 508 l 2
 297 635 297 645 298 652 c 0
 306 686 326 710 362 727 c 0
 378 735 390 739 409 743 c 0
 440 751 479 757 526 758 c 0
EndSplineSet
EndChar

StartChar: bar
Encoding: 124 124 112
Width: 704
Flags: HW
LayerCount: 2
Fore
SplineSet
342 757 m 0
 348 759 356 759 362 757 c 0
 369 755 377 746 379 739 c 0
 381 734 381 689 381 256 c 0
 381 -177 381 -222 379 -227 c 0
 376 -238 364 -247 352 -247 c 0
 340 -247 329 -238 326 -227 c 0
 324 -222 324 -177 324 256 c 0
 324 689 324 734 326 739 c 0
 328 746 335 755 342 757 c 0
EndSplineSet
EndChar

StartChar: braceright
Encoding: 125 125 113
Width: 704
Flags: HW
LayerCount: 2
Fore
SplineSet
101 758 m 0
 103 759 109 759 147 759 c 0
 171 758 198 758 207 757 c 0
 295 751 349 733 381 700 c 0
 393 687 402 670 407 652 c 0
 408 645 408 635 409 508 c 2
 410 372 l 1
 412 364 l 2
 423 328 457 301 512 288 c 0
 535 283 563 279 585 279 c 0
 599 279 605 276 607 271 c 0
 608 268 608 244 607 241 c 0
 605 236 599 233 585 233 c 0
 563 233 535 229 512 224 c 0
 457 211 423 184 412 148 c 2
 410 141 l 1
 409 4 l 2
 408 -148 408 -138 401 -156 c 0
 385 -199 340 -227 266 -238 c 0
 231 -244 204 -246 147 -247 c 0
 109 -247 104 -247 101 -246 c 0
 96 -243 95 -239 95 -225 c 0
 95 -205 98 -203 115 -203 c 0
 121 -203 134 -203 144 -202 c 0
 230 -197 280 -175 293 -136 c 2
 296 -128 l 1
 296 8 l 2
 297 154 296 147 302 163 c 0
 304 171 312 188 317 195 c 0
 336 221 376 242 422 253 c 0
 428 254 434 256 434 256 c 1
 434 256 428 258 422 259 c 0
 376 270 336 291 317 317 c 0
 312 324 304 341 302 349 c 0
 296 365 297 358 296 505 c 2
 296 641 l 1
 293 648 l 2
 280 687 230 709 144 714 c 0
 134 715 121 715 115 715 c 0
 98 715 95 717 95 737 c 0
 95 750 96 755 101 758 c 0
EndSplineSet
EndChar

StartChar: tilde
Encoding: 732 732 114
Width: 704
Flags: HW
LayerCount: 2
Fore
SplineSet
263 639 m 0
 273 640 301 639 311 638 c 0
 327 634 342 629 374 617 c 0
 396 609 410 605 422 602 c 0
 463 594 503 604 551 635 c 0
 558 639 560 640 563 640 c 0
 568 639 570 638 578 626 c 0
 586 615 587 610 585 606 c 0
 583 603 547 577 525 564 c 0
 499 550 476 540 452 535 c 0
 443 533 437 532 422 532 c 0
 392 532 379 535 330 554 c 0
 308 562 294 566 283 569 c 0
 241 577 201 568 153 537 c 0
 146 533 143 531 140 531 c 0
 135 532 134 534 126 546 c 0
 118 557 117 561 119 565 c 0
 121 568 157 594 179 607 c 0
 208 624 236 635 263 639 c 0
EndSplineSet
EndChar

StartChar: dieresis
Encoding: 168 168 115
Width: 704
Flags: HW
LayerCount: 2
Fore
SplineSet
200 640 m 0
 209 642 228 641 237 638 c 0
 272 627 292 593 284 560 c 0
 281 548 275 538 266 528 c 0
 257 520 248 515 236 511 c 0
 230 509 225 509 215 509 c 0
 205 509 201 509 195 511 c 0
 169 519 151 536 145 561 c 0
 143 570 144 585 147 594 c 0
 154 617 174 634 200 640 c 0
475 640 m 0
 483 642 502 640 510 638 c 0
 542 628 560 602 559 571 c 0
 558 554 552 540 540 529 c 0
 531 519 517 512 503 509 c 0
 493 507 477 508 468 511 c 0
 432 522 412 556 420 589 c 0
 423 601 428 611 437 621 c 0
 448 631 460 637 475 640 c 0
EndSplineSet
EndChar

StartChar: uni0308
Encoding: 776 776 116
Width: 704
Flags: HW
LayerCount: 2
Fore
SplineSet
200 640 m 0
 209 642 228 641 237 638 c 0
 272 627 292 593 284 560 c 0
 281 548 275 538 266 528 c 0
 257 520 248 515 236 511 c 0
 230 509 225 509 215 509 c 0
 205 509 201 509 195 511 c 0
 169 519 151 536 145 561 c 0
 143 570 144 585 147 594 c 0
 154 617 174 634 200 640 c 0
475 640 m 0
 483 642 502 640 510 638 c 0
 542 628 560 602 559 571 c 0
 558 554 552 540 540 529 c 0
 531 519 517 512 503 509 c 0
 493 507 477 508 468 511 c 0
 432 522 412 556 420 589 c 0
 423 601 428 611 437 621 c 0
 448 631 460 637 475 640 c 0
EndSplineSet
EndChar

StartChar: uni0304
Encoding: 772 772 117
Width: 704
Flags: HW
LayerCount: 2
Fore
SplineSet
102 587 m 0
 105 588 597 588 600 587 c 0
 605 585 606 582 606 559 c 0
 606 536 605 533 600 531 c 0
 598 530 522 530 350 530 c 2
 103 531 l 1
 100 534 l 1
 98 537 l 1
 97 558 l 2
 97 576 97 580 99 583 c 0
 99 584 101 586 102 587 c 0
EndSplineSet
EndChar

StartChar: uni0305
Encoding: 773 773 118
Width: 704
Flags: HW
LayerCount: 2
Fore
SplineSet
94 -242 m 0
 98 -240 124 -240 351 -240 c 0
 637 -240 610 -239 620 -249 c 0
 631 -260 631 -277 620 -288 c 0
 610 -298 637 -297 351 -297 c 0
 66 -297 94 -298 84 -288 c 0
 76 -281 74 -270 78 -259 c 0
 80 -252 87 -244 94 -242 c 0
EndSplineSet
EndChar

StartChar: uni0306
Encoding: 774 774 119
Width: 704
Flags: HW
LayerCount: 2
Fore
SplineSet
141 639 m 0
 144 640 170 640 172 639 c 0
 176 637 178 633 178 628 c 0
 178 617 185 605 193 598 c 0
 208 586 230 579 274 575 c 0
 292 573 411 573 430 575 c 0
 473 579 496 586 511 598 c 0
 519 605 525 617 525 628 c 0
 525 633 527 637 531 639 c 0
 534 640 560 640 563 639 c 0
 569 636 570 628 568 613 c 0
 565 594 556 576 542 561 c 0
 520 537 477 520 426 512 c 0
 400 508 388 508 352 508 c 0
 315 508 304 508 278 512 c 0
 218 521 173 543 151 574 c 0
 143 585 137 600 135 614 c 0
 133 628 135 637 141 639 c 0
EndSplineSet
EndChar

StartChar: uni030A
Encoding: 778 778 120
Width: 704
Flags: HW
LayerCount: 2
Fore
SplineSet
329 648 m 0
 340 649 374 648 384 647 c 0
 407 643 423 635 435 624 c 0
 448 610 454 594 451 577 c 0
 448 561 434 545 417 537 c 0
 398 527 382 524 352 524 c 0
 321 524 306 527 287 537 c 0
 270 545 256 561 253 577 c 0
 250 593 255 610 268 623 c 0
 282 637 302 645 329 648 c 0
379 616 m 0
 374 617 361 617 350 617 c 0
 314 617 305 614 299 602 c 0
 297 598 297 596 297 587 c 0
 297 560 306 555 351 555 c 0
 397 555 407 560 407 587 c 0
 407 607 401 613 379 616 c 0
EndSplineSet
EndChar

StartChar: tildecomb
Encoding: 771 771 121
Width: 704
Flags: HW
LayerCount: 2
Fore
SplineSet
263 639 m 0
 273 640 301 639 311 638 c 0
 327 634 342 629 374 617 c 0
 396 609 410 605 422 602 c 0
 463 594 503 604 551 635 c 0
 558 639 560 640 563 640 c 0
 568 639 570 638 578 626 c 0
 586 615 587 610 585 606 c 0
 583 603 547 577 525 564 c 0
 499 550 476 540 452 535 c 0
 443 533 437 532 422 532 c 0
 392 532 379 535 330 554 c 0
 308 562 294 566 283 569 c 0
 241 577 201 568 153 537 c 0
 146 533 143 531 140 531 c 0
 135 532 134 534 126 546 c 0
 118 557 117 561 119 565 c 0
 121 568 157 594 179 607 c 0
 208 624 236 635 263 639 c 0
EndSplineSet
EndChar

StartChar: acutecomb
Encoding: 769 769 122
Width: 704
Flags: HW
LayerCount: 2
Fore
SplineSet
492 644 m 0
 514 648 538 635 548 613 c 0
 553 603 555 595 555 584 c 0
 555 560 544 543 520 534 c 0
 515 532 315 493 309 493 c 0
 305 493 301 496 300 499 c 0
 299 501 297 507 294 513 c 0
 290 524 290 528 294 531 c 0
 298 535 474 639 480 641 c 0
 484 642 489 644 492 644 c 0
EndSplineSet
EndChar

StartChar: gravecomb
Encoding: 768 768 123
Width: 704
Flags: HW
LayerCount: 2
Fore
SplineSet
193 643 m 0
 201 646 212 645 222 641 c 0
 227 639 254 624 319 586 c 0
 367 557 409 532 410 531 c 0
 414 528 414 524 410 513 c 0
 407 507 404 501 403 499 c 0
 402 496 398 493 394 493 c 0
 388 493 188 532 183 534 c 0
 159 543 148 560 148 584 c 0
 148 595 151 603 156 613 c 0
 163 627 178 640 193 643 c 0
EndSplineSet
EndChar

StartChar: uni0327
Encoding: 807 807 124
Width: 704
Flags: HW
LayerCount: 2
Fore
SplineSet
344 7 m 0
 347 9 350 9 395 9 c 0
 446 9 448 9 451 4 c 0
 452 3 452 -3 452 -8 c 2
 452 -19 l 1
 465 -20 l 2
 522 -25 562 -44 577 -72 c 0
 584 -86 586 -106 582 -119 c 0
 570 -163 505 -184 365 -191 c 0
 337 -192 219 -195 216 -194 c 0
 214 -193 212 -191 210 -189 c 0
 208 -187 208 -186 208 -172 c 0
 208 -155 209 -154 214 -151 c 0
 215 -150 226 -150 249 -150 c 0
 372 -150 441 -139 464 -120 c 0
 469 -115 471 -110 471 -103 c 0
 471 -87 459 -76 439 -69 c 0
 425 -64 393 -60 362 -60 c 0
 338 -60 339 -61 339 -26 c 0
 339 1 339 4 344 7 c 0
EndSplineSet
EndChar

StartChar: uni0302
Encoding: 770 770 125
Width: 704
Flags: HW
LayerCount: 2
Fore
SplineSet
340 635 m 0
 345 638 350 640 352 640 c 0
 355 640 537 545 540 542 c 0
 544 538 544 533 538 519 c 0
 533 508 531 506 528 505 c 2
 524 503 l 1
 438 529 l 1
 352 556 l 1
 265 529 l 1
 179 503 l 1
 175 505 l 2
 172 506 171 508 166 519 c 0
 160 533 160 538 164 542 c 0
 166 544 218 572 340 635 c 0
EndSplineSet
EndChar

StartChar: uni030C
Encoding: 780 780 126
Width: 704
Flags: HW
LayerCount: 2
Fore
SplineSet
174 603 m 0
 176 603 178 604 180 604 c 0
 181 603 220 597 267 589 c 2
 352 574 l 1
 438 589 l 2
 517 603 525 604 528 603 c 0
 530 602 533 601 534 600 c 0
 534 599 537 593 539 586 c 0
 543 571 543 566 538 563 c 0
 537 562 493 544 443 525 c 0
 377 499 351 489 350 490 c 0
 341 492 166 562 165 564 c 0
 161 567 162 572 165 586 c 0
 168 593 170 599 170 600 c 0
 171 601 173 602 174 603 c 0
EndSplineSet
EndChar

StartChar: guillemotleft
Encoding: 171 171 400
Width: 704
Flags: HW
LayerCount: 2
Fore
SplineSet
371 588 m 0
 374 589 382 589 387 587 c 0
 394 585 401 576 404 568 c 0
 406 561 405 554 402 548 c 0
 401 545 355 497 260 400 c 0
 183 321 120 256 120 256 c 1
 120 256 183 191 260 112 c 0
 355 15 401 -33 402 -36 c 0
 403 -38 405 -42 406 -45 c 0
 408 -68 384 -84 364 -74 c 0
 361 -72 327 -38 208 84 c 0
 100 193 55 240 53 244 c 0
 51 248 51 250 51 256 c 0
 51 262 51 264 53 268 c 0
 55 272 100 319 208 428 c 0
 362 586 362 585 371 588 c 0
621 588 m 0
 633 592 648 584 654 571 c 0
 657 565 657 555 654 548 c 0
 652 544 625 516 511 399 c 0
 434 320 371 256 371 256 c 1
 371 256 434 192 511 113 c 0
 625 -4 652 -32 654 -36 c 0
 657 -43 657 -53 654 -59 c 0
 647 -74 628 -81 614 -73 c 0
 611 -71 562 -22 459 84 c 0
 339 206 307 239 305 244 c 0
 302 248 302 251 302 256 c 0
 302 261 302 264 305 268 c 0
 307 273 339 306 458 428 c 0
 541 512 610 583 612 584 c 0
 615 586 619 587 621 588 c 0
EndSplineSet
EndChar

StartChar: guillemotright
Encoding: 187 187 401
Width: 704
Flags: HW
LayerCount: 2
Fore
SplineSet
69 587 m 0
 75 590 85 589 91 586 c 0
 97 583 398 275 402 268 c 0
 404 264 406 262 406 256 c 0
 406 250 404 248 402 244 c 0
 398 237 97 -71 91 -74 c 0
 85 -77 77 -78 70 -75 c 0
 62 -73 54 -64 51 -56 c 0
 49 -49 50 -42 53 -36 c 0
 54 -33 101 15 196 112 c 0
 273 191 336 255 336 256 c 0
 336 257 273 321 196 400 c 0
 101 497 54 545 53 548 c 0
 50 554 49 561 51 568 c 0
 54 576 62 585 69 587 c 0
322 588 m 0
 327 590 334 589 341 587 c 0
 346 585 354 576 499 429 c 0
 624 302 652 272 654 268 c 0
 657 261 657 251 654 244 c 0
 652 240 624 210 499 83 c 0
 353 -67 346 -73 340 -75 c 0
 325 -81 307 -71 302 -55 c 0
 300 -48 301 -42 305 -35 c 0
 307 -31 343 7 447 113 c 0
 524 192 588 256 588 256 c 1
 588 256 524 320 447 399 c 0
 370 478 306 544 305 546 c 0
 302 552 300 559 302 565 c 0
 304 575 312 584 322 588 c 0
EndSplineSet
EndChar

StartChar: sterling
Encoding: 163 163 402
Width: 704
Flags: HW
LayerCount: 2
Fore
SplineSet
431 655 m 4
 470 658 505 654 535 640 c 4
 593 614 633 563 641 502 c 4
 644 477 642 459 633 443 c 4
 611 400 548 391 512 427 c 4
 493 446 487 481 497 509 c 4
 507 537 534 555 565 555 c 6
 573 555 l 5
 569 560 l 6
 543 592 507 610 466 612 c 4
 416 614 381 593 370 553 c 4
 364 534 363 531 362 433 c 6
 362 343 l 5
 413 343 l 6
 462 343 463 343 465 341 c 4
 470 337 471 333 471 321 c 4
 471 309 470 304 465 300 c 4
 463 298 462 298 413 298 c 6
 362 298 l 5
 362 219 l 6
 361 142 361 140 359 130 c 4
 358 124 356 115 354 111 c 4
 351 103 351 101 353 101 c 4
 395 88 445 76 471 72 c 4
 504 67 541 65 560 68 c 4
 584 73 600 80 613 93 c 4
 623 103 629 114 629 127 c 4
 629 131 631 136 635 137 c 4
 639 140 663 140 667 137 c 4
 673 134 674 126 671 109 c 4
 667 82 655 61 636 42 c 4
 603 11 556 -6 505 -6 c 4
 461 -6 421 1 335 26 c 6
 300 35 l 5
 292 30 l 6
 253 5 201 -7 145 -6 c 4
 101 -4 77 6 66 28 c 4
 63 34 62 36 61 44 c 4
 60 62 68 80 81 93 c 4
 98 109 123 120 159 126 c 4
 174 128 217 128 236 126 c 4
 243 125 248 125 249 125 c 5
 249 126 250 165 250 212 c 6
 250 298 l 5
 215 298 l 6
 178 298 177 298 174 304 c 4
 171 308 171 333 174 337 c 4
 177 343 178 343 215 343 c 6
 250 343 l 5
 250 423 l 6
 251 508 251 504 256 526 c 4
 262 551 277 578 294 596 c 4
 327 630 374 650 431 655 c 4
188 55 m 4
 155 57 131 55 125 50 c 4
 122 47 122 46 125 43 c 4
 128 40 134 39 146 38 c 4
 166 37 190 41 206 49 c 6
 214 52 l 5
 209 53 l 6
 207 54 197 54 188 55 c 4
EndSplineSet
EndChar

StartChar: quotedblleft
Encoding: 8220 8220 403
Width: 704
Flags: HW
LayerCount: 2
Fore
SplineSet
334 638 m 0
 340 642 344 640 355 629 c 0
 364 621 366 618 366 613 c 0
 366 608 364 607 353 599 c 0
 348 595 339 587 333 581 c 0
 288 538 262 482 257 420 c 0
 257 409 256 409 264 415 c 0
 274 422 287 426 303 427 c 0
 314 427 325 426 335 423 c 0
 352 417 367 403 374 388 c 0
 381 374 382 367 382 352 c 0
 382 336 381 329 374 315 c 0
 371 307 367 304 361 298 c 0
 352 290 345 285 335 281 c 0
 299 269 262 282 239 315 c 0
 221 342 212 376 213 416 c 0
 215 475 234 531 271 579 c 0
 285 598 318 629 334 638 c 0
607 638 m 0
 613 642 618 640 629 629 c 0
 638 621 639 618 639 613 c 0
 639 608 638 607 627 599 c 0
 622 595 612 587 606 581 c 0
 561 538 535 482 530 420 c 0
 530 409 530 409 538 415 c 0
 548 422 561 426 577 427 c 0
 588 427 598 426 608 423 c 0
 625 417 640 403 647 388 c 0
 654 374 655 367 655 352 c 0
 655 336 654 329 647 315 c 0
 644 307 641 304 635 298 c 0
 626 290 618 285 608 281 c 0
 572 269 535 282 512 315 c 0
 494 342 485 376 486 416 c 0
 488 475 508 531 545 579 c 0
 559 598 591 629 607 638 c 0
EndSplineSet
EndChar

StartChar: quotedblright
Encoding: 8221 8221 404
Width: 704
Flags: HW
LayerCount: 2
Fore
SplineSet
108 639 m 0
 117 640 130 640 138 638 c 0
 187 628 219 574 217 501 c 0
 215 442 196 386 159 338 c 0
 145 319 112 288 97 279 c 0
 90 275 86 277 75 288 c 0
 66 296 65 298 65 303 c 0
 65 308 66 309 77 317 c 0
 82 321 91 330 97 336 c 0
 142 379 168 435 173 497 c 0
 173 508 174 508 166 502 c 0
 156 495 143 490 128 489 c 0
 116 489 105 491 95 494 c 0
 78 500 63 513 56 528 c 0
 49 542 48 549 48 565 c 0
 48 580 49 587 56 601 c 0
 59 609 63 612 69 618 c 0
 80 629 93 636 108 639 c 0
381 639 m 0
 390 640 404 640 412 638 c 0
 461 628 492 574 490 501 c 0
 488 442 469 386 432 338 c 0
 418 319 386 288 371 279 c 0
 364 275 359 277 348 288 c 0
 339 296 338 298 338 303 c 0
 338 308 339 309 350 317 c 0
 355 321 365 330 371 336 c 0
 416 379 441 435 446 497 c 0
 446 508 447 508 439 502 c 0
 429 495 416 490 401 489 c 0
 389 489 379 491 369 494 c 0
 352 500 337 513 330 528 c 0
 323 542 322 549 322 565 c 0
 322 580 323 587 330 601 c 0
 333 609 336 612 342 618 c 0
 353 629 366 636 381 639 c 0
EndSplineSet
EndChar

StartChar: endash
Encoding: 8211 8211 405
Width: 704
Flags: HW
LayerCount: 2
Fore
SplineSet
65 299 m 0
 68 300 634 300 637 299 c 0
 642 297 643 293 643 278 c 0
 643 264 642 259 637 257 c 0
 634 256 69 256 66 257 c 0
 61 259 60 264 60 278 c 0
 60 293 61 297 65 299 c 0
EndSplineSet
EndChar

StartChar: emdash
Encoding: 8212 8212 406
Width: 704
Flags: HW
LayerCount: 2
Fore
SplineSet
25 299 m 0
 28 300 674 300 677 299 c 0
 682 297 683 293 683 278 c 0
 683 264 682 259 677 257 c 0
 674 256 29 256 26 257 c 0
 21 259 20 264 20 278 c 0
 20 293 21 297 25 299 c 0
EndSplineSet
EndChar

StartChar: uniFB00
Encoding: 64256 64256 407
Width: 704
Flags: HW
LayerCount: 2
Fore
SplineSet
378 645 m 0
 381 646 398 646 414 645 c 0
 442 645 444 645 454 643 c 0
 474 638 492 629 506 617 c 2
 513 611 l 1
 524 616 l 2
 563 633 605 642 662 645 c 0
 691 647 714 646 725 643 c 0
 752 636 775 618 787 595 c 0
 799 569 799 544 788 520 c 0
 784 512 782 509 776 503 c 0
 771 499 765 495 760 492 c 0
 748 486 740 484 725 484 c 0
 710 484 702 486 690 492 c 0
 685 495 679 499 674 503 c 0
 668 509 666 512 662 520 c 0
 654 536 651 554 655 571 c 0
 656 578 663 592 667 599 c 2
 669 602 l 1
 656 602 l 2
 632 600 609 595 594 587 c 0
 575 577 561 562 554 544 c 2
 552 537 l 1
 551 494 l 1
 551 451 l 1
 611 451 l 2
 653 451 674 451 675 450 c 0
 680 448 681 443 681 428 c 0
 681 413 680 409 675 407 c 0
 674 406 654 406 614 406 c 2
 556 406 l 1
 556 265 l 2
 557 143 557 124 558 110 c 0
 562 79 566 64 574 57 c 0
 581 50 593 47 612 45 c 0
 631 44 632 45 632 23 c 0
 632 -1 632 -1 604 2 c 0
 572 7 551 8 516 9 c 0
 473 9 447 8 411 2 c 0
 400 0 396 0 394 1 c 0
 388 3 388 6 388 23 c 0
 388 39 388 39 390 42 c 0
 393 44 395 44 408 46 c 0
 420 47 427 50 433 56 c 0
 439 61 440 67 443 84 c 0
 447 110 448 116 449 263 c 2
 449 406 l 1
 335 406 l 1
 221 406 l 1
 221 263 l 2
 222 116 222 110 226 84 c 0
 229 67 231 61 237 56 c 0
 243 50 250 47 263 46 c 0
 275 44 277 44 280 42 c 0
 282 39 282 39 282 23 c 0
 282 6 281 3 275 1 c 0
 273 0 270 0 259 2 c 0
 228 7 202 9 168 9 c 0
 133 9 107 7 76 2 c 0
 65 0 61 0 59 1 c 0
 53 3 53 6 53 23 c 0
 53 31 53 39 54 40 c 0
 56 43 61 45 70 45 c 0
 86 47 98 53 103 62 c 0
 105 67 109 83 111 97 c 0
 113 122 114 154 114 276 c 2
 114 406 l 1
 78 406 l 2
 53 406 40 406 39 407 c 0
 34 409 33 413 33 429 c 0
 33 444 34 444 36 447 c 2
 39 451 l 1
 77 451 l 1
 114 451 l 1
 114 490 l 2
 114 535 114 540 121 553 c 0
 134 583 165 604 220 621 c 0
 264 635 310 642 378 645 c 0
417 600 m 2
 409 601 359 602 348 601 c 0
 288 596 245 579 225 551 c 0
 217 539 217 539 216 492 c 2
 216 451 l 1
 332 451 l 1
 449 451 l 1
 449 463 l 1
 449 476 l 1
 442 478 l 2
 426 484 413 496 406 510 c 0
 401 521 398 529 397 541 c 0
 396 561 404 583 417 595 c 2
 421 600 l 1
 417 600 l 2
EndSplineSet
EndChar

StartChar: uniFB02
Encoding: 64258 64258 408
Width: 688
VWidth: 1000
Flags: HW
LayerCount: 2
Fore
SplineSet
377 630 m 0
 404 631 443 631 453 630 c 0
 466 628 476 626 486 623 c 2
 496 619 l 1
 527 622 l 2
 562 626 563 626 566 620 c 0
 568 617 568 596 568 368 c 0
 569 182 569 115 570 107 c 0
 571 91 574 73 577 66 c 0
 581 53 593 46 614 44 c 0
 623 44 627 42 629 39 c 0
 630 38 630 30 630 22 c 0
 630 -1 630 -1 605 2 c 0
 573 7 549 9 516 9 c 0
 482 9 458 7 426 2 c 0
 401 -1 401 -1 401 22 c 0
 401 30 401 38 402 39 c 0
 404 42 408 44 417 44 c 0
 438 46 450 53 454 66 c 0
 457 73 460 91 461 107 c 0
 462 115 462 161 463 257 c 2
 463 396 l 1
 344 396 l 1
 224 396 l 1
 224 257 l 2
 225 161 225 115 226 107 c 0
 227 91 230 73 233 66 c 0
 237 53 249 46 270 44 c 0
 279 44 283 42 285 39 c 0
 286 38 286 30 286 22 c 0
 286 -1 286 -1 261 2 c 0
 229 7 205 9 172 9 c 0
 138 9 114 7 82 2 c 0
 57 -1 57 -1 57 22 c 0
 57 30 57 38 58 39 c 0
 60 42 64 44 73 44 c 0
 94 46 106 53 110 66 c 0
 113 73 116 91 117 107 c 0
 118 115 118 161 119 257 c 2
 119 396 l 1
 80 396 l 2
 53 396 40 396 39 397 c 0
 34 399 33 403 33 419 c 0
 33 434 34 434 36 437 c 2
 39 440 l 1
 79 440 l 1
 119 440 l 1
 119 479 l 2
 119 510 119 519 121 525 c 0
 122 535 130 549 136 556 c 0
 170 597 262 625 377 630 c 0
421 587 m 2
 412 588 372 588 357 587 c 0
 311 584 272 573 247 556 c 0
 239 550 228 539 225 532 c 0
 219 522 219 519 219 478 c 2
 219 440 l 1
 341 440 l 1
 463 440 l 1
 463 458 l 2
 463 472 463 475 462 475 c 0
 461 475 456 477 450 480 c 0
 432 489 420 504 415 524 c 0
 413 533 413 551 415 560 c 0
 417 567 423 579 426 584 c 2
 428 587 l 1
 421 587 l 2
EndSplineSet
EndChar

StartChar: uniFB03
Encoding: 64259 64259 409
Width: 688
VWidth: 1000
Flags: HW
LayerCount: 2
Fore
SplineSet
253 630 m 0
 274 631 305 631 313 629 c 0
 326 625 342 615 352 605 c 2
 357 599 l 1
 360 601 l 2
 368 605 386 612 397 615 c 0
 430 625 475 631 519 631 c 0
 535 631 545 629 556 625 c 0
 576 616 590 602 601 581 c 0
 610 564 614 548 615 528 c 0
 616 496 602 470 576 458 c 0
 570 456 569 456 544 456 c 0
 519 456 518 456 513 459 c 0
 499 465 488 476 481 489 c 0
 467 519 474 558 498 577 c 0
 501 579 506 582 509 584 c 2
 514 587 l 1
 506 588 l 2
 489 589 464 586 447 580 c 0
 417 570 398 551 392 524 c 0
 391 519 391 508 391 479 c 2
 391 440 l 1
 434 440 l 1
 478 440 l 1
 479 443 l 2
 482 450 481 450 551 453 c 0
 602 455 617 456 619 455 c 0
 625 452 625 465 625 278 c 0
 626 106 626 97 630 73 c 0
 631 61 633 58 637 53 c 0
 641 48 646 45 653 44 c 0
 665 43 667 40 667 22 c 0
 667 8 666 4 661 1 c 0
 658 0 657 0 644 2 c 0
 618 7 606 8 573 8 c 0
 539 8 527 7 501 2 c 0
 488 0 487 0 484 1 c 0
 479 4 478 8 478 22 c 0
 478 40 480 43 492 44 c 0
 495 45 499 46 501 47 c 0
 505 49 511 55 513 59 c 0
 514 63 517 80 518 96 c 0
 520 114 520 289 519 323 c 0
 517 364 515 384 511 392 c 2
 509 396 l 1
 452 396 l 1
 396 396 l 1
 396 252 l 2
 397 107 397 96 401 73 c 0
 402 61 404 58 408 53 c 0
 412 48 417 45 424 44 c 0
 436 43 438 40 438 22 c 0
 438 8 437 4 432 1 c 0
 429 0 428 0 415 2 c 0
 389 7 377 8 344 8 c 0
 310 8 298 7 272 2 c 0
 259 0 258 0 255 1 c 0
 250 4 249 8 249 22 c 0
 249 40 251 43 263 44 c 0
 270 45 275 48 279 53 c 0
 283 58 285 61 286 73 c 0
 290 96 290 107 291 252 c 2
 291 396 l 1
 229 396 l 1
 167 396 l 1
 167 252 l 2
 168 107 168 96 172 73 c 0
 173 61 175 58 179 53 c 0
 183 48 188 45 195 44 c 0
 207 43 209 40 209 22 c 0
 209 8 208 4 203 1 c 0
 200 0 199 0 186 2 c 0
 160 7 148 8 115 8 c 0
 81 8 69 7 43 2 c 0
 30 0 29 0 26 1 c 0
 21 4 20 8 20 22 c 0
 20 40 22 43 34 44 c 0
 41 45 46 48 50 53 c 0
 54 58 56 61 57 73 c 0
 61 96 61 107 62 252 c 2
 62 396 l 1
 46 396 l 2
 36 396 29 396 28 397 c 0
 23 399 22 403 22 419 c 0
 22 434 23 434 25 437 c 2
 28 440 l 1
 45 440 l 1
 62 440 l 1
 62 479 l 2
 62 508 62 520 63 525 c 0
 66 541 75 557 86 569 c 0
 117 603 178 625 253 630 c 0
278 587 m 0
 275 588 269 588 264 588 c 0
 222 588 190 574 174 549 c 0
 163 533 162 527 162 479 c 2
 162 440 l 1
 227 440 l 1
 291 440 l 1
 291 447 l 2
 291 453 291 454 289 455 c 0
 284 456 270 464 264 468 c 0
 254 476 247 488 243 503 c 0
 240 513 240 531 243 542 c 0
 246 553 251 563 258 570 c 0
 263 576 277 586 280 586 c 0
 281 586 280 587 278 587 c 0
EndSplineSet
EndChar

StartChar: uniFB04
Encoding: 64260 64260 410
Width: 688
VWidth: 1000
Flags: HW
LayerCount: 2
Fore
SplineSet
253 630 m 0
 260 630 275 631 287 631 c 0
 305 630 309 630 315 628 c 0
 328 624 341 617 352 606 c 2
 358 601 l 1
 367 605 l 2
 403 621 458 631 516 631 c 0
 533 631 545 629 557 624 c 2
 565 620 l 1
 590 623 l 2
 619 626 620 625 623 620 c 0
 625 617 625 595 625 363 c 0
 626 103 626 98 630 73 c 0
 631 61 633 58 637 53 c 0
 641 48 646 45 653 44 c 0
 665 43 667 40 667 22 c 0
 667 8 666 4 661 1 c 0
 658 0 657 0 644 2 c 0
 618 7 606 8 573 8 c 0
 539 8 527 7 501 2 c 0
 488 0 487 0 484 1 c 0
 479 4 478 8 478 22 c 0
 478 40 480 43 492 44 c 0
 499 45 504 48 508 53 c 0
 512 58 514 61 515 73 c 0
 519 96 519 107 520 252 c 2
 520 396 l 1
 458 396 l 1
 396 396 l 1
 396 252 l 2
 397 107 397 96 401 73 c 0
 402 61 404 58 408 53 c 0
 412 48 417 45 424 44 c 0
 436 43 438 40 438 22 c 0
 438 8 437 4 432 1 c 0
 429 0 428 0 415 2 c 0
 389 7 377 8 344 8 c 0
 310 8 298 7 272 2 c 0
 259 0 258 0 255 1 c 0
 250 4 249 8 249 22 c 0
 249 40 251 43 263 44 c 0
 270 45 275 48 279 53 c 0
 283 58 285 61 286 73 c 0
 290 96 290 107 291 252 c 2
 291 396 l 1
 229 396 l 1
 167 396 l 1
 167 252 l 2
 168 107 168 96 172 73 c 0
 173 61 175 58 179 53 c 0
 183 48 188 45 195 44 c 0
 207 43 209 40 209 22 c 0
 209 8 208 4 203 1 c 0
 200 0 199 0 186 2 c 0
 160 7 148 8 115 8 c 0
 81 8 69 7 43 2 c 0
 30 0 29 0 26 1 c 0
 21 4 20 8 20 22 c 0
 20 40 22 43 34 44 c 0
 41 45 46 48 50 53 c 0
 54 58 56 61 57 73 c 0
 61 96 61 107 62 252 c 2
 62 396 l 1
 46 396 l 2
 36 396 29 396 28 397 c 0
 23 399 22 403 22 419 c 0
 22 434 23 434 25 437 c 2
 28 440 l 1
 45 440 l 1
 62 440 l 1
 62 479 l 2
 62 508 62 520 63 525 c 0
 66 541 75 557 86 569 c 0
 117 603 177 625 253 630 c 0
260 581 m 2
 267 588 l 1
 260 588 l 2
 237 587 214 581 198 572 c 0
 185 564 172 550 167 537 c 0
 163 526 162 519 162 479 c 2
 162 440 l 1
 227 440 l 1
 291 440 l 1
 291 452 l 1
 291 465 l 1
 286 466 l 2
 271 472 257 484 250 497 c 0
 244 509 242 518 242 533 c 0
 242 553 248 569 260 581 c 2
484 585 m 0
 486 588 487 588 475 587 c 0
 442 583 416 570 403 549 c 0
 392 533 391 527 391 479 c 2
 391 440 l 1
 456 440 l 1
 520 440 l 1
 520 458 l 2
 520 472 520 475 519 475 c 0
 518 475 513 477 507 480 c 0
 489 489 477 504 472 524 c 0
 470 533 470 551 472 560 c 0
 474 567 480 580 484 585 c 0
EndSplineSet
EndChar
